<?xml version="1.0" encoding="utf-8"?>
<!-- Generator: Adobe Illustrator 22.1.0, SVG Export Plug-In . SVG Version: 6.00 Build 0)  -->
<svg version="1.1" id="Layer_1" xmlns="http://www.w3.org/2000/svg" xmlns:xlink="http://www.w3.org/1999/xlink" x="0px" y="0px"
	 viewBox="0 0 512 512" style="enable-background:new 0 0 512 512;" xml:space="preserve">
<style type="text/css">
	.st0{fill:#E0734A;}
	.st1{fill:#69EBFC;}
	.st2{fill:#A1F1FC;}
	.st3{fill:#5ED4E3;}
	.st4{fill:#5FD4E3;}
	.st5{fill:#FFF7F2;}
	.st6{fill:#6770E6;}
	.st7{fill:#5861C7;}
	.st8{fill:#FF8354;}
	.st9{fill:#FFEFE4;}
	.st10{fill:#FFAC8C;}
	.st11{fill:#D476E2;}
	.st12{fill:#8F95E6;}
	.st13{fill:#EDD4C2;}
	.st14{fill:#C7FCFE;}
	.st15{fill:#B665C2;}
	.st16{fill:#EA82FA;}
	.st17{fill:#382F8B;}
	.st18{fill:#333399;}
	.st19{fill:#5A62C9;}
	.st20{fill:#894C92;}
	.st21{fill:#A95EB5;}
	.st22{fill:#CCD0FF;}
	.st23{fill:#FFFFFF;}
	.st24{fill:#FFE4D1;}
	.st25{fill:#4E56B0;}
	.st26{fill:#4D55AD;}
	.st27{fill:#53BAC7;}
	.st28{fill:#707AFA;}
	.st29{opacity:0.5;fill:#A1F1FC;}
	.st30{fill:#5C65CF;}
	.st31{fill:#3D3DB8;}
	.st32{fill:#9FA5FF;}
	.st33{fill:#29297A;}
	.st34{fill:#636CDE;}
	.st35{fill:#4C53AB;}
	.st36{fill:#56C1CF;}
	.st37{fill:#A75DB3;}
	.st38{fill:#CFF9FF;}
	.st39{fill:#69EBFC;stroke:#6770E6;stroke-width:14.076;stroke-miterlimit:10;}
	.st40{fill:#4F57B3;}
	.st41{fill:#D1FAFF;}
	.st42{fill:#FFCDBA;}
	.st43{fill:#FFE9E0;}
</style>
<g>
	<path id="XMLID_911_" class="st6" d="M503.282,450.754H8.718c-4.815,0-8.718-3.903-8.718-8.718V126.424
		c0-4.815,3.903-8.718,8.718-8.718h494.564c4.815,0,8.718,3.903,8.718,8.718v315.612C512,446.851,508.097,450.754,503.282,450.754z"
		/>
	<path id="XMLID_910_" class="st2" d="M30,412.036V156.424c0-4.815,3.903-8.718,8.718-8.718h434.564
		c4.815,0,8.718,3.903,8.718,8.718v255.612c0,4.815-3.903,8.718-8.718,8.718H38.718C33.903,420.754,30,416.851,30,412.036z"/>
	<rect id="XMLID_909_" x="199.148" y="450.754" class="st7" width="113.704" height="39.282"/>
	<path id="XMLID_908_" class="st6" d="M341.874,512H170.126c-6.065,0-10.982-4.917-10.982-10.982v0
		c0-6.065,4.917-10.982,10.982-10.982h171.747c6.065,0,10.982,4.917,10.982,10.982v0C352.856,507.083,347.939,512,341.874,512z"/>
	<path id="XMLID_907_" class="st7" d="M341.874,502H170.126c-4.263,0-7.949-2.433-9.77-5.982c-0.77,1.501-1.212,3.197-1.212,5v0
		c0,6.065,4.917,10.982,10.982,10.982h171.747c6.065,0,10.982-4.917,10.982-10.982v0c0-1.803-0.443-3.499-1.212-5
		C349.823,499.567,346.136,502,341.874,502z"/>
	<circle class="st11" cx="256" cy="110.261" r="110.261"/>
	<path class="st16" d="M256,20c57.524,0,104.75,44.053,109.805,100.261c0.296-3.294,0.456-6.628,0.456-10
		C366.261,49.365,316.895,0,256,0S145.739,49.365,145.739,110.261c0,3.372,0.16,6.706,0.456,10C151.25,64.053,198.476,20,256,20z"/>
	<path class="st7" d="M317.75,89.695l5.084-5.084c3.905-3.905,3.905-10.237,0-14.143c-3.906-3.904-10.236-3.904-14.143,0
		l-5.084,5.084l-5.084-5.084c-3.906-3.904-10.236-3.904-14.143,0c-3.905,3.905-3.905,10.237,0,14.143l5.084,5.084l-5.084,5.084
		c-3.905,3.905-3.905,10.237,0,14.143c1.953,1.952,4.512,2.929,7.071,2.929s5.118-0.977,7.071-2.929l5.084-5.084l5.084,5.084
		c1.953,1.952,4.512,2.929,7.071,2.929s5.118-0.977,7.071-2.929c3.905-3.905,3.905-10.237,0-14.143L317.75,89.695z"/>
	<g>
		<path class="st7" d="M291.73,176.232c-4.651,0-8.817-3.263-9.786-7.997c-2.506-12.246-13.417-21.135-25.944-21.135
			c-12.438,0-23.334,8.813-25.906,20.955c-1.145,5.402-6.453,8.857-11.855,7.711c-5.403-1.146-8.855-6.453-7.711-11.855
			c4.52-21.33,23.644-36.811,45.473-36.811c21.985,0,41.137,15.613,45.538,37.125c1.107,5.411-2.382,10.695-7.792,11.802
			C293.069,176.166,292.395,176.232,291.73,176.232z"/>
	</g>
	<path class="st8" d="M140.362,384.728c-9.117,0-16.535-7.417-16.535-16.535v-8.101H82.531c-11.298,0-20.49-9.191-20.49-20.49
		c0-4.088,1.206-8.042,3.487-11.435l52.017-77.338c3.812-5.67,10.168-9.055,17.001-9.055h3.425c11.298,0,20.49,9.191,20.49,20.49
		v64.758h0.281c9.117,0,16.535,7.417,16.535,16.535s-7.417,16.536-16.535,16.536h-0.281v8.101c0,9.117-7.417,16.535-16.535,16.535
		H140.362z M123.827,327.021v-29.787l-20.147,29.787H123.827z"/>
	<path class="st8" d="M256,387.856c-9.306,0-17.85-1.983-25.389-5.894c-7.466-3.872-13.927-9.261-19.205-16.016
		c-5.215-6.675-9.259-14.643-12.018-23.683c-2.728-8.925-4.111-18.686-4.111-29.012c0-10.323,1.383-20.085,4.112-29.013
		c2.76-9.04,6.803-17.008,12.017-23.683c5.275-6.75,11.736-12.139,19.203-16.014c7.54-3.912,16.082-5.895,25.391-5.895
		c9.306,0,17.847,1.983,25.388,5.894c7.472,3.88,13.933,9.268,19.205,16.015c5.209,6.668,9.252,14.637,12.017,23.682
		c2.729,8.942,4.112,18.703,4.112,29.014c0,10.314-1.383,20.075-4.111,29.012c-2.764,9.046-6.808,17.014-12.018,23.683
		c-5.275,6.752-11.737,12.141-19.204,16.016C273.846,385.874,265.304,387.856,256,387.856z M256,272.106
		c-4.003,0-7.445,0.903-10.525,2.76c-3.147,1.897-5.862,4.624-8.07,8.103c-2.327,3.662-4.137,8.072-5.38,13.105
		c-1.274,5.153-1.919,10.932-1.919,17.176c0,6.122,0.646,11.872,1.922,17.09c1.243,5.093,3.051,9.53,5.376,13.189
		c2.212,3.484,4.927,6.211,8.07,8.105c3.076,1.858,6.519,2.76,10.526,2.76c3.873,0,7.252-0.903,10.328-2.759
		c3.159-1.905,5.916-4.646,8.197-8.149c2.376-3.654,4.21-8.077,5.447-13.146c1.275-5.221,1.922-10.972,1.922-17.09
		c0-6.241-0.645-12.02-1.919-17.177c-1.238-5.008-3.072-9.403-5.451-13.061c-2.276-3.496-5.035-6.238-8.197-8.147
		C263.248,273.009,259.869,272.106,256,272.106z"/>
	<path class="st8" d="M415.044,384.728c-9.117,0-16.535-7.417-16.535-16.535v-8.101h-41.296c-11.298,0-20.49-9.191-20.49-20.49
		c0-4.088,1.206-8.042,3.487-11.435l52.017-77.338c3.812-5.67,10.168-9.055,17.001-9.055h3.425c11.298,0,20.49,9.191,20.49,20.49
		v64.758h0.281c9.117,0,16.535,7.417,16.535,16.535s-7.417,16.536-16.535,16.536h-0.281v8.101c0,9.117-7.417,16.535-16.535,16.535
		H415.044z M398.509,327.021v-29.787l-20.147,29.787H398.509z"/>
	<path class="st7" d="M222.536,89.695l5.084-5.084c3.905-3.905,3.905-10.237,0-14.143c-3.906-3.904-10.236-3.904-14.143,0
		l-5.084,5.084l-5.084-5.084c-3.906-3.904-10.236-3.904-14.143,0c-3.905,3.905-3.905,10.237,0,14.143l5.084,5.084l-5.084,5.084
		c-3.905,3.905-3.905,10.237,0,14.143c1.953,1.952,4.512,2.929,7.071,2.929s5.118-0.977,7.071-2.929l5.084-5.084l5.084,5.084
		c1.953,1.952,4.512,2.929,7.071,2.929s5.118-0.977,7.071-2.929c3.905-3.905,3.905-10.237,0-14.143L222.536,89.695z"/>
</g>
</svg>
