<?xml version="1.0" encoding="utf-8"?>
<!-- Generator: Adobe Illustrator 26.2.1, SVG Export Plug-In . SVG Version: 6.00 Build 0)  -->
<svg version="1.1" xmlns="http://www.w3.org/2000/svg" xmlns:xlink="http://www.w3.org/1999/xlink" x="0px" y="0px"
	 viewBox="0 0 3000 3000" style="enable-background:new 0 0 3000 3000;" xml:space="preserve">
<style type="text/css">
	.st0{fill:#FEECC6;}
	.st1{fill:#FFFFFF;}
	.st2{fill:#F05867;}
	.st3{fill:#89D0C3;}
	.st4{fill:#FBE335;}
	.st5{fill:#F47D61;}
	.st6{fill:#1CA3DB;}
	.st7{fill:#EAC92A;}
	.st8{fill:#C42038;}
	.st9{fill:#FCE534;}
	.st10{fill:#F7B0C4;}
	.st11{fill:#F1719A;}
	.st12{fill:#0863AF;}
	.st13{fill:#2876B0;}
</style>
<g id="Background">
</g>
<g id="Graphic">
	<g>
		<path class="st0" d="M2759.85,2317.58c-0.33,14.49-12.17,26.06-26.67,26.06h-790.67c-16.73,0-30.29-13.56-30.29-30.29
			c0,0,14.97-165.66,12.25-220.9c-12.25-248.53-12.25-838.43-12.25-838.43h829.21c9.83,0,17.8,7.97,17.8,17.8v271.57
			c0,0-5.8,114.19,0,189.98C2769.2,1863.66,2762.09,2218.41,2759.85,2317.58z"/>
		<path class="st1" d="M2375.6,1888.89c-16.32,0-20.47-12.23-24.18-23.17c-3.04-8.96-6.18-18.22-15.45-22.32
			c-12.66-5.6-35.27-1.16-69.12,13.58c-31.97,13.92-56.63,16.38-75.39,7.51c-24.93-11.78-33.13-40.56-39.71-63.69
			c-3.94-13.85-7.35-25.8-12.96-27.57c-27.39-8.59-75.36-11.25-148.39,24.91c-43.88,21.73-76.29,47.48-76.62,47.74
			c-1.08,0.86-2.65,0.69-3.51-0.39c-0.86-1.08-0.69-2.65,0.39-3.51c0.33-0.26,33.16-26.35,77.52-48.31
			c26.1-12.92,51.06-21.93,74.16-26.76c29.05-6.08,55.28-5.55,77.95,1.57c8.18,2.57,11.75,15.1,16.27,30.97
			c6.31,22.16,14.16,49.73,37.04,60.53c17.14,8.1,41.12,5.55,71.26-7.58c35.69-15.54,58.93-19.85,73.14-13.57
			c11.27,4.99,14.93,15.77,18.16,25.29c4.23,12.45,7.56,22.28,25.49,19.22c16.1-2.75,41.88-13.97,69.18-25.85
			c48.43-21.08,103.33-44.97,127.49-31.89c6.6,3.57,10.67,9.66,12.11,18.1c1.35,7.93,5.57,14.04,12.91,18.68
			c40.03,25.3,154.07-6.44,155.22-6.77c1.33-0.37,2.71,0.4,3.08,1.73c0.38,1.33-0.4,2.71-1.73,3.08
			c-4.77,1.35-117.34,32.67-159.25,6.18c-8.49-5.36-13.59-12.79-15.17-22.06c-1.18-6.95-4.31-11.7-9.56-14.54
			c-22.02-11.91-75.73,11.46-123.12,32.08c-27.58,12-53.64,23.34-70.34,26.19C2379.97,1888.69,2377.69,1888.89,2375.6,1888.89z"/>
		<path class="st1" d="M2375.6,1953.77c-16.32,0-20.47-12.23-24.18-23.17c-3.04-8.96-6.18-18.22-15.45-22.32
			c-12.66-5.6-35.27-1.16-69.12,13.58c-31.97,13.92-56.63,16.38-75.39,7.51c-24.93-11.78-33.13-40.56-39.71-63.69
			c-3.94-13.85-7.35-25.8-12.96-27.57c-27.39-8.6-75.36-11.25-148.39,24.91c-43.88,21.73-76.29,47.48-76.62,47.74
			c-1.08,0.86-2.65,0.69-3.51-0.39c-0.86-1.08-0.69-2.65,0.39-3.51c0.33-0.26,33.16-26.35,77.52-48.31
			c26.1-12.92,51.06-21.93,74.16-26.76c29.05-6.08,55.28-5.55,77.95,1.57c8.18,2.57,11.75,15.1,16.27,30.97
			c6.31,22.16,14.16,49.73,37.04,60.53c17.14,8.1,41.12,5.55,71.26-7.58c35.69-15.54,58.93-19.85,73.14-13.57
			c11.27,4.99,14.93,15.77,18.16,25.29c4.23,12.45,7.56,22.28,25.49,19.22c16.1-2.75,41.88-13.97,69.18-25.85
			c48.43-21.08,103.33-44.97,127.49-31.89c6.6,3.57,10.67,9.66,12.11,18.1c1.35,7.93,5.57,14.04,12.91,18.68
			c40.03,25.3,154.07-6.45,155.22-6.77c1.33-0.37,2.71,0.4,3.08,1.73c0.38,1.33-0.4,2.71-1.73,3.08
			c-4.77,1.35-117.34,32.67-159.25,6.18c-8.49-5.36-13.59-12.79-15.17-22.06c-1.18-6.95-4.31-11.7-9.56-14.54
			c-22.02-11.91-75.73,11.46-123.12,32.08c-27.58,12-53.64,23.34-70.34,26.19C2379.97,1953.57,2377.69,1953.77,2375.6,1953.77z"/>
		<path class="st2" d="M2112.4,1994.63h-296.81c-26.18,0-47.48-21.3-47.48-47.48v-131.17c0-23.42-19.06-42.48-42.48-42.48h-111.59
			c-1.38,0-2.5-1.12-2.5-2.5s1.12-2.5,2.5-2.5h111.59c26.18,0,47.48,21.3,47.48,47.48v131.17c0,23.43,19.06,42.48,42.48,42.48
			h296.81c23.42,0,42.48-19.06,42.48-42.48v-242.89c0-1.38,1.12-2.5,2.5-2.5s2.5,1.12,2.5,2.5v242.89
			C2159.89,1973.33,2138.59,1994.63,2112.4,1994.63z"/>
		<path class="st3" d="M2117.92,634.01c-1.38,0-2.5-1.12-2.5-2.5V340.78c0-42.87-34.88-77.74-77.74-77.74h-186.82
			c-42.87,0-77.74,34.88-77.74,77.74v32.77c0,45.63-37.12,82.74-82.74,82.74h-379.62c-1.38,0-2.5-1.12-2.5-2.5s1.12-2.5,2.5-2.5
			h379.62c42.87,0,77.74-34.88,77.74-77.74v-32.77c0-45.63,37.12-82.74,82.74-82.74h186.82c45.62,0,82.74,37.12,82.74,82.74v290.72
			C2120.42,632.89,2119.3,634.01,2117.92,634.01z"/>
		<rect x="1640.58" y="764.46" width="939.79" height="939.79"/>
		<path class="st1" d="M2577.38,1226.29c-136.84,0-241.34-40.1-310.66-119.21c-27.4-31.27-49.27-68.78-65.01-111.47
			c-12.58-34.11-21.29-71.59-25.89-111.41c-7.83-67.76-0.94-119.56-0.87-120.07c0.19-1.37,1.44-2.33,2.82-2.14
			c1.37,0.19,2.33,1.45,2.14,2.82c-0.07,0.51-6.89,51.8,0.9,118.97c4.57,39.4,13.19,76.48,25.63,110.2
			c15.53,42.09,37.09,79.04,64.07,109.84c68.82,78.53,173.06,118.04,309.84,117.47c0,0,0.01,0,0.01,0c1.38,0,2.49,1.11,2.5,2.49
			c0.01,1.38-1.11,2.5-2.49,2.51C2579.38,1226.29,2578.38,1226.29,2577.38,1226.29z"/>
		<path class="st1" d="M2484.26,1433.22c-159.33,0-287.45-46.04-381.74-137.41c-46.16-44.73-84.22-100.56-113.13-165.93
			c-23.11-52.25-40.45-110.67-51.56-173.66c-18.9-107.2-13.05-191.66-12.99-192.5c0.1-1.38,1.29-2.4,2.67-2.31
			c1.38,0.1,2.41,1.3,2.31,2.67c-0.06,0.84-5.86,84.79,12.96,191.41c11.04,62.57,28.27,120.59,51.22,172.45
			c28.65,64.75,66.34,120.03,112.02,164.29c93.31,90.41,220.28,135.97,378.27,135.98c30.77,0,62.71-1.73,95.82-5.19
			c1.36-0.15,2.6,0.85,2.75,2.23c0.14,1.37-0.85,2.6-2.23,2.75C2547.34,1431.48,2515.21,1433.22,2484.26,1433.22z"/>
		<circle class="st4" cx="2529.28" cy="531.66" r="48.49"/>
		<path d="M2458.47,724.28c-67.16,0-121.81-54.64-121.81-121.81s54.64-121.81,121.81-121.81s121.81,54.64,121.81,121.81
			S2525.64,724.28,2458.47,724.28z M2458.47,485.67c-64.41,0-116.81,52.4-116.81,116.81s52.4,116.81,116.81,116.81
			s116.81-52.4,116.81-116.81S2522.88,485.67,2458.47,485.67z"/>
		<path d="M2721.94,362.54h-181.57c-1.38,0-2.5-1.12-2.5-2.5s1.12-2.5,2.5-2.5h181.57c1.38,0,2.5,1.12,2.5,2.5
			S2723.32,362.54,2721.94,362.54z"/>
		<path d="M2519.38,362.54h-65.87c-1.38,0-2.5-1.12-2.5-2.5s1.12-2.5,2.5-2.5h65.87c1.38,0,2.5,1.12,2.5,2.5
			S2520.76,362.54,2519.38,362.54z"/>
		<path d="M2416.45,362.54h-65.88c-1.38,0-2.5-1.12-2.5-2.5s1.12-2.5,2.5-2.5h65.88c1.38,0,2.5,1.12,2.5,2.5
			S2417.83,362.54,2416.45,362.54z"/>
		<path d="M2721.94,438.42h-90.78c-1.38,0-2.5-1.12-2.5-2.5s1.12-2.5,2.5-2.5h90.78c1.38,0,2.5,1.12,2.5,2.5
			S2723.32,438.42,2721.94,438.42z"/>
		<path d="M2594.31,438.42h-35.82c-1.38,0-2.5-1.12-2.5-2.5s1.12-2.5,2.5-2.5h35.82c1.38,0,2.5,1.12,2.5,2.5
			S2595.69,438.42,2594.31,438.42z"/>
		<path d="M2545.73,438.42h-65.87c-1.38,0-2.5-1.12-2.5-2.5s1.12-2.5,2.5-2.5h65.87c1.38,0,2.5,1.12,2.5,2.5
			S2547.11,438.42,2545.73,438.42z"/>
		<path d="M2721.94,531.17h-65.88c-1.38,0-2.5-1.12-2.5-2.5s1.12-2.5,2.5-2.5h65.88c1.38,0,2.5,1.12,2.5,2.5
			S2723.32,531.17,2721.94,531.17z"/>
		<path d="M2638.52,563.86c-0.82,0-1.62-0.4-2.1-1.14l-20.79-32.21c-0.53-0.82-0.53-1.86-0.02-2.68l20.79-33.16
			c0.73-1.17,2.28-1.52,3.45-0.79c1.17,0.73,1.52,2.28,0.79,3.45l-19.95,31.81l19.93,30.87c0.75,1.16,0.42,2.71-0.74,3.46
			C2639.45,563.73,2638.98,563.86,2638.52,563.86z"/>
		<g>
			<rect x="1978.66" y="2093.22" class="st5" width="87.31" height="87.31"/>
			<rect x="2099.68" y="2110.96" class="st6" width="216.63" height="14.17"/>
			<rect x="2127.47" y="2208.49" class="st6" width="168.58" height="14.17"/>
			<rect x="2099.68" y="2159.73" class="st6" width="216.63" height="14.17"/>
			<path class="st1" d="M1972.1,2191.63c-0.63,0-1.26-0.24-1.75-0.71c-0.99-0.96-1-2.55-0.04-3.54l101.37-103.66
				c0.96-0.99,2.55-1,3.54-0.04s1,2.55,0.04,3.54l-101.37,103.66C1973.4,2191.38,1972.75,2191.63,1972.1,2191.63z"/>
			<path class="st6" d="M2286.06,2274.88h-149.62c-1.38,0-2.5-1.12-2.5-2.5s1.12-2.5,2.5-2.5h149.62c1.38,0,2.5,1.12,2.5,2.5
				S2287.44,2274.88,2286.06,2274.88z"/>
		</g>
		<path class="st6" d="M1312.16,1333.05H372.37c-1.38,0-2.5-1.12-2.5-2.5V390.76c0-1.38,1.12-2.5,2.5-2.5h939.79
			c1.38,0,2.5,1.12,2.5,2.5v939.79C1314.66,1331.93,1313.54,1333.05,1312.16,1333.05z M374.87,1328.05h934.79V393.26H374.87V1328.05
			z"/>
		<path class="st4" d="M1052.74,671.29c-17.13,0-28.81-4.79-35.3-14.38c-16.12-23.82,3.12-76.27,57.17-155.88
			c39.87-58.73,84.89-111.38,85.34-111.9c0.9-1.05,2.48-1.17,3.53-0.27c1.05,0.9,1.17,2.48,0.27,3.53
			c-0.45,0.52-45.31,52.99-85.02,111.49c-52.03,76.64-71.79,128.59-57.14,150.24c5.47,8.09,15.92,12.14,31.23,12.14
			c16.54,0,38.76-4.72,66.54-14.16c70.91-24.09,139.71-56.08,191.72-81.26c1.25-0.6,2.74-0.08,3.34,1.16
			c0.6,1.24,0.08,2.74-1.16,3.34c-52.15,25.24-121.13,57.31-192.29,81.49C1092.58,666.47,1069.92,671.29,1052.74,671.29z"/>
		<g>
			<path class="st7" d="M1126.8,1542.96l264.61,232.48c0,0,43.56,110.5-114.7,120.08l-332.15,31.07l65.46-346.49
				c0,0,43.19,11.84,75.45,43.91c-6.59-10.2-20.73-32.07-20.73-32.07L1126.8,1542.96z"/>
			<path class="st2" d="M1327.43,1887.61c0,0,158.9-8.86,219.53,74.51l353.68,607.28h-286.61c0,0-17.43-46.44-38.46-71.71
				c-21.03-25.26-47.34-79.04-27.13-111.26c13.22-21.08-36.85-73.16-49.48-78.21c-12.63-5.05-171.53-224.29-171.53-224.29V1887.61z"
				/>
			<path class="st8" d="M1488.15,2287.12c-0.27-26.69,1.24-53.4,4.15-79.93c4.06-37,9.25-74.04,16.98-110.47
				c5.9-27.8,13.19-55.31,21.84-82.39c0.02-2.28,0.04-4.56,0.04-6.84c0.06-18.05,3.84-35.09,11.34-51.11
				c-63.59-77.21-215.08-68.76-215.08-68.76v196.32c0,0,122.47,168.98,160.92,213.65
				C1488.25,2294.09,1488.19,2290.6,1488.15,2287.12z"/>
			<path d="M1010.03,2209.24H585.61c-1.08,0-2.03-0.69-2.37-1.71l-90.25-270.4c-8.99-26.93-4.62-55.59,11.97-78.63
				c16.6-23.04,42.4-36.25,70.8-36.25h99.95c17.75,0,34.86,5.32,49.49,15.39s25.7,24.15,32.03,40.74l76.34,199.88
				c0.49,1.29-0.15,2.73-1.44,3.23c-1.29,0.49-2.74-0.15-3.23-1.44l-76.34-199.88c-12.09-31.65-42.97-52.91-76.85-52.91h-99.95
				c-26.77,0-51.09,12.46-66.74,34.17c-15.65,21.72-19.76,48.74-11.29,74.13l89.67,268.69h422.62c1.38,0,2.5,1.12,2.5,2.5
				S1011.41,2209.24,1010.03,2209.24z"/>
			<path d="M1107.76,2741.96h-40.42c-1.17,0-2.19-0.81-2.44-1.96l-117.94-532.72c-0.3-1.35,0.55-2.68,1.9-2.98
				c1.35-0.31,2.68,0.55,2.98,1.9l117.5,530.76h38.41c1.38,0,2.5,1.12,2.5,2.5S1109.14,2741.96,1107.76,2741.96z"/>
			<path d="M931.37,2741.96h-40.42c-1.17,0-2.19-0.81-2.44-1.96l-117.94-532.72c-0.3-1.35,0.55-2.68,1.9-2.98
				c1.35-0.31,2.68,0.55,2.98,1.9l117.5,530.76h38.41c1.38,0,2.5,1.12,2.5,2.5S932.75,2741.96,931.37,2741.96z"/>
			<path class="st9" d="M984.33,1573.69l-88.99,3.77c-21.97,0.06-49.29,4.43-62.47,28.81l-179.84,380.59l357.01,5.26l33.8-354.14
				C1043.83,1637.99,1036.32,1573.61,984.33,1573.69z"/>
			<path class="st10" d="M1267.83,1738.91c0,0,59.41-23,67.57-23.47c8.16-0.48,10.8,8.4-24.65,23.95
				C1275.3,1754.94,1267.83,1738.91,1267.83,1738.91z"/>
			<path class="st10" d="M917.2,1576.54c0,0,12.52,19.42,36.32,14.66c23.79-4.76,30.81-17.5,30.81-17.5l16.99-113.03h-41.58
				L917.2,1576.54z"/>
			<circle class="st10" cx="970.9" cy="1457.11" r="57.28"/>
			<path class="st2" d="M998.57,1406.97c-11.42-6.31-25.04-8.78-38.84-6.04c-31.03,6.17-51.18,36.33-45.01,67.35
				c2.48,12.46,8.83,23.16,17.54,31.11c15.36-8.94,16.44-29,16.44-29l12.59-23.01C961.27,1447.38,973.88,1417.28,998.57,1406.97z"/>
			<circle class="st10" cx="948.94" cy="1458.19" r="16.41"/>
			<path class="st2" d="M998.57,1406.97c-11.36-0.36-44.08-3.05-33.56-4.52c27.54-3.86,29.63-23.68,40.05-25.75
				C1018.11,1374.09,1026.98,1400.38,998.57,1406.97z"/>
			<ellipse transform="matrix(0.7519 -0.6593 0.6593 0.7519 -726.235 987.3284)" cx="948.66" cy="1458.55" rx="2.5" ry="7.48"/>
			<path class="st10" d="M1169.22,1780.34l98.61-41.43c0,0,73.45-9.48,105.57,30.12c0,0,4.13,12.77-5.87,13.53
				c0,0,16.31,8.39,8.07,16.28c2.21,0.07,13.93,13.91,2.11,17.3c2.67,0.62,12.26,20.41,1.54,19.59c0,0-61.91-15.85-79.46-8.48
				c-17.55,7.37-120.63,70.82-120.63,70.82L1169.22,1780.34z"/>
			<path class="st11" d="M1367.53,1785.06c-0.57,0-1.14-0.19-1.61-0.59l0,0c-0.22-0.18-22.34-18.5-58.95-22.56
				c-1.37-0.15-2.36-1.39-2.21-2.76c0.15-1.37,1.38-2.36,2.76-2.21c38.2,4.25,60.69,22.92,61.63,23.71c1.05,0.89,1.19,2.47,0.3,3.52
				C1368.95,1784.76,1368.24,1785.06,1367.53,1785.06z"/>
			<path class="st11" d="M1375.6,1801.34c-0.34,0-0.69-0.07-1.03-0.22c-0.29-0.13-29.89-13.38-61.95-17.2
				c-1.37-0.16-2.35-1.41-2.19-2.78c0.16-1.37,1.41-2.34,2.78-2.19c32.85,3.91,63.11,17.47,63.41,17.6
				c1.26,0.57,1.82,2.05,1.25,3.31C1377.46,1800.79,1376.55,1801.34,1375.6,1801.34z"/>
			<path class="st11" d="M1377.71,1818.64c-0.27,0-0.55-0.04-0.82-0.14c-0.31-0.11-31.76-10.94-60.32-12.58
				c-1.38-0.08-2.43-1.26-2.35-2.64c0.08-1.38,1.28-2.44,2.64-2.35c29.27,1.69,61.36,12.74,61.68,12.85
				c1.3,0.45,1.99,1.88,1.54,3.18C1379.71,1817.99,1378.74,1818.64,1377.71,1818.64z"/>
			<path class="st11" d="M1310.75,1741.89c-0.08,0-0.17,0-0.25-0.01l-14.57-1.47c-1.37-0.14-2.37-1.37-2.24-2.74
				c0.14-1.37,1.37-2.37,2.74-2.24l14.57,1.47c1.37,0.14,2.37,1.37,2.24,2.74C1313.1,1740.93,1312.02,1741.89,1310.75,1741.89z"/>
			<ellipse transform="matrix(0.9808 -0.195 0.195 0.9808 -262.5703 225.1867)" cx="1012.31" cy="1446.04" rx="3.16" ry="7.05"/>
			<path d="M1025.65,1467.1c-0.49,0-0.98-0.24-1.26-0.69c-0.45-0.7-0.25-1.62,0.45-2.07l11.7-7.53l-12.98-12.11
				c-0.61-0.57-0.64-1.51-0.07-2.12c0.57-0.61,1.51-0.64,2.12-0.07l14.39,13.43c0.34,0.32,0.51,0.77,0.47,1.23
				c-0.04,0.46-0.29,0.88-0.68,1.13l-13.32,8.58C1026.21,1467.03,1025.92,1467.1,1025.65,1467.1z"/>
			<path class="st2" d="M1039.19,1913.05l288.23-25.44c89.74-14.96,184.92,73.42,152.29,148.21l-339.92,533.58H953.51
				c0,0,16.84-92.76,59.67-131.51c42.83-38.75,28.95-116.69,31.43-128.84c24.95-122.53,25.19-26.91,76.98-151.96
				c-103.37,28.87-301.85,52.97-402.09,51.54c-64.1-0.91-137.68-73.89-66.48-221.76l23.45-54.25L1039.19,1913.05z"/>
			<path class="st8" d="M689.93,2072.12c2.38,11.91,4.89,23.79,7.47,35.66c5.77,3.49,11.66,6.77,17.69,9.8
				c12.76,4.43,25.85,7.84,39.13,10.36c23.14,1.97,46.52,1.95,69.68,1.55c23.61-0.4,47.21-1.78,70.68-4.34
				c34.38-5.59,68.24-14.15,100.81-26.49c22.98-10.74,44.95-23.48,65.62-38.18c5.76-4.81,11.41-9.75,16.92-14.86
				c9.32-9.25,19.66-16.74,31.04-22.47c36.98-32.62,75.78-63.33,115.81-92.09c20.53-14.75,42-27.93,64.07-40.05l-249.65,22.04
				l-342.26,18.47c-2.36,10.8-6.17,21.21-11.45,31.21c-1.24,4.32-2.35,8.68-3.33,13.07c-1.19,21.13-0.34,42.35,1.74,63.44
				C685.72,2050.23,687.75,2061.19,689.93,2072.12z"/>
			<path class="st8" d="M1290.88,2305.35c-31.4,29.05-62.73,58.23-95.75,85.46c-44.7,36.84-91.66,70.6-139.27,103.52
				c-10.41,7.2-20.85,14.36-31.29,21.51c-5.19,20.38-14.71,38.23-28.55,53.56h143.76l192.07-301.49
				C1318.08,2280.26,1304.46,2292.79,1290.88,2305.35z"/>
			<path d="M1082.46,2682.58c0,0,97.3,0.34,125.37,37.13c6.17,8.09,0.34,19.75-9.83,19.75H879.41l73.65-170.06h186.73
				L1082.46,2682.58z"/>
			<path class="st1" d="M1116.66,2610.9H936.6c-1.93,0-3.5-1.57-3.5-3.5s1.57-3.5,3.5-3.5h180.06c1.93,0,3.5,1.57,3.5,3.5
				S1118.6,2610.9,1116.66,2610.9z"/>
			<path class="st9" d="M1169.22,1780.34l-254.04,105.59l69.07-202.11c13.62-58.74-81.28-131-142.62-54.41l-122.4,297.18
				c-40.96,95.72,62.08,189.25,153.4,139.26l306.53-167.79L1169.22,1780.34z"/>
			<g>
				<rect x="1235.03" y="1884.78" width="340.54" height="10.75"/>
				<polygon class="st12" points="1564.63,1895.53 1698.13,1554.98 1708.88,1554.98 1575.38,1895.53 				"/>
			</g>
			<path d="M528.3,2741.96h-40.42c-1.38,0-2.5-1.12-2.5-2.5s1.12-2.5,2.5-2.5h38.41l117.5-530.76c0.3-1.35,1.63-2.2,2.98-1.9
				c1.35,0.3,2.2,1.63,1.9,2.98L530.74,2740C530.49,2741.15,529.47,2741.96,528.3,2741.96z"/>
			<path d="M704.69,2741.96h-40.42c-1.38,0-2.5-1.12-2.5-2.5s1.12-2.5,2.5-2.5h38.41l117.5-530.76c0.3-1.35,1.63-2.2,2.98-1.9
				c1.35,0.3,2.2,1.63,1.9,2.98L707.13,2740C706.87,2741.15,705.86,2741.96,704.69,2741.96z"/>
			<path class="st8" d="M1121.59,2157.09l75.26-48.72c0,0-6.95,46.45-46.11,98.37s-80.84,53.18-80.84,87.29
				c0,34.11-26.08,101.05-26.08,101.05s-5.85-61.73,3.2-97.57c9.05-35.83,4.9-48.15,32.2-68.14
				C1106.54,2209.39,1121.59,2157.09,1121.59,2157.09z"/>
			<path d="M1121.59,2159.59c-0.82,0-1.62-0.4-2.1-1.14c-0.75-1.16-0.42-2.71,0.74-3.46l42.35-27.39c1.16-0.75,2.71-0.42,3.46,0.74
				c0.75,1.16,0.42,2.71-0.74,3.46l-42.35,27.39C1122.53,2159.46,1122.06,2159.59,1121.59,2159.59z"/>
			<path class="st1" d="M1044.69,2560.52c-0.46,0-0.92-0.12-1.33-0.38c-1.17-0.74-1.52-2.28-0.78-3.45l330.56-524.93
				c0.6-11.83-2.7-20.39-9.81-25.47c-23.03-16.45-78.44,6.14-79,6.37c-0.1,0.04-0.19,0.07-0.29,0.1l-434.95,119.34
				c-38.65,10.73-66.22,8.26-81.94-7.33c-9.45-9.38-14.43-23.68-14.4-41.36c0.02-13.17,2.75-23.47,2.87-23.91
				c0.36-1.33,1.73-2.12,3.06-1.76c1.33,0.36,2.12,1.73,1.77,3.06c-0.11,0.4-10.41,39.97,10.24,60.43
				c14.36,14.23,40.29,16.27,77.07,6.05l434.81-119.3c1.64-0.67,15.24-6.11,31.82-9.67c23.67-5.07,41.11-3.76,51.84,3.91
				c8.73,6.23,12.72,16.49,11.86,30.48c-0.03,0.42-0.16,0.82-0.38,1.18l-330.91,525.47
				C1046.33,2560.11,1045.52,2560.52,1044.69,2560.52z"/>
			<path class="st11" d="M1212.64,1865.79c-0.81,0-1.6-0.39-2.08-1.11c-0.77-1.15-0.46-2.7,0.69-3.47l15.16-10.11
				c1.15-0.77,2.7-0.46,3.47,0.69s0.46,2.7-0.69,3.47l-15.16,10.11C1213.6,1865.65,1213.12,1865.79,1212.64,1865.79z"/>
			<path class="st8" d="M1107.76,2136.13c0,0,32.11-63.16,11.65-50.53C1098.96,2098.23,1083.71,2147.5,1107.76,2136.13z"/>
			<path d="M1082.46,2685.08h-16.98c-1.38,0-2.5-1.12-2.5-2.5s1.12-2.5,2.5-2.5h16.98c1.38,0,2.5,1.12,2.5,2.5
				S1083.84,2685.08,1082.46,2685.08z"/>
			<path d="M996.03,2421.15h-396.7c-1.38,0-2.5-1.12-2.5-2.5s1.12-2.5,2.5-2.5h396.7c1.38,0,2.5,1.12,2.5,2.5
				S997.41,2421.15,996.03,2421.15z"/>
			<path d="M1900.64,2569.4l70.95,113.18c0,0,161.05-10.72,164.84,56.88h-427.56l-94.84-170.06H1900.64z"/>
			<path d="M719.23,1929.1c-0.32,0-0.65-0.06-0.96-0.19c-1.27-0.53-1.88-1.99-1.35-3.27l100.94-242.77
				c0.53-1.27,1.99-1.88,3.27-1.35c1.27,0.53,1.88,1.99,1.35,3.27l-100.94,242.77C721.14,1928.52,720.21,1929.1,719.23,1929.1z"/>
			<path class="st1" d="M1778.34,2572.9c-1.17,0-2.32-0.59-2.98-1.66l-93.47-150.75c-0.02-0.04-0.05-0.08-0.07-0.12
				c-0.66-1.16-66.17-116.43-109.27-190.25c-43.04-73.72-109.23-169.1-109.89-170.06c-1.1-1.59-0.71-3.77,0.88-4.87
				c1.59-1.1,3.77-0.71,4.87,0.88c0.67,0.96,67.01,96.56,110.19,170.52c42.74,73.2,107.5,187.13,109.28,190.26l93.44,150.69
				c1.02,1.64,0.51,3.8-1.13,4.82C1779.61,2572.73,1778.97,2572.9,1778.34,2572.9z"/>
			<path class="st1" d="M1636.75,2613.63c-1.92,0-3.48-1.54-3.5-3.47c-0.02-1.93,1.53-3.51,3.47-3.53l287.71-2.73
				c0.01,0,0.02,0,0.03,0c1.92,0,3.48,1.54,3.5,3.47c0.02,1.93-1.53,3.51-3.47,3.53l-287.71,2.73
				C1636.78,2613.63,1636.76,2613.63,1636.75,2613.63z"/>
			<path class="st8" d="M1548.44,2386.43c0,0-6.95,47.37,14.84,57.79c21.79,10.42,52.11,61.58,62.53,84.32s37.89,40.86,37.89,40.86
				h-49.67c0,0-15.09-37.47-25.24-52.65S1525.07,2454.64,1548.44,2386.43z"/>
			<path class="st10" d="M1119.55,1550.17l-51.23-64.43l-11.9-60.23c0,0-10.8,0.24-14.44,19.84c0,0,4.04,33.11-13.82,48.31
				c-17.85,15.21-74.78,33.94-74.78,33.94s-7.09,14.78,14.43,11.08l37.88-8.87c0,0-1.3,8.18,7.76,9.73c0,0,2.55,8.67,12.5,8.38
				c0,0,1.8,5.9,8.36,5.86l30.43,38.16L1119.55,1550.17z"/>
			<path class="st11" d="M959.75,1541.06c-2.73,0-4.85-0.81-6.32-2.44c-3.59-3.96-1.57-11.13-1.48-11.43
				c0.13-0.46,0.48-0.83,0.93-0.99l25.51-9.23c0.78-0.28,1.64,0.12,1.92,0.9c0.28,0.78-0.12,1.64-0.9,1.92l-24.76,8.95
				c-0.43,2.01-0.8,5.89,1,7.87c1.26,1.39,3.54,1.78,6.78,1.17l13.44-2.52l14.17-3.32c0.81-0.18,1.61,0.31,1.8,1.12
				c0.19,0.81-0.31,1.61-1.12,1.8l-14.24,3.34l-13.5,2.53C961.82,1540.95,960.75,1541.06,959.75,1541.06z"/>
			<path class="st11" d="M1005.7,1531.32c-0.52,0-1.02-0.27-1.3-0.75c-0.41-0.72-0.17-1.63,0.55-2.05l19.89-11.43
				c0.72-0.41,1.64-0.17,2.05,0.55c0.41,0.72,0.17,1.63-0.55,2.05l-19.89,11.43C1006.21,1531.25,1005.95,1531.32,1005.7,1531.32z"/>
			<path class="st11" d="M1015.64,1541.06c-0.58,0-1.14-0.34-1.38-0.91c-0.33-0.76,0.03-1.64,0.79-1.97l18.24-7.81
				c0.76-0.33,1.64,0.03,1.97,0.79c0.33,0.76-0.03,1.64-0.79,1.97l-18.24,7.81C1016.04,1541.02,1015.84,1541.06,1015.64,1541.06z"/>
			<path class="st11" d="M1025.96,1549.43c-0.58,0-1.13-0.34-1.38-0.9c-0.33-0.76,0.01-1.64,0.77-1.98l11-4.81
				c0.76-0.33,1.64,0.02,1.98,0.77s-0.01,1.64-0.77,1.98l-11,4.81C1026.36,1549.39,1026.16,1549.43,1025.96,1549.43z"/>
			<path d="M1169.22,1756.09c-0.82,0-1.62-0.4-2.1-1.14l-104.47-161.64c-0.75-1.16-0.42-2.71,0.74-3.46s2.71-0.42,3.46,0.74
				l104.47,161.64c0.75,1.16,0.42,2.71-0.74,3.46C1170.16,1755.96,1169.69,1756.09,1169.22,1756.09z"/>
			<path class="st1" d="M1169.22,1782.84c-0.98,0-1.91-0.58-2.31-1.54c-0.53-1.28,0.08-2.74,1.35-3.27l119.62-49.54
				c1.27-0.53,2.74,0.08,3.27,1.35c0.53,1.28-0.08,2.74-1.35,3.27l-119.62,49.54C1169.86,1782.78,1169.54,1782.84,1169.22,1782.84z"
				/>
			<path class="st11" d="M1092.38,1527.8c-0.46,0-0.91-0.21-1.2-0.6l-7.58-10.19c-0.49-0.67-0.36-1.6,0.31-2.1s1.6-0.36,2.1,0.31
				l7.58,10.19c0.49,0.67,0.36,1.6-0.31,2.1C1093.01,1527.71,1092.69,1527.8,1092.38,1527.8z"/>
			<path class="st1" d="M947.77,1609.42c-34.92,0-44.95-31.31-45.05-31.64c-0.41-1.32,0.34-2.72,1.66-3.12
				c1.32-0.41,2.72,0.33,3.12,1.65h0c0.39,1.25,9.93,30.61,44.58,27.94c34.93-2.67,43.74-30.12,44.1-31.29
				c0.4-1.32,1.8-2.06,3.12-1.66c1.32,0.4,2.06,1.79,1.67,3.11c-0.1,0.32-10.07,31.88-48.5,34.82
				C950.85,1609.36,949.28,1609.42,947.77,1609.42z"/>
			<path class="st7" d="M943.13,1809.96c0,0,20.7,48.41,64.14,37.71l-91.62,37.02L943.13,1809.96z"/>
			<path d="M915.18,1888.44c-0.29,0-0.58-0.05-0.86-0.15c-1.3-0.48-1.96-1.91-1.48-3.21l70.05-190.45c0.48-1.29,1.91-1.96,3.21-1.48
				c1.3,0.48,1.96,1.91,1.48,3.21l-70.05,190.45C917.15,1887.81,916.2,1888.44,915.18,1888.44z"/>
			<path class="st1" d="M898.11,1912.52c-0.5,0-1-0.15-1.44-0.46c-1.13-0.8-1.39-2.36-0.59-3.49l17.06-24.09
				c0.27-0.38,0.65-0.68,1.08-0.86l113.4-47.13c1.27-0.53,2.74,0.07,3.27,1.35c0.53,1.28-0.07,2.74-1.35,3.27l-112.73,46.86
				l-16.65,23.5C899.67,1912.16,898.9,1912.52,898.11,1912.52z"/>
			<path class="st7" d="M829.01,2058.01c0,0,64.94-48.63,69.1-37.89S815.75,2083.27,829.01,2058.01z"/>
		</g>
		
			<rect x="355.9" y="593.13" transform="matrix(0.7828 0.6223 -0.6223 0.7828 512.877 -80.9347)" class="st4" width="32.94" height="202.1"/>
		
			<rect x="518.64" y="1909.3" transform="matrix(0.7828 0.6223 -0.6223 0.7828 1367.2772 103.6892)" class="st4" width="32.94" height="202.1"/>
		
			<rect x="2506.3" y="2172.62" transform="matrix(-1.836970e-16 1 -1 -1.836970e-16 4874.1968 -186.912)" class="st3" width="48.5" height="342.04"/>
		<g>
			<path class="st2" d="M915.9,740.84h25.49h32.37c32.69,0,62.6,18.38,77.36,47.55l85.08,168.04l93.04-138.49h118.7l-124.58,311.66
				c-25.39,63.22-105.68,79.33-143.85,22.89L964.19,981.95L915.9,740.84z"/>
			<path d="M1216.58,1133.06c-13.77-5.42-27.56-11.01-40.92-17.37c-27.03-12.87-50.47-31.05-73.65-49.89
				c-14.81-12.04-28.14-25.83-40.15-40.65c-18.93-23.37-35.8-47.79-53.46-72.03c-12.4-17.03-24.96-33.95-36.98-51.26
				c-12.19-17.55-23.88-35.48-34.14-54.23l26.9,134.32l115.32,170.53c37.1,54.86,114,41.17,141.59-17.71
				C1219.58,1134.22,1218.08,1133.65,1216.58,1133.06z"/>
			<path class="st10" d="M1402.38,1282.94c9.91,7.29,13.71-10.44,12.42-12.23c11.28,1.71,7.51-55.83,7.51-55.83
				c31.29,22.69,50.65,40.07,61.34,50.59c3.93,3.87,10.36-0.3,8.46-5.48c-10.82-29.53-50.95-75.78-78.52-92.62
				c-2.26-1.38-4.43-2.9-6.81-4.05l-160.82-50.85l-8.41,126.63c0,0,112.79,13.82,129.34,23.22c16.55,9.4,20.92,33.81,20.92,33.81
				C1393.71,1305.12,1403.53,1285.43,1402.38,1282.94z"/>
			<path class="st8" d="M892.4,1189.12c-0.19-3.3-0.29-6.59-0.33-9.89l2.82,0.81c-0.71,3.72-1.39,7.45-2.06,11.19
				C892.69,1190.52,892.53,1189.83,892.4,1189.12z"/>
			<path class="st2" d="M938.94,740.84l-148.05,0.24c-21.97,0.04-24.51,7.74-41.33,21.87l-92.43,392.54l350.34,56.88L980.8,805.18
				C980.8,805.18,981.98,740.88,938.94,740.84z"/>
			<path d="M961.32,1109.67c-8.47-3.71-16.92-7.72-24.78-12.62c-14.18-8.86-27.39-19.6-40.14-30.32
				c-5.27-4.44-10.23-9.25-14.86-14.35c-11.31-12.44-21.36-26.12-31.26-39.66c-4.19-5.73-8.07-11.68-11.7-17.78
				c-7.47-12.56-13.82-25.73-19.56-39.16c-9.9-23.17-19.59-46.2-27.73-70.03c-9.23-27.04-17.09-54.53-26.51-81.5
				c-4.72-17.57-5.56-35.14-2.54-52.71c-3.52,3.14-7.4,6.95-12.71,11.4l-92.43,392.54l350.33,56.88l-5.61-85.72
				C988.11,1121.54,974.66,1115.51,961.32,1109.67z"/>
			<path class="st2" d="M844.47,740.99l42.2,253.3l370.81,121.95l-19.94,122.84l-422.76-80.79
				c-62.37-19.25-108.09-72.68-117.45-137.27l-9.26-175.73c-3.03-57.47,43.1-105.56,100.65-104.92L844.47,740.99z"/>
			<path class="st10" d="M1400.06,1161.18c0,0,61.52,6.04,68.28,19.97c6.76,13.93-26.18,9.99-42.39,10.42L1400.06,1161.18z"/>
			<path class="st11" d="M1422.32,1217.38c-0.84,0-1.66-0.42-2.13-1.19c-0.1-0.16-9.87-16.02-17.64-20.22
				c-1.21-0.66-1.67-2.17-1.01-3.39s2.17-1.67,3.39-1.01c8.95,4.84,19.1,21.31,19.53,22.01c0.72,1.18,0.35,2.72-0.83,3.44
				C1423.21,1217.26,1422.76,1217.38,1422.32,1217.38z"/>
			<path class="st11" d="M1414.81,1273.21c-0.08,0-0.16,0-0.25-0.01c-1.37-0.14-2.38-1.36-2.24-2.73
				c0.04-0.4,3.69-40.05-14.94-60.19c-0.94-1.01-0.88-2.6,0.14-3.53c1.01-0.94,2.6-0.88,3.53,0.14
				c8.51,9.21,13.83,22.81,15.81,40.45c1.46,12.99,0.48,23.2,0.44,23.63C1417.16,1272.24,1416.08,1273.21,1414.81,1273.21z"/>
			<path class="st11" d="M1402.21,1287.55c-0.05,0-0.1,0-0.14,0c-1.38-0.08-2.43-1.26-2.35-2.64c0.02-0.43,2.19-42.85-16.23-59.26
				c-1.03-0.92-1.12-2.5-0.2-3.53c0.92-1.03,2.5-1.12,3.53-0.2c8.57,7.63,14.18,20.65,16.68,38.69c1.83,13.23,1.24,24.13,1.22,24.59
				C1404.63,1286.52,1403.53,1287.55,1402.21,1287.55z"/>
			<path class="st11" d="M1443.26,1194.26c-1.12,0-2.14-0.76-2.42-1.89c-1.23-3.25-20.18-19.41-32.67-22.35
				c-1.34-0.32-2.18-1.66-1.86-3.01c0.32-1.34,1.66-2.18,3.01-1.86c8.59,2.02,18.78,9.19,22.76,12.18
				c2.1,1.58,12.64,9.66,13.62,13.86c0.31,1.34-0.52,2.69-1.87,3C1443.64,1194.24,1443.45,1194.26,1443.26,1194.26z"/>
			<path class="st1" d="M1212.81,1236.86c-0.14,0-0.28-0.01-0.42-0.03c-1.36-0.23-2.28-1.52-2.05-2.88l21.09-125.87
				c0.23-1.36,1.52-2.28,2.88-2.05c1.36,0.23,2.28,1.52,2.05,2.88l-21.09,125.87C1215.07,1235.99,1214.01,1236.86,1212.81,1236.86z"
				/>
			<path class="st11" d="M1290.04,1231.52c-0.08,0-0.15,0-0.23-0.01l-21.87-1.99c-1.38-0.12-2.39-1.34-2.26-2.72
				c0.12-1.38,1.34-2.38,2.72-2.26l21.87,1.99c1.38,0.12,2.39,1.34,2.26,2.72C1292.41,1230.54,1291.32,1231.52,1290.04,1231.52z"/>
			<path class="st10" d="M858.94,744.01c0,0,6.66,23.31,38.65,19.47c31.82-3.82,27.02-27.59,27.02-27.59l3.38-114.25l-41.28,4.96
				L858.94,744.01z"/>
			<path class="st11" d="M896.29,675.1c6.03,3.22,12.28,5.96,18.74,8.2c3.66,0.84,7.36,1.51,11.07,2.07l1.89-63.73l-41.28,4.96
				l-8.26,34.94C884.13,666.39,890.05,670.96,896.29,675.1z"/>
			<circle class="st10" cx="914.22" cy="610.48" r="57.28"/>
			<path d="M958.81,574.54c-8.18-10.16-19.85-17.61-33.66-20.3c-31.05-6.04-61.13,14.24-67.17,45.29
				c-2.42,12.47-4.75,35.18,18.76,54.27c1.82-22.37,11.89-39.46,11.89-39.46L909,597.82C909,597.82,932.06,574.74,958.81,574.54z"/>
			<circle class="st10" cx="893.48" cy="603.16" r="16.41"/>
			<ellipse transform="matrix(0.9456 -0.3255 0.3255 0.9456 -147.7555 323.5251)" cx="893.09" cy="603.38" rx="2.5" ry="7.48"/>
			<ellipse transform="matrix(0.1909 -0.9816 0.9816 0.1909 174.1444 1437.7899)" cx="959.26" cy="613.26" rx="7.05" ry="3.16"/>
			<path d="M976.48,641.94c-0.11,0-0.23-0.01-0.34-0.04l-11.74-2.71c-0.81-0.19-1.31-0.99-1.12-1.8s0.99-1.31,1.8-1.12l8.76,2.03
				l-6.96-15.1c-0.35-0.75-0.02-1.64,0.73-1.99c0.75-0.35,1.64-0.02,1.99,0.73l8.24,17.88c0.24,0.52,0.16,1.13-0.2,1.57
				C977.35,641.75,976.92,641.94,976.48,641.94z"/>
			<polygon class="st12" points="657.13,1155.49 611.02,1330.55 1007.46,1330.55 1007.46,1212.36 			"/>
			<path d="M886.67,996.79c-1.2,0-2.26-0.87-2.46-2.09l-27.73-166.47c-0.23-1.36,0.69-2.65,2.06-2.88c1.36-0.23,2.65,0.69,2.88,2.06
				l27.73,166.47c0.23,1.36-0.69,2.65-2.06,2.88C886.95,996.78,886.81,996.79,886.67,996.79z"/>
			<path d="M995.53,1032.59c-0.26,0-0.53-0.04-0.78-0.12l-106.98-35.18l-16.94,27.43c-0.73,1.17-2.27,1.54-3.44,0.81
				c-1.17-0.73-1.54-2.27-0.81-3.44l17.98-29.11c0.61-0.98,1.81-1.42,2.91-1.06l105.34,34.64l-15.22-233.68
				c-0.09-1.38,0.95-2.57,2.33-2.66c1.38-0.1,2.57,0.95,2.66,2.33l15.47,237.38c0.05,0.83-0.31,1.63-0.96,2.14
				C996.61,1032.41,996.07,1032.59,995.53,1032.59z"/>
			<path d="M1245.96,1114.96c-0.26,0-0.52-0.04-0.78-0.13l-250.43-82.36c-1.31-0.43-2.02-1.84-1.59-3.16
				c0.43-1.31,1.84-2.02,3.16-1.59l250.43,82.36c1.31,0.43,2.02,1.84,1.59,3.16C1247.99,1114.29,1247.01,1114.96,1245.96,1114.96z"
				/>
			<path d="M847.28,554.91c-10.51-27.35-32.79-69.37-71.63-74.16c-29.61,1.58-55.23,65.46,55.32,92.76
				C841.91,576.21,851.32,565.43,847.28,554.91z"/>
			<path class="st5" d="M842.95,600.67c-0.15,0-0.3-0.01-0.46-0.03c-1.92-0.25-3.27-2.01-3.02-3.93
				c4.36-33.26,28.36-42.83,29.38-43.22c1.8-0.69,3.83,0.21,4.52,2.01c0.69,1.8-0.21,3.82-2,4.52c-0.9,0.35-21.16,8.65-24.95,37.6
				C846.19,599.39,844.68,600.67,842.95,600.67z"/>
			<path d="M929.33,576.97c0,0,8,7.15,7.37,21.26l49.89-1.05c0,0-12.45-45.47-61.44-42.93L929.33,576.97z"/>
			<path d="M886.68,1333.05c-0.15,0-0.3-0.01-0.45-0.04c-1.36-0.25-2.26-1.55-2.02-2.9l8.21-45.5c0.25-1.36,1.55-2.26,2.9-2.02
				c1.36,0.25,2.26,1.55,2.02,2.9l-8.21,45.5C888.92,1332.2,887.86,1333.05,886.68,1333.05z"/>
			<path d="M953.43,1287.55H851.12c-1.38,0-2.5-1.12-2.5-2.5s1.12-2.5,2.5-2.5h102.32c1.38,0,2.5,1.12,2.5,2.5
				S954.81,1287.55,953.43,1287.55z"/>
			<path d="M1150.72,1004.84c-1.06,0-2.05-0.68-2.38-1.75l-14.51-45.92c-0.42-1.32,0.31-2.72,1.63-3.14
				c1.31-0.42,2.72,0.31,3.14,1.63l14.51,45.92c0.42,1.32-0.31,2.72-1.63,3.14C1151.22,1004.8,1150.97,1004.84,1150.72,1004.84z"/>
			<g>
				<path class="st10" d="M1312.18,702.65l213.82-21.82c0,0,7.4,16.56-8.73,26.46c0,0,5.18,13.44-9.32,20.63
					c0,0,4.55,13.5-14.28,21.77l-110.56,11.84l-35.15,56.4h-118.7L1312.18,702.65z"/>
				<g>
					
						<rect x="1202.32" y="688.81" transform="matrix(0.9948 -0.1015 0.1015 0.9948 -63.383 142.934)" width="340.54" height="10.75"/>
					<polygon points="1531.64,683.36 1629.88,331.02 1640.58,329.93 1542.34,682.27 					"/>
				</g>
				<path class="st11" d="M1401.97,721.56c-1.27,0-2.35-0.96-2.48-2.25c-0.14-1.37,0.86-2.6,2.23-2.74l115.3-11.77
					c1.37-0.14,2.6,0.86,2.74,2.23c0.14,1.37-0.86,2.6-2.23,2.74l-115.3,11.77C1402.14,721.55,1402.05,721.56,1401.97,721.56z"/>
				<path class="st11" d="M1439.67,737.39c-1.27,0-2.35-0.96-2.48-2.25c-0.14-1.37,0.86-2.6,2.23-2.74l68.28-6.97
					c1.36-0.14,2.6,0.86,2.74,2.23c0.14,1.37-0.86,2.6-2.23,2.74l-68.28,6.97C1439.84,737.39,1439.75,737.39,1439.67,737.39z"/>
				<path class="st11" d="M1339.29,799.34c-0.54,0-1.09-0.18-1.55-0.54c-1.08-0.86-1.27-2.43-0.41-3.51l8.31-10.53
					c0.86-1.08,2.43-1.27,3.51-0.41c1.08,0.86,1.27,2.43,0.41,3.51l-8.31,10.53C1340.76,799.01,1340.03,799.34,1339.29,799.34z"/>
			</g>
			<path class="st1" d="M1005.7,1236.86c-0.13,0-0.27-0.01-0.41-0.03l-352.67-57.88c-1.36-0.22-2.29-1.51-2.06-2.87
				c0.22-1.36,1.5-2.29,2.87-2.06l352.67,57.88c1.36,0.22,2.29,1.51,2.06,2.87C1007.96,1235.99,1006.9,1236.86,1005.7,1236.86z"/>
			<path class="st1" d="M667.96,1333.05c-0.27,0-0.55-0.04-0.82-0.14c-1.3-0.45-2-1.88-1.54-3.18l49.71-143.46
				c0.45-1.3,1.88-1.99,3.18-1.54c1.3,0.45,2,1.88,1.54,3.18l-49.71,143.46C669.96,1332.4,669,1333.05,667.96,1333.05z"/>
			<path class="st1" d="M990.38,1333.05c-1.31,0-2.41-1.02-2.49-2.34l-6.63-102.52c-0.09-1.38,0.96-2.57,2.33-2.66
				c1.38-0.1,2.57,0.96,2.66,2.33l6.63,102.52c0.09,1.38-0.96,2.57-2.33,2.66C990.49,1333.04,990.43,1333.05,990.38,1333.05z"/>
			<path class="st8" d="M829.36,1136.85c0,0-55.92-77.16-73.92-65.58C737.43,1082.85,818.96,1172.85,829.36,1136.85z"/>
			<path class="st8" d="M1014.41,918.96c0,0,26.18,47.37,27.13,26.53S1018.54,900.01,1014.41,918.96z"/>
		</g>
		<rect x="372.37" y="2736.96" width="1979.38" height="5"/>
		<path class="st4" d="M372.37,1333.05c-0.7,0-1.39-0.29-1.89-0.86c-0.91-1.04-0.79-2.62,0.25-3.53
			c1.63-1.41,163.25-142.01,203.07-191.79c6.61-8.26,13.55-19.4,9.11-25.58c-9.77-13.59-68.14-3.77-145.24,24.44
			c-8.62,3.15-14.75,2.71-18.23-1.33c-14.02-16.24,22.88-86.32,84.24-199.31c30.55-56.25,62.14-114.42,83.68-162.58
			c23.76-53.12,31.34-86.09,22.52-97.98c-3.73-5.04-10.6-6.45-20.99-4.31c-39.83,8.19-96.77,50.05-160.31,117.87
			c-55.69,59.43-113.3,135.73-154.11,204.08c-40.04,67.07-59.19,118.28-52.53,140.49c3.46,11.52,9.45,18.14,18.34,20.24
			c41.73,9.88,129.4-82.41,130.28-83.35c0.95-1,2.53-1.05,3.53-0.1c1,0.95,1.05,2.53,0.1,3.53c-3.68,3.9-90.55,95.31-135.07,84.78
			c-10.62-2.51-18.02-10.48-21.97-23.67c-9.67-32.25,29.07-104.37,53.02-144.49c40.98-68.64,98.84-145.26,154.76-204.94
			c45.45-48.5,110.61-108.58,162.95-119.35c12.31-2.53,21.07-0.44,26.01,6.23c22.28,30.04-42.85,149.96-105.82,265.92
			c-25.76,47.44-50.09,92.24-66.5,127.54c-17.52,37.69-23.69,59.93-18.35,66.12c2.47,2.86,8.29,1.52,12.73-0.1
			c31.08-11.37,133.81-46.6,151.02-22.66c5.04,7,1.92,17.64-9.26,31.62c-40.1,50.12-202.06,191.02-203.69,192.44
			C373.54,1332.84,372.95,1333.05,372.37,1333.05z"/>
		<circle class="st6" cx="575.92" cy="792.71" r="25.62"/>
		<path class="st2" d="M1213.2,260.54H471.33c-54.65,0-98.96,44.31-98.96,98.96v31.26h939.79V359.5
			C1312.16,304.85,1267.85,260.54,1213.2,260.54z"/>
		<path class="st6" d="M2580.37,766.96h-939.79c-1.38,0-2.5-1.12-2.5-2.5v-31.26c0-55.94,45.51-101.46,101.46-101.46h741.87
			c55.94,0,101.46,45.51,101.46,101.46v31.26C2582.87,765.84,2581.75,766.96,2580.37,766.96z M1643.08,761.96h934.79v-28.76
			c0-53.19-43.27-96.46-96.46-96.46h-741.87c-53.19,0-96.46,43.27-96.46,96.46V761.96z"/>
		<g>
			<polygon class="st9" points="2014.6,1543.4 1999.33,1704.25 2418.06,1704.25 2397.04,1543.4 			"/>
			<path class="st7" d="M2039.53,1556.64c33.27,12.91,67.63,22.84,102.28,31.36c70.91,17.44,143.27,29.25,213.08,51.02
				c19.46,6.07,38.45,13.38,57.38,20.85l-15.22-116.47H2014.6l-0.09,0.94C2022.73,1548.67,2031.08,1552.77,2039.53,1556.64z"/>
			<path class="st10" d="M2258.12,1412.73l117.84,145.41c13.33,16.45,33.38,26.01,54.55,26.01l0,0c46.87,0,80.59-45.05,67.37-90.02
				l-87.26-296.86c-22.02-58.26-77.87-96.74-140.15-96.57l-52.19,0.14L2258.12,1412.73z"/>
			<path class="st6" d="M2444.47,1312.42l-33.85-115.15c-22.02-58.26-77.87-96.75-140.15-96.57l-52.19,0.14l35.2,249.69
				C2263.73,1348.73,2392.3,1327.85,2444.47,1312.42z"/>
			<path class="st10" d="M1696.08,1136.05l-87.93,74.13l199.63,264.98c31.62,41.97,92.39,47.84,131.46,12.71l112.55-101.21
				L2026.5,1114l-169.3,207.44L1696.08,1136.05z"/>
			<path class="st3" d="M1546.23,967.44c0,0,101.49,9.21,163.78,0c62.3-9.21,162.51-6.18,162.51-6.18s2.71,184.77,0,209.75
				c-2.71,24.99-0.98,222.63,1.2,254.43c0,0-170.49,0-211.12,0c-40.63,0-116.38,0-116.38,0s3.47-164.9,0-186.95
				C1542.76,1216.44,1546.23,967.44,1546.23,967.44z"/>
			<path class="st6" d="M2059.56,1100.41l158.73,0.43c23.55,0.06,56.19,5.92,67.49,35.09l111.26,407.46H2014.6v-374.05
				C2014.6,1169.35,2003.81,1100.32,2059.56,1100.41z"/>
			<path class="st10" d="M1506.86,1053.24c0,0,59.82-32.96,68.42-34.63s12.68,7.38-22.75,28.99
				C1517.1,1069.2,1506.86,1053.24,1506.86,1053.24z"/>
			<path class="st10" d="M2157.39,1123.62c0,0-6.19,25.24-40.62,22.42c-34.25-2.8-30.07-28.47-30.07-28.47l-8.24-122.27l44.43,3.65
				L2157.39,1123.62z"/>
			<path class="st11" d="M2114.58,1051.31c-6.33,3.69-12.91,6.89-19.74,9.54c-3.89,1.04-7.82,1.91-11.78,2.66l-4.6-68.2l44.43,3.65
				l10.27,37.1C2127.26,1041.48,2121.1,1046.62,2114.58,1051.31z"/>
			<circle class="st10" cx="2097.36" cy="987.76" r="61.42"/>
			<path class="st5" d="M2061.75,937.74c11.39-8.12,25.6-12.42,40.63-11.18c33.81,2.77,58.96,32.43,56.19,66.23
				c-1.11,13.57-6.57,25.74-14.88,35.28c-17.45-7.64-21.06-28.88-21.06-28.88l-16.22-22.97
				C2106.41,976.22,2089.3,945.7,2061.75,937.74z"/>
			<circle class="st10" cx="2120.88" cy="986.23" r="17.6"/>
			<ellipse transform="matrix(0.5692 -0.8222 0.8222 0.5692 102.7261 2169.1855)" cx="2121.22" cy="986.57" rx="8.02" ry="2.68"/>
			<path class="st10" d="M1506.1,1053.69l0.77-0.45c0,0,76.68-20.61,116.49,16.86c0,0,6.22,12.97-4.3,15.21
				c0,0,18.53,6.57,10.91,16.13c2.35-0.24,16.79,12.78,4.72,18.08c2.93,0.27,15.96,19.93,4.44,20.59c0,0-68.05-7.96-85.64,2.39
				c-0.18,0.1-0.35,0.21-0.53,0.31c-18.58,11.05-42.62,2.86-50.39-17.31l-11.3-29.32
				C1485.16,1080.31,1491.43,1062.33,1506.1,1053.69z"/>
			<path class="st11" d="M1619.06,1087.81c-0.46,0-0.92-0.13-1.34-0.39l0,0c-0.26-0.16-26.4-16.48-65.98-15.54
				c-1.37,0.05-2.52-1.06-2.56-2.44c-0.03-1.38,1.06-2.53,2.44-2.56c41.13-0.96,67.67,15.62,68.78,16.32
				c1.16,0.74,1.51,2.29,0.76,3.45C1620.69,1087.4,1619.88,1087.81,1619.06,1087.81z"/>
			<path class="st11" d="M1629.97,1103.95c-0.24,0-0.48-0.03-0.72-0.1c-0.33-0.1-33.68-9.94-68.34-9.39c-0.01,0-0.03,0-0.04,0
				c-1.36,0-2.48-1.09-2.5-2.46c-0.02-1.38,1.08-2.52,2.46-2.54c35.43-0.57,69.51,9.5,69.85,9.6c1.32,0.4,2.07,1.79,1.68,3.11
				C1632.04,1103.25,1631.04,1103.95,1629.97,1103.95z"/>
			<path class="st11" d="M1634.69,1122.03c-0.16,0-0.33-0.02-0.5-0.05c-0.35-0.07-35.33-7.07-65.95-4.72
				c-1.38,0.1-2.58-0.92-2.68-2.3c-0.11-1.38,0.92-2.58,2.3-2.68c31.32-2.41,66.97,4.73,67.33,4.8c1.35,0.27,2.23,1.59,1.95,2.95
				C1636.9,1121.21,1635.86,1122.03,1634.69,1122.03z"/>
			<path class="st11" d="M1536.84,1050.62c-1.34,0-2.45-1.06-2.5-2.42c-0.05-1.38,1.04-2.54,2.42-2.58l15.69-0.53
				c1.37-0.03,2.54,1.03,2.58,2.41c0.05,1.38-1.04,2.54-2.42,2.58l-15.69,0.53C1536.9,1050.62,1536.87,1050.62,1536.84,1050.62z"/>
			<ellipse transform="matrix(0.0818 -0.9966 0.9966 0.0818 923.5824 2965.262)" cx="2071.08" cy="981.39" rx="7.56" ry="3.39"/>
			<ellipse transform="matrix(0.0818 -0.9966 0.9966 0.0818 902.3428 2938.0403)" cx="2045.68" cy="979.31" rx="7.56" ry="3.39"/>
			<path d="M2060.92,1013.08c-0.22,0-0.45-0.05-0.66-0.15l-15.24-7.51c-0.42-0.2-0.71-0.59-0.81-1.04s0.03-0.92,0.33-1.28
				l13.69-16.06c0.54-0.63,1.48-0.71,2.11-0.17c0.63,0.54,0.71,1.48,0.17,2.11l-12.44,14.59l13.51,6.65
				c0.74,0.37,1.05,1.27,0.68,2.01C2062.01,1012.78,2061.47,1013.08,2060.92,1013.08z"/>
			<path class="st5" d="M2144.2,960.78c2.02,0.17,41.94,27.07,70.72,24.07c28.78-3,104.54-40.27,152.09-15.3
				c47.55,24.96,93.74,25.11,136.74,22.65s99.37,30.95,67.02,77.43c-32.35,46.48-183.15-60.63-208.33-69.2
				c-81.52-27.75-104.85,19.1-138.49,6.82C2190.31,994.98,2144.2,960.78,2144.2,960.78z"/>
			<polygon class="st6" points="2026.5,1114 1897.82,1271.67 2013.76,1420.85 			"/>
			<path class="st9" d="M1546.05,981.04V907c0,0,77.52,0,97.75,0c20.23,0,136.02,0,136.02,0h93.91v88.31L1546.05,981.04z"/>
			<path class="st10" d="M2335.72,1327.85l-83.04-73.15c0,0-124.31-49.17-130.99-41.84c-7.77,8.52,80.76,57.3,80.76,57.3
				s-17.85,0.96-17.82,21.33c0,0-9.25,9.4-6.01,16.72c0,0-8.34,5.9-1.29,18.05c7.05,12.15,34.14,20.91,46.59,36.13
				s34.18,50.32,34.18,50.32L2335.72,1327.85z"/>
			<polygon class="st10" points="2258.12,1412.73 2364.02,1543.4 2397.04,1543.4 2389.37,1377.39 2335.72,1327.85 			"/>
			<path d="M2389.37,1379.89c-0.61,0-1.21-0.22-1.7-0.66l-46.18-42.65c-1.01-0.94-1.08-2.52-0.14-3.53
				c0.94-1.01,2.52-1.08,3.53-0.14l46.18,42.65c1.01,0.94,1.08,2.52,0.14,3.53C2390.71,1379.62,2390.04,1379.89,2389.37,1379.89z"/>
			<path class="st1" d="M1703.75,1079.83h-45.47c-1.38,0-2.5-1.12-2.5-2.5v-47.24c0-1.34,1.05-2.44,2.39-2.5l45.47-2.02
				c0.68-0.03,1.35,0.22,1.84,0.69c0.49,0.47,0.77,1.12,0.77,1.81v49.26C1706.25,1078.71,1705.13,1079.83,1703.75,1079.83z
				 M1660.77,1074.83h40.47v-44.14l-40.47,1.8V1074.83z"/>
			<path class="st1" d="M1703.75,1182.17h-45.47c-1.38,0-2.5-1.12-2.5-2.5v-47.24c0-1.34,1.05-2.44,2.39-2.5l45.47-2.02
				c0.68-0.03,1.35,0.22,1.84,0.69c0.49,0.47,0.77,1.12,0.77,1.81v49.26C1706.25,1181.05,1705.13,1182.17,1703.75,1182.17z
				 M1660.77,1177.17h40.47v-44.14l-40.47,1.8V1177.17z"/>
			<path class="st1" d="M1730.33,1242.52c-23.8,0-47.66-0.12-71.41-0.38c-1.38-0.01-2.49-1.15-2.47-2.53
				c0.01-1.37,1.13-2.47,2.5-2.47c0.01,0,0.02,0,0.03,0c47.48,0.5,95.37,0.5,142.33,0c0.01,0,0.02,0,0.03,0
				c1.37,0,2.48,1.1,2.5,2.47c0.01,1.38-1.09,2.51-2.47,2.53C1777.85,1242.39,1754.12,1242.52,1730.33,1242.52z"/>
			<path class="st1" d="M1784.24,1055.2c-20.15,0-40.35-0.12-60.47-0.38c-1.38-0.02-2.49-1.15-2.47-2.53
				c0.02-1.38,1.14-2.5,2.53-2.47c40.19,0.5,80.73,0.5,120.49,0c1.37-0.02,2.51,1.09,2.53,2.47c0.02,1.38-1.09,2.51-2.47,2.53
				C1824.48,1055.07,1804.39,1055.2,1784.24,1055.2z"/>
			<path class="st1" d="M1789.99,1157.73c-20.15,0-40.35-0.12-60.47-0.38c-1.38-0.02-2.49-1.15-2.47-2.53
				c0.02-1.38,1.14-2.44,2.53-2.47c40.19,0.5,80.73,0.5,120.49,0c1.36,0.03,2.51,1.09,2.53,2.47c0.02,1.38-1.09,2.51-2.47,2.53
				C1830.24,1157.6,1810.14,1157.73,1789.99,1157.73z"/>
			<path class="st1" d="M1666.81,1295.22c-23.8,0-47.66-0.12-71.41-0.38c-1.38-0.01-2.49-1.15-2.47-2.53
				c0.01-1.37,1.13-2.47,2.5-2.47c0.01,0,0.02,0,0.03,0c47.48,0.5,95.37,0.5,142.33,0c0.01,0,0.02,0,0.03,0
				c1.37,0,2.48,1.1,2.5,2.47c0.01,1.38-1.09,2.51-2.47,2.53C1714.33,1295.09,1690.6,1295.22,1666.81,1295.22z"/>
			<path class="st1" d="M1621.48,1242.14h-26.06c-1.38,0-2.5-1.12-2.5-2.5s1.12-2.5,2.5-2.5h26.06c1.38,0,2.5,1.12,2.5,2.5
				S1622.86,1242.14,1621.48,1242.14z"/>
			<path class="st1" d="M1786.95,1295.22h-26.06c-1.38,0-2.5-1.12-2.5-2.5s1.12-2.5,2.5-2.5h26.06c1.38,0,2.5,1.12,2.5,2.5
				S1788.33,1295.22,1786.95,1295.22z"/>
			<path class="st1" d="M1632.09,1314.92h-26.06c-1.38,0-2.5-1.12-2.5-2.5s1.12-2.5,2.5-2.5h26.06c1.38,0,2.5,1.12,2.5,2.5
				S1633.47,1314.92,1632.09,1314.92z"/>
			<path class="st1" d="M1712.59,1265.99h-117.47c-1.38,0-2.5-1.12-2.5-2.5s1.12-2.5,2.5-2.5h117.47c1.38,0,2.5,1.12,2.5,2.5
				S1713.97,1265.99,1712.59,1265.99z"/>
			<path class="st13" d="M2013.76,1420.85l10.41-250.81c0,0-13.48,61.86-24.84,88.39c-11.37,26.53,0,79.56-16.42,83.99
				c-16.42,4.43-23.79,8.11-23.79,8.11L2013.76,1420.85z"/>
			<path class="st13" d="M2282.62,1198.26l60.56,136.48l70.86-13.69c0,0-32.62-3.84-56.4-34.4c-19.33-24.84-14.9-12.9-36.21-40.84
				C2295.75,1212.12,2282.62,1198.26,2282.62,1198.26z"/>
			<path d="M2343.18,1337.24c-1.09,0-2.1-0.72-2.41-1.83l-6.21-22.31c-0.37-1.33,0.41-2.71,1.74-3.08c1.33-0.37,2.71,0.41,3.08,1.74
				l6.21,22.31c0.37,1.33-0.41,2.71-1.74,3.08C2343.63,1337.21,2343.4,1337.24,2343.18,1337.24z"/>
			<path class="st1" d="M2118.8,1164.97c-14.92,0-27.02-4.62-36.02-13.76c-18.47-18.76-17.17-49.62-17.1-50.92
				c0.07-1.38,1.21-2.45,2.62-2.37c1.38,0.07,2.44,1.24,2.38,2.62c-0.01,0.3-1.24,30.01,15.69,47.19
				c8.47,8.6,20.17,12.71,34.78,12.21c22.3-0.75,38.22-10.89,47.33-30.13c6.87-14.53,7.1-28.95,7.1-29.1
				c0.01-1.37,1.13-2.47,2.5-2.47c0.01,0,0.02,0,0.03,0c1.38,0.01,2.49,1.15,2.47,2.53c-0.01,0.63-0.25,15.68-7.58,31.18
				c-6.85,14.49-21.38,31.97-51.68,32.99C2120.46,1164.96,2119.62,1164.97,2118.8,1164.97z"/>
			<path class="st1" d="M2331.38,1305.43c-1.21,0-2.27-0.88-2.47-2.11c-0.22-1.36,0.71-2.65,2.07-2.86l105.36-16.82
				c1.37-0.22,2.65,0.71,2.86,2.07c0.22,1.36-0.71,2.65-2.07,2.86l-105.36,16.82C2331.64,1305.42,2331.51,1305.43,2331.38,1305.43z"
				/>
			<path class="st1" d="M2015.76,1375.25c-0.75,0-1.5-0.34-1.99-0.98l-96.64-126.32c-0.84-1.1-0.63-2.67,0.47-3.5
				c1.1-0.84,2.67-0.63,3.5,0.47l96.64,126.32c0.84,1.1,0.63,2.67-0.47,3.5C2016.82,1375.08,2016.29,1375.25,2015.76,1375.25z"/>
			<path class="st11" d="M2221.01,1272.67h-18.55c-1.38,0-2.5-1.12-2.5-2.5s1.12-2.5,2.5-2.5h18.55c1.38,0,2.5,1.12,2.5,2.5
				S2222.39,1272.67,2221.01,1272.67z"/>
			<path class="st11" d="M2218.29,1294h-33.64c-1.38,0-2.5-1.12-2.5-2.5s1.12-2.5,2.5-2.5h33.64c1.38,0,2.5,1.12,2.5,2.5
				S2219.67,1294,2218.29,1294z"/>
			<path class="st11" d="M2178.63,1310.72c-1.32,0-2.42-1.03-2.49-2.37c-0.07-1.38,0.98-2.56,2.36-2.63l33.11-1.78
				c1.4-0.07,2.56,0.98,2.63,2.36c0.07,1.38-0.98,2.56-2.36,2.63l-33.11,1.78C2178.72,1310.72,2178.67,1310.72,2178.63,1310.72z"/>
			<path class="st11" d="M2291.12,1429.38c-0.56,0-1.12-0.23-1.51-0.69l-11.34-13.05c-0.72-0.83-0.64-2.1,0.2-2.82
				c0.83-0.73,2.1-0.64,2.82,0.2l11.34,13.05c0.72,0.83,0.64,2.1-0.2,2.82C2292.05,1429.22,2291.58,1429.38,2291.12,1429.38z"/>
			<path d="M2243.75,1626.32h-65.68c-1.38,0-2.5-1.12-2.5-2.5s1.12-2.5,2.5-2.5h65.68c1.38,0,2.5,1.12,2.5,2.5
				S2245.13,1626.32,2243.75,1626.32z"/>
			<path d="M2218.28,1706.75c-1.21,0-2.27-0.88-2.47-2.1l-12.89-80.43c-0.22-1.36,0.71-2.65,2.07-2.86
				c1.37-0.22,2.65,0.71,2.86,2.07l12.89,80.43c0.22,1.36-0.71,2.65-2.07,2.86C2218.55,1706.74,2218.42,1706.75,2218.28,1706.75z"/>
			<path class="st1" d="M2384.06,1706.75c-1.24,0-2.32-0.93-2.48-2.19l-20.04-160.86c-0.17-1.37,0.8-2.62,2.17-2.79
				c1.39-0.18,2.62,0.8,2.79,2.17l20.04,160.86c0.17,1.37-0.8,2.62-2.17,2.79C2384.26,1706.75,2384.16,1706.75,2384.06,1706.75z"/>
			<path class="st1" d="M2026.5,1701.77c-0.04,0-0.09,0-0.13,0c-1.38-0.07-2.44-1.25-2.37-2.63l8.2-155.88
				c0.07-1.38,1.26-2.45,2.63-2.37c1.38,0.07,2.44,1.25,2.37,2.63l-8.2,155.88C2028.92,1700.74,2027.82,1701.77,2026.5,1701.77z"/>
			<path d="M2013.76,1423.35c-0.01,0-0.01,0-0.02,0c-1.38-0.01-2.49-1.14-2.48-2.52l0.84-108.43c0.01-1.37,1.13-2.48,2.5-2.48
				c0.01,0,0.01,0,0.02,0c1.38,0.01,2.49,1.14,2.48,2.52l-0.84,108.43C2016.25,1422.25,2015.13,1423.35,2013.76,1423.35z"/>
			<path class="st11" d="M2317.64,1467.59c-0.6,0-1.19-0.27-1.58-0.78l-16.1-20.84c-0.67-0.87-0.51-2.13,0.36-2.81
				c0.87-0.67,2.13-0.52,2.81,0.36l16.1,20.84c0.67,0.87,0.51,2.13-0.36,2.81C2318.5,1467.45,2318.07,1467.59,2317.64,1467.59z"/>
			<path d="M1873.73,1427.94c-0.04,0-0.07,0-0.11,0l-103.12-4.59c-1.38-0.06-2.45-1.23-2.39-2.61s1.22-2.43,2.61-2.39l100.46,4.47
				l-2.33-119.84c-0.03-1.38,1.07-2.52,2.45-2.55c1.36-0.01,2.52,1.07,2.55,2.45l2.39,122.51c0.01,0.69-0.26,1.36-0.75,1.84
				C1875.01,1427.69,1874.38,1427.94,1873.73,1427.94z"/>
			<path class="st1" d="M1842.06,979.71c-0.05,0-0.1,0-0.15,0l-281.19-16.43c-1.32-0.08-2.35-1.17-2.35-2.5v-39.92
				c0-1.38,1.12-2.5,2.5-2.5h281.19c1.38,0,2.5,1.12,2.5,2.5v56.35c0,0.69-0.28,1.35-0.78,1.82
				C1843.31,979.46,1842.7,979.71,1842.06,979.71z M1563.37,958.42l276.19,16.14v-51.2h-276.19V958.42z"/>
			<path class="st1" d="M2343.41,1526.2h-327.65c-1.38,0-2.5-1.12-2.5-2.5s1.12-2.5,2.5-2.5h327.65c1.38,0,2.5,1.12,2.5,2.5
				S2344.79,1526.2,2343.41,1526.2z"/>
		</g>
		<path class="st1" d="M1900.64,1717.92c-1.22,0-2.29-0.89-2.47-2.13c-11.87-80.44-42.91-136.98-92.27-168.07
			c-38.42-24.2-81.06-28.09-110.07-27.1c-31.56,1.08-54.29,8.01-54.51,8.08c-1.32,0.41-2.72-0.33-3.13-1.65
			c-0.41-1.32,0.33-2.72,1.65-3.13c0.94-0.29,23.47-7.18,55.65-8.3c29.76-1.04,73.5,2.95,113.04,27.84
			c50.67,31.9,82.5,89.63,94.59,171.6c0.2,1.37-0.74,2.64-2.11,2.84C1900.88,1717.91,1900.76,1717.92,1900.64,1717.92z"/>
		<path class="st3" d="M2228.47,482.7H2123.1c-1.38,0-2.5-1.12-2.5-2.5s1.12-2.5,2.5-2.5h105.37c1.38,0,2.5,1.12,2.5,2.5
			S2229.85,482.7,2228.47,482.7z"/>
		<circle class="st2" cx="2258.12" cy="480.2" r="44.98"/>
		<path class="st2" d="M2701.58,2426.42c-45.65,0-82.78-37.14-82.78-82.78s37.14-82.78,82.78-82.78s82.78,37.14,82.78,82.78
			S2747.22,2426.42,2701.58,2426.42z M2701.58,2265.86c-42.89,0-77.78,34.89-77.78,77.78s34.89,77.78,77.78,77.78
			s77.78-34.89,77.78-77.78S2744.46,2265.86,2701.58,2265.86z"/>
		<circle class="st1" cx="469.36" cy="329.93" r="25.62"/>
		<circle class="st1" cx="560.73" cy="329.93" r="25.62"/>
		<circle class="st1" cx="652.1" cy="329.93" r="25.62"/>
		<path class="st6" d="M1738.6,735.41c-15.51,0-28.12-12.61-28.12-28.12s12.61-28.12,28.12-28.12s28.12,12.61,28.12,28.12
			S1754.11,735.41,1738.6,735.41z M1738.6,684.17c-12.75,0-23.12,10.37-23.12,23.12c0,12.75,10.37,23.12,23.12,23.12
			s23.12-10.37,23.12-23.12C1761.72,694.54,1751.35,684.17,1738.6,684.17z"/>
		<path class="st6" d="M1829.97,735.41c-15.51,0-28.12-12.61-28.12-28.12s12.61-28.12,28.12-28.12s28.12,12.61,28.12,28.12
			S1845.48,735.41,1829.97,735.41z M1829.97,684.17c-12.75,0-23.12,10.37-23.12,23.12c0,12.75,10.37,23.12,23.12,23.12
			s23.12-10.37,23.12-23.12C1853.09,694.54,1842.72,684.17,1829.97,684.17z"/>
		<path class="st6" d="M1921.34,735.41c-15.51,0-28.12-12.61-28.12-28.12s12.61-28.12,28.12-28.12s28.12,12.61,28.12,28.12
			S1936.84,735.41,1921.34,735.41z M1921.34,684.17c-12.75,0-23.12,10.37-23.12,23.12c0,12.75,10.37,23.12,23.12,23.12
			s23.12-10.37,23.12-23.12C1944.46,694.54,1934.09,684.17,1921.34,684.17z"/>
		<g>
			<path class="st9" d="M384.86,1430.42c0,0-36.53,46.6-21.41,46.6s46.6-47.23,44.08-52.27
				C405.01,1419.71,394.22,1417.7,384.86,1430.42z"/>
			<path class="st9" d="M467.38,1430.42c0,0-36.53,46.6-21.41,46.6s46.6-47.23,44.08-52.27
				C487.53,1419.71,476.74,1417.7,467.38,1430.42z"/>
			<path class="st9" d="M551.97,1430.42c0,0-36.53,46.6-21.41,46.6c15.11,0,46.6-47.23,44.08-52.27
				C572.12,1419.71,561.33,1417.7,551.97,1430.42z"/>
			<path class="st9" d="M384.86,1508.65c0,0-36.53,46.6-21.41,46.6s46.6-47.23,44.08-52.27
				C405.01,1497.95,394.22,1495.93,384.86,1508.65z"/>
			<path class="st9" d="M467.38,1508.65c0,0-36.53,46.6-21.41,46.6s46.6-47.23,44.08-52.27
				C487.53,1497.95,476.74,1495.93,467.38,1508.65z"/>
			<path class="st9" d="M551.97,1508.65c0,0-36.53,46.6-21.41,46.6c15.11,0,46.6-47.23,44.08-52.27
				C572.12,1497.95,561.33,1495.93,551.97,1508.65z"/>
		</g>
	</g>
</g>
</svg>
