<?xml version="1.0" encoding="utf-8"?>
<!-- Generator: Adobe Illustrator 25.1.0, SVG Export Plug-In . SVG Version: 6.00 Build 0)  -->
<svg version="1.1" id="Layer_1" xmlns="http://www.w3.org/2000/svg" xmlns:xlink="http://www.w3.org/1999/xlink" x="0px" y="0px"
	 viewBox="0 0 1780.14 1245.4" style="enable-background:new 0 0 1780.14 1245.4;" xml:space="preserve">
<style type="text/css">
	.st0{fill:#489DA2;}
	.st1{fill:#D2F1F9;}
	.st2{fill:#EFF9FA;}
	.st3{fill:#8AB9C4;}
	.st4{fill:#FFBC57;}
	.st5{fill:#123A53;}
	.st6{fill:#DDF1F6;}
	.st7{fill:#FFB319;}
	.st8{fill:#F99B06;}
	.st9{fill:#EA8068;}
	.st10{fill:#FF936D;}
	.st11{fill:#F55C2B;}
	.st12{fill:#E8522A;}
	.st13{fill:#376F92;}
	.st14{fill:#376F90;}
	.st15{fill:#67A2C2;}
	.st16{fill:#FFFFFF;}
	.st17{fill:#5E1212;}
	.st18{fill:none;}
	.st19{fill:#386DA0;}
	.st20{fill:#518CBC;}
	.st21{fill:#F2AF55;}
	.st22{fill:#070707;}
	.st23{fill:#237C82;}
	.st24{fill:#E59A15;}
	.st25{fill:#2A5A72;}
	.st26{fill:#DDB27F;}
	.st27{fill:#FDFEFF;}
	.st28{fill:#E68F26;}
	.st29{fill:#FFBA55;}
	.st30{fill:none;stroke:#E68F26;stroke-width:1.9957;stroke-miterlimit:10;}
	.st31{fill:#D23852;}
	.st32{fill:#F2CC73;}
	.st33{fill:#759B7C;}
	.st34{fill:#3F464C;}
	.st35{fill:#58595B;}
	.st36{fill:#E0E2DD;}
	.st37{fill:#3DB39E;}
	.st38{fill:#F2F1EF;}
	.st39{fill:#D82E46;}
	.st40{fill:#1B6668;}
	.st41{fill:#F53C4E;}
</style>
<g>
	<g>
		<path class="st0" d="M566.6,100.36c0,0,10.69-21.57,23.95-18.96L566.6,100.36z"/>
	</g>
	<g>
		<g>
			<path class="st1" d="M1396.46,219.61H206.15c-31.91,0-57.79,25.87-57.79,57.79v661.5c0,31.91,25.88,57.79,57.79,57.79h1190.31
				c31.91,0,57.79-25.88,57.79-57.79V277.4C1454.25,245.48,1428.37,219.61,1396.46,219.61z"/>
		</g>
	</g>
	<g>
		<polygon class="st2" points="1298.64,527.36 584.77,527.36 608.05,358.97 1321.92,358.97 		"/>
	</g>
	<g>
		<g>
			<rect x="448.13" y="605.24" class="st3" width="315.83" height="278.51"/>
		</g>
		<g>
			<rect x="468.31" y="625.64" class="st2" width="275.47" height="237.71"/>
		</g>
		<g>
			<polygon class="st0" points="552.83,780.94 616.71,780.94 584.77,722.01 			"/>
		</g>
		<g>
			<g>
				<ellipse class="st4" cx="670.8" cy="703.6" rx="19.68" ry="18.42"/>
			</g>
		</g>
		<g>
			<g>
				<polygon class="st5" points="603.81,780.94 667.69,780.94 635.75,722.01 				"/>
			</g>
		</g>
	</g>
	<g>
		<path class="st6" d="M460.44,455.62h-99.33c-8.91,0-16.14-7.22-16.14-16.14v-32.27c0-8.91,7.22-16.14,16.14-16.14h99.33
			c8.91,0,16.14,7.22,16.14,16.14v32.27C476.58,448.39,469.35,455.62,460.44,455.62z"/>
	</g>
	<g>
		<g>
			<path class="st7" d="M1303.99,665.7l113.41,45.04l16.43,6.52l14.11-37.83l6.73-18.04l-29.66,0.93l-3.96,0.13l-12.99-5.22
				l-81.65-32.8c-3.8-1.51-8.11-0.1-10.29,3.34l-16.17,25.55C1297.13,657.82,1299.05,663.75,1303.99,665.7z"/>
		</g>
		<g>
			<path class="st8" d="M1417.4,710.74l16.43,6.52l14.11-37.83l-22.93-17.11l-3.96,0.13l-12.99-5.22
				C1408.87,669.52,1411.18,693.67,1417.4,710.74z"/>
		</g>
		<g>
			<path class="st5" d="M1427.55,933.12c0,0-3.72,4.03,7.44,14.97l48.74,14.99l15.74-4.08l-12.7-16.28l-50.33-9.93L1427.55,933.12z"
				/>
		</g>
		<g>
			<path class="st9" d="M1532.39,1020.14c16.31,2.71,33.41,4.77,50.3,6.32c67.8,6.26,132.48,4.4,132.48,4.4
				c8.85-2.26,1.46-22.46,1.46-22.46l-12.22-1.19c-52.55-7.49-92.04-14.71-121.68-21.28c-27.05-6-45.94-11.48-59.07-16.07
				c-13.07-4.59-20.46-8.35-24.6-10.99c-1.29-0.83-2.27-1.53-3.02-2.12c0.01-0.03-0.01-0.02-0.05-0.04
				c-1.64-1.33-2.02-2.04-2.02-2.04l-4.04-14.87l-8.78-32.37l-30.14,21.86l-12.73,9.22
				C1407.85,985.33,1463.3,1008.63,1532.39,1020.14z"/>
		</g>
		<g>
			<path class="st5" d="M1430.53,938.33l24.07,0.55c16.43,2.28,31.85,9.15,44.52,19.82l0.36,0.29c2.14,1.81,5.45,1.07,6.62-1.46
				l1.93-4.19c0.53-1.15,1.22-2.24,2.06-3.22l56.01-65.1l-36.17-102.17l-88.08,139.33l-14.2,9.86
				C1425.61,934.51,1427.31,938.27,1430.53,938.33z"/>
		</g>
		<g>
			<path class="st5" d="M1517.76,920.37c0,0-3.25,39.41,74.5,29.88l-19.79-21.4L1517.76,920.37z"/>
		</g>
		<g>
			<path class="st10" d="M1582.5,1210.15l20.87-14.85c-2.98-10.06-5.55-20.65-7.76-31.58c-9.14-45.25-12.21-96.13-12.91-137.26
				c-0.26-15.07-0.2-28.83,0.03-40.53c0.22-13.35,0.63-24.02,0.94-30.86c0.25-5.5,0.46-8.53,0.46-8.53l-16.81-36.72l-29.1,10.19
				l-7.91,2.77c-1.26,0.8-2.35,1.9-3.28,3.3l-0.01,0.03c-5.06,7.5-5.62,23.32-3.36,43.76c1.67,14.79,4.79,32,8.74,50.28
				c12.09,55.92,32.04,121.66,41.53,157.89C1579.07,1197.73,1582.5,1210.15,1582.5,1210.15z"/>
		</g>
		<g>
			<path class="st11" d="M1527.01,926.1l27.01,11.65c5,2.16,9.82,4.71,14.42,7.63l15.22,9.68c0.25-5.5,0.46-8.53,0.46-8.53
				l-8.19-17.9l-37.71-8.63l-7.91,2.77c-1.26,0.8-2.35,1.9-3.28,3.3L1527.01,926.1z"/>
		</g>
		<g>
			<path class="st12" d="M1438.28,938.52c0,0,43.59,10.02,57.71,18.2c-1.64-1.33-2.02-2.04-2.02-2.04l-4.04-14.87l-15.52-11.13
				l-23.39,0.62L1438.28,938.52z"/>
		</g>
		<g>
			<path class="st13" d="M1430.1,938.23l24.07,0.55c16.43,2.28,31.85,9.15,44.52,19.82l0.36,0.29c2.14,1.81,5.45,1.07,6.62-1.46
				l1.93-4.19c0.53-1.15,1.22-2.24,2.06-3.22c-20.19-39.25-68.23-27.94-68.23-27.94l-14.2,9.86
				C1425.18,934.4,1426.87,938.16,1430.1,938.23z"/>
		</g>
		<g>
			<path class="st8" d="M1623.3,730.3c0,0,3.65,20.15-8.66,31.26l-6.52,5.53l-15.1-13.15L1623.3,730.3z"/>
		</g>
		<g>
			<path class="st14" d="M1517.01,923.73c0.03,0.01,0.06,0,0.09,0.01l25.92,6.14c6.39,1.52,12.61,3.66,18.56,6.38l30.68,13.99
				c0.86,0.38,1.8-0.31,1.71-1.24l-1.61-15.65l10.04-56.36c0.62-5.67,1.84-11.24,3.59-16.69c6.56-20.15,22.36-75.08,8.65-98.75
				c-1.53-2.66-3.45-4.92-5.77-6.7l-88.36,40.45l2.92,3.2l1.68,1.85l0.11,0.12l-1.67,15.15l-6.18,94.74l-2.98,3.07
				C1511.16,916.81,1512.53,922.59,1517.01,923.73z"/>
		</g>
		<g>
			<path class="st15" d="M1561.49,928.78c-0.22,0-0.44-0.05-0.64-0.17c-0.62-0.35-0.84-1.14-0.48-1.77
				c26.8-47.03,20.08-123.04,18.94-126.02c-0.25-0.65,0.05-1.42,0.7-1.69c0.64-0.27,1.38-0.01,1.67,0.63
				c2.11,4.61,7.54,81.69-19.05,128.36C1562.38,928.55,1561.94,928.78,1561.49,928.78z"/>
		</g>
		<g>
			<path class="st15" d="M1517.01,923.73c0.03,0.01,0.06,0,0.09,0.01l25.92,6.14c6.39,1.52,12.61,3.66,18.56,6.38l30.68,13.99
				c0.86,0.38,1.8-0.31,1.71-1.24l-1.61-15.65c-35.45-21.3-75-22.99-75-22.99l-2.98,3.07
				C1511.16,916.81,1512.53,922.59,1517.01,923.73z"/>
		</g>
		<g>
			<path class="st5" d="M1517.96,802.01c0,0,2.65-0.56,7.14-1.64c18.25-4.45,66.8-17.82,89.54-38.79c-1.53-2.66-3.45-4.92-5.77-6.7
				l-60.56,27.72l-24.88,15.92L1517.96,802.01z"/>
		</g>
		<g>
			<path class="st7" d="M1415.36,683.13c0,0,0.05,0.12,0.13,0.28l0.01,0.02c2.39,5.15,36.48,78.01,85.98,109.28
				c0,0,1.61,5.5,6.86,7.46l12.02,2.3c0,0,136.66-54.49,95.73-80.6c-10.57-6.73-33.46-18.96-54.26-32.03
				c-5.99-3.75-11.82-7.58-17.11-11.37c-11.17-7.97-20.07-15.77-23.52-22.37c0,0,11.5-11.67,1.41-21.39
				c-2.09-2.01-4.74-3.33-7.55-3.98c-5.23-1.22-15.48-4.51-13.25-11.03c0,0-2.39-28.31-48.44,5.96c-0.21,0.15-0.43,0.31-0.64,0.46
				c-1.42,1.08-2.89,2.21-4.41,3.38l-20.95,16.23l-6.12,4.74C1421.25,650.49,1408.63,672.05,1415.36,683.13z"/>
		</g>
		<g>
			<path class="st16" d="M1432.04,740.24c-10.05-17.3-9.87-59.25-9.85-61.08c0.01-1.13,0.73-2.34,1.6-2.71
				c0.87-0.37,1.57,0.25,1.57,1.38c0,0.44-0.19,43.51,9.71,59.65c1.9-0.74,3.58,0.26,3.99,2.59c0.47,2.73-0.99,6.24-3.27,7.83
				c-2.28,1.59-4.51,0.67-4.99-2.06C1430.47,744.05,1431,741.94,1432.04,740.24z"/>
		</g>
		<g>
			<path class="st16" d="M1427.81,753.33c0.69-6.75-4.88-22.14-8.91-30.98l-0.11-0.31c-5.88-20.96-1.99-46.01-1.82-47.06
				c0.18-1.14,1.1-1.93,2.06-1.78c0.95,0.15,1.58,1.19,1.4,2.33c-0.04,0.25-3.87,24.91,1.67,44.86c1.34,2.95,9.52,21.49,9.25,32.09
				c1.24,0.28,2.35,1.14,3,2.53c1.23,2.61,0.37,6.01-1.91,7.6c-2.28,1.59-5.12,0.77-6.35-1.83
				C1424.88,758.25,1425.67,754.97,1427.81,753.33z"/>
		</g>
		<g>
			<path class="st5" d="M1415.36,683.13c0,0,0.05,0.12,0.13,0.28l0.01,0.02c1.84,0.3,3.69,0.22,5.15-0.65l14.34-26.11l17.73-30.54
				c-1.42,1.08-2.89,2.21-4.41,3.38l-20.95,16.23l-6.12,4.74C1421.25,650.49,1408.63,672.05,1415.36,683.13z"/>
		</g>
		<g>
			<path class="st10" d="M1398.93,642.95l1.46,1.38l9.23,8.65l17.42,16.39l26.1-31.12c-4.61,0.83-26.56-26.33-26.56-26.33
				L1398.93,642.95z"/>
		</g>
		<g>
			<path class="st14" d="M1455.87,644.35c28.13-33.52,65.34,11.75,65.34,11.75s11.48-11.68,1.4-21.38
				c-2.09-2.01-4.74-3.32-7.54-3.98c-5.24-1.22-15.5-4.51-13.26-11.04c0,0-2.4-28.3-48.44,5.97
				c-37.47,37.84-33.11,54.74-33.11,54.74C1417.47,694.26,1455.87,644.35,1455.87,644.35z"/>
		</g>
		<g>
			<path class="st8" d="M1466.9,768.1l14.89-67.3c0,0,13.11,54.41-1.38,75.49"/>
		</g>
		<g>
			<path class="st10" d="M1221.76,793.17c0,0,29.54,29.81,53.27,12.17l17.42,4.45l6.22,1.57l18.28-24.12l-6.42-0.96l-28.52-4.35
				c0,0-23.3-18.28-36.63-7.7c-1.18,0.91-0.85,2.75,0.59,3.15c5.37,1.39,16.07,4.61,16.83,8.14l-24.72,0.21c0,0-1.45-0.05-3.48,0
				c-0.94,0-2.03,0.05-3.13,0.12c-2.26,0.18-4.72,0.51-6.73,1.11c-0.91,0.3-1.73,0.65-2.39,1.07
				C1220.59,789.12,1220,790.76,1221.76,793.17z"/>
		</g>
		<g>
			<polygon class="st11" points="1292.45,809.79 1298.67,811.36 1316.94,787.24 1310.52,786.28 			"/>
		</g>
		<g>
			<path class="st7" d="M1481.79,700.81c0,0,19.41,121.24-50.22,127.96c0,0-100.17,3.35-128.13-6.22
				c-4.62-1.58-6.86-6.78-4.76-11.19l13.78-28.87c1.5-3.15,4.85-4.99,8.31-4.55c21.29,2.69,94.52,10.34,101.13-10.89l11.14-89.9
				L1481.79,700.81z"/>
		</g>
		<g>
			<path class="st10" d="M1251.01,635.31c0,0-7.76,6.2,26.8,8.5c0,0-4.88,11.07,14.04,6.77l4.96,1.69l3.14,1.07l11.03-17.41
				c0,0-0.05-0.04-0.17-0.12c-2.8-2.08-40.71-29-71.26-0.88C1239.55,634.91,1231.33,640.36,1251.01,635.31z"/>
		</g>
		<g>
			<g>
				<path class="st11" d="M1231.45,785.83c6.64,10.15,26.99,9.16,27.9,9.11c0.16-0.02,0.32-0.06,0.48-0.13
					c0.45-0.2,0.77-0.69,0.75-1.23c-0.04-0.72-0.66-1.26-1.36-1.23c-0.2,0-17.86,0.88-24.64-6.64
					C1233.65,785.71,1232.56,785.76,1231.45,785.83z"/>
			</g>
		</g>
		<g>
			<g>
				<path class="st11" d="M1222.34,788.01c6.69,10.33,26,12.91,26.88,13.03c0.24,0.03,0.51-0.01,0.72-0.1
					c0.38-0.17,0.69-0.54,0.73-1.02c0.11-0.7-0.39-1.36-1.12-1.45c-0.21-0.02-18.52-2.49-24.82-11.52
					C1223.81,787.25,1223,787.59,1222.34,788.01z"/>
			</g>
		</g>
		<g>
			<g>
				<path class="st11" d="M1291.01,643.02c0.45-0.21,0.76-0.67,0.76-1.2c-0.01-0.72-0.6-1.36-1.31-1.28
					c-19.95,2.34-38.05-1.4-39.1-3.71l0,0c0.02-0.01,0.12-0.22,0.51-0.56c4.78-4.24,27.24-5.15,28.98-5.09
					c0.71,0.02,1.31-0.54,1.34-1.25c0.02-0.71-0.53-1.31-1.25-1.34c-0.23-0.01-24.85,0.5-30.79,5.74c-1.57,1.39-1.52,2.63-1.22,3.43
					c2.08,5.37,29.92,7.29,41.56,5.38C1290.67,643.1,1290.85,643.09,1291.01,643.02z"/>
			</g>
		</g>
		<g>
			<path class="st15" d="M1582.5,1210.15l20.87-14.85c-2.07-7-3.96-14.26-5.63-21.7c-0.11-0.43-0.2-0.88-0.29-1.32
				c-0.11-0.43-0.21-0.9-0.3-1.34c-0.54-2.37-1.05-4.79-1.54-7.22l-21.68,14.31c0.59,2.29,1.16,4.46,1.71,6.54
				c0.11,0.43,0.24,0.89,0.35,1.32c0.11,0.43,0.24,0.89,0.34,1.3C1580.11,1201.5,1582.5,1210.15,1582.5,1210.15z"/>
		</g>
		<g>
			<path class="st5" d="M1561.79,1241.14l55.64-32.62l-11.34-18.23l-6.62-2.27c-0.95-0.33-1.99,0.45-1.88,1.37l0.7,7.06
				c0.09,0.81-0.3,1.65-1.04,2.21l-6.39,4.89c-1.26,0.98-3.06,0.78-3.82-0.44l-6.78-10.89c-9.77,5.73-10.78,9.63-10.78,9.63
				l7.92,11.08c-0.97,1.13-1.88,2.17-2.72,3.21c-0.63,0.74-1.26,1.49-1.8,2.22c-0.7,0.83-1.35,1.65-1.96,2.44
				c-0.59,0.76-1.16,1.5-1.69,2.23c-0.51,0.69-1,1.37-1.47,2.01c-0.55,0.79-1.09,1.55-1.55,2.28
				C1558.27,1239.3,1561.79,1241.14,1561.79,1241.14z"/>
		</g>
		<g>
			<polygon class="st13" points="1617.43,1208.51 1561.78,1241.13 1563.73,1245.4 1619.17,1212.31 			"/>
		</g>
		<g>
			<g>
				<path class="st16" d="M1572.88,1218.37c2.65,0.69,4.76,1.5,5.15,2.03c0.29,0.64,1.05,0.92,1.71,0.61
					c0.64-0.29,0.92-1.1,0.63-1.74c-0.6-1.32-3.01-2.35-5.68-3.13C1574.05,1216.89,1573.42,1217.64,1572.88,1218.37z"/>
			</g>
		</g>
		<g>
			<g>
				<path class="st16" d="M1569.23,1223.03c2.56,0.68,4.57,1.47,4.95,1.98c0.29,0.64,1.07,0.91,1.71,0.62
					c0.66-0.3,0.93-1.08,0.63-1.74c-0.59-1.3-3-2.33-5.6-3.08C1570.32,1221.56,1569.75,1222.31,1569.23,1223.03z"/>
			</g>
		</g>
		<g>
			<g>
				<path class="st16" d="M1566.2,1227.32c2.26,0.65,3.99,1.31,4.32,1.78c0.29,0.64,1.05,0.92,1.71,0.61
					c0.64-0.29,0.93-1.08,0.63-1.74c-0.55-1.2-2.68-2.19-5.1-2.93C1567.21,1225.84,1566.67,1226.6,1566.2,1227.32z"/>
			</g>
		</g>
		<g>
			<path class="st11" d="M1400.39,644.34l9.23,8.65c4.71-4.03,17.24-21.4,15.98-31.5l-1-2.19L1400.39,644.34z"/>
		</g>
		<g>
			<path class="st10" d="M1369.68,623.93c1.06,1.87,2.11,3.63,3.13,5.25c2.07,3.26,4.1,6.02,6.13,8.32c7.88,8.9,15.91,10.84,27.33,8
				c15.84-3.95,24.15-25.46,18.57-48.07c-5.59-22.61-38.78-33.81-54.61-29.87C1354.41,571.5,1356.66,600.88,1369.68,623.93z"/>
		</g>
		<g>
			<path class="st17" d="M1363.84,609.7l8.89,19.41c0,0-16.92-14.54-18.9-18.79c0,0-2.03-6.28,1.69-11.2c0,0-18.24-16.28-1.6-21.72
				c0,0-6.21-30.75,18.63-18.69c0,0,10.74-27.85,30.18-4.83c0,0,14.54-3.42,19.97,7.75c0,0,14.19,4.3,11.73,21.27
				c0,0,14.7,20.28,0.81,19.69c0,0-8.22-0.89-8.66,9.35l-6.79-4.49c0,0-4.04-5.26-11.38-8.21c0,0-6.47-1.38-9.12-8.14
				c0,0-17.37,11.9-22.05,0.14c0,0-6.8-8.18-8.73,8.14l-3.79,3.77C1363.12,604.73,1362.77,607.36,1363.84,609.7z"/>
		</g>
		<g>
			<path class="st10" d="M1425.86,590.3c2.03,3.69-2.52,9.24-6.96,11.67c-4.44,2.44-9.69,1.42-11.72-2.27
				c-2.03-3.69,3.68-13.8,8.12-16.24C1419.75,581.03,1423.83,586.61,1425.86,590.3z"/>
		</g>
		<g>
			<path class="st11" d="M1411.48,605.15c-6.41-12.94,17.25-14.06,3.44-10.01"/>
		</g>
		<g>
			
				<ellipse transform="matrix(0.9093 -0.4162 0.4162 0.9093 -129.1067 640.8334)" class="st11" cx="1405.23" cy="616.53" rx="7" ry="6.97"/>
		</g>
		<g>
			<path class="st11" d="M1372.81,629.18c2.07,3.26,4.1,6.02,6.13,8.32c1.37,0.14,2.79-0.12,4.09-0.83
				c3.39-1.86,4.63-6.11,2.78-9.48c-1.85-3.37-6.1-4.6-9.5-2.74C1374.44,625.49,1373.22,627.24,1372.81,629.18z"/>
		</g>
		<g>
			<path class="st11" d="M1387.39,614.09c0,0-0.7,1.25-0.91,2.92c-0.26,2.04,0.2,4.73,3.55,6.55L1387.39,614.09z"/>
		</g>
		<g>
			<g>
				<line class="st18" x1="1597.45" y1="1172.28" x2="1575.99" y2="1185.89"/>
			</g>
			<g>
				<path class="st13" d="M1576.32,1187.19l21.41-13.59c-0.11-0.43-0.2-0.88-0.29-1.32c-0.11-0.43-0.21-0.9-0.3-1.34l-21.51,13.64
					c0.11,0.43,0.24,0.89,0.35,1.32C1576.1,1186.32,1576.22,1186.78,1576.32,1187.19z"/>
			</g>
		</g>
		<g>
			<path class="st15" d="M1748.22,1027.37l-11.43-22.92c-7.24,0.95-14.7,1.7-22.31,2.19c-0.44,0.04-0.9,0.06-1.35,0.08
				c-0.45,0.04-0.92,0.07-1.37,0.09c-2.43,0.17-4.89,0.3-7.37,0.4l10.77,23.64c2.36-0.23,4.58-0.45,6.73-0.67
				c0.44-0.04,0.92-0.1,1.36-0.14c0.45-0.04,0.91-0.1,1.34-0.13C1739.31,1028.39,1748.22,1027.37,1748.22,1027.37z"/>
		</g>
		<g>
			<path class="st5" d="M1775.62,1052.65l-23.58-60.03l-19.77,8.37l-3.27,6.19c-0.48,0.89,0.14,2.03,1.06,2.07l7.08,0.41
				c0.82,0.04,1.58,0.55,2.03,1.37l3.84,7.08c0.77,1.4,0.29,3.15-1.03,3.71l-11.81,5c4.14,10.54,7.84,12.14,7.84,12.14l12.17-6.1
				c0.96,1.13,1.85,2.2,2.75,3.18c0.64,0.74,1.27,1.47,1.91,2.13c0.71,0.82,1.42,1.59,2.1,2.32c0.65,0.7,1.3,1.38,1.94,2.01
				c0.6,0.61,1.2,1.2,1.76,1.77c0.7,0.67,1.36,1.31,2.01,1.89C1773.26,1055.84,1775.62,1052.65,1775.62,1052.65z"/>
		</g>
		<g>
			<polygon class="st13" points="1752.03,992.61 1775.61,1052.66 1780.14,1051.39 1756.05,991.48 			"/>
		</g>
		<g>
			<g>
				<path class="st16" d="M1754.85,1038.16c1.1-2.51,2.22-4.47,2.81-4.77c0.67-0.19,1.07-0.89,0.87-1.59
					c-0.19-0.67-0.95-1.08-1.62-0.89c-1.4,0.39-2.79,2.61-3.97,5.12C1753.57,1036.77,1754.21,1037.5,1754.85,1038.16z"/>
			</g>
		</g>
		<g>
			<g>
				<path class="st16" d="M1758.89,1042.49c1.07-2.43,2.16-4.29,2.72-4.58c0.67-0.19,1.06-0.92,0.87-1.59
					c-0.2-0.7-0.92-1.09-1.62-0.89c-1.37,0.38-2.77,2.61-3.91,5.05C1757.61,1041.18,1758.26,1041.86,1758.89,1042.49z"/>
			</g>
		</g>
		<g>
			<g>
				<path class="st16" d="M1762.66,1046.14c0.99-2.13,1.91-3.74,2.43-3.99c0.67-0.19,1.07-0.89,0.87-1.59
					c-0.19-0.67-0.92-1.09-1.62-0.89c-1.27,0.36-2.58,2.31-3.69,4.59C1761.35,1044.92,1762.01,1045.57,1762.66,1046.14z"/>
			</g>
		</g>
		<g>
			<g>
				<line class="st18" x1="1713.14" y1="1006.72" x2="1723.25" y2="1030.04"/>
			</g>
			<g>
				<path class="st13" d="M1724.58,1029.91l-10.1-23.27c-0.44,0.04-0.9,0.06-1.35,0.08c-0.45,0.04-0.92,0.07-1.37,0.09l10.13,23.37
					c0.44-0.04,0.92-0.1,1.36-0.14C1723.69,1030,1724.16,1029.94,1724.58,1029.91z"/>
			</g>
		</g>
		<g>
			<path class="st8" d="M1554.66,735.35l7.17-45.51c-5.99-3.75-11.82-7.58-17.11-11.37c-0.09,16.17,0.39,37.51,3.52,42.72
				L1554.66,735.35z"/>
		</g>
		<g>
			<line class="st8" x1="1480.41" y1="776.3" x2="1466.9" y2="768.1"/>
		</g>
		<g>
			<path class="st11" d="M1296.81,652.26l3.14,1.07l11.03-17.41c0,0-0.05-0.04-0.17-0.12L1296.81,652.26z"/>
		</g>
		<g>
			<path class="st11" d="M1527.03,926.07"/>
		</g>
	</g>
	<g>
		<g>
			<path class="st3" d="M5.75,1234.56c-1.79,0-3.27-1.43-3.32-3.23c-0.05-1.84,1.4-3.36,3.23-3.41l172.5-4.69l-5.34-146.44
				l152.02-9.49V937.85l187.82-5.16c1.85-0.06,3.36,1.4,3.42,3.23c0.05,1.84-1.4,3.36-3.23,3.41l-181.36,4.98v129.22l-151.79,9.47
				l5.35,146.67l-179.21,4.87C5.81,1234.56,5.78,1234.56,5.75,1234.56z"/>
		</g>
	</g>
	<g>
		<g>
			<path class="st19" d="M733.84,1125.91c0,0-0.52,29.34-16.13,40.94h13.33l-8.27,57.13c0,0-136.42,14.36-184.94,2.63
				c-17.87-4.32-26.6-25.44-16.45-41c0.3-0.46,0.62-0.92,0.95-1.39c3.3-4.59,7.63-8.31,12.47-11.17l119.97-64.53L733.84,1125.91z"/>
		</g>
		<g>
			<path class="st5" d="M635.35,1109.46c0,0,12.56,34.08,17.54,36.24s6.25-16.15,6.25-16.15l-8.88-13.78L635.35,1109.46z"/>
		</g>
		<g>
			<g>
				<path class="st5" d="M543.43,993.86c0,0,24.59-28.32,30.93-27.06l-1,9.69L543.43,993.86z"/>
			</g>
			<g>
				<g>
					<path class="st10" d="M571.96,965.72h-0.02l-3.62-5.52v-15.21l-12.28-14.15h-43.11c-1.96,0-3.76,1.44-3.93,3.4
						c-0.25,3.18,3.42,7.51,24.84,7.95c0,0,1.02-0.24,2.57-0.46c-0.42,1.03-0.08,2.39,0.32,3.62l1.86,6.31
						c0,0,5.48,25.53,19.22,31.71c0.03,0.05,0.08,0.07,0.12,0.05c0.27,0.15,0.56,0.27,0.85,0.37l0.08-0.07l15.5-14.37L571.96,965.72
						z M549.37,955.41c0,0-4.62-10.69-8.78-14.04c4.74-0.15,10.42,0.76,11.49,5.7C552.08,947.07,553.74,959.78,549.37,955.41z"/>
				</g>
			</g>
			<g>
				<polygon class="st11" points="574.36,969.37 558.86,983.74 557.93,983.43 557.8,983.4 557.81,983.38 571.94,965.72 
					571.96,965.72 				"/>
			</g>
			<g>
				<polygon class="st10" points="742.59,1200.6 758.29,1200.6 779.7,1227.37 739.15,1227.37 736.88,1204.74 				"/>
			</g>
			<g>
				<path class="st20" d="M750.22,1130.55c0,0-0.53,29.34-16.39,40.94h13.53l-8.4,57.13c0,0-178.39,18.49-202.32-3.63
					c0,0-15.44-16.66-1.25-36.12c3.35-4.59,7.75-8.31,12.66-11.17l98.81-57.49L750.22,1130.55z"/>
			</g>
			<g>
				<path class="st11" d="M642.68,891.57c0,0-2.58,6.9-4.33,10.77c-0.77,1.69-0.5,3.66,0.67,5.1l3.08,3.8"/>
			</g>
			<g>
				<path class="st21" d="M713.1,932.91c0,0,0.7-5.67-55.93,13.37c-2.76,0.93-4.52,3.62-4.25,6.52c0.36,3.9,1.29,10.26,3.62,19.75
					L713.1,932.91z"/>
			</g>
			<g>
				<polygon class="st10" points="709.81,932.75 681.13,955.09 672.31,940.44 667.69,932.75 686.29,919.78 698.49,911.25 				"/>
			</g>
			<g>
				<path class="st11" d="M697.44,913.52c-0.47,0.68-14.18,20.02-25.13,26.92l-4.62-7.68l18.6-12.98L697.44,913.52z"/>
			</g>
			<g>
				<path class="st10" d="M701.63,897.09c-1.59,30.01-29.42,39.73-44.64,37.69c-9.41-1.25-10.64-7.05-13.85-17.85
					c-0.26-0.87-0.49-1.75-0.7-2.64c-0.82-3.4-1.29-6.95-1.41-10.48c-0.03-0.75-0.05-1.49-0.03-2.24c0.01-1.88,0.12-3.74,0.35-5.57
					c2.26-17.93,13.34-38.56,28.56-36.52C685.13,861.51,702.58,879.03,701.63,897.09z"/>
			</g>
			<g>
				<path class="st17" d="M658.23,862.44c0,0-13.67,17.52-15.21,25.19c0,0-6.2,0.73-5.62-10.16c0.35-6.53,2.95-12.72,7.09-17.78
					c5.15-6.29,14.12-14.72,27.2-18.37c0,0,31.93-11.11,44.02,17.02c0,0,9.9,33.7-2.81,40.68l-14.4,12.23l-1.2-20.87
					C697.3,890.38,656.68,897.16,658.23,862.44z"/>
			</g>
			<g>
				<path class="st17" d="M700.11,851.57c1.66,0.36,17.87-19.46,23.67-9.73"/>
			</g>
			<g>
				
					<ellipse transform="matrix(0.106 -0.9944 0.9944 0.106 -298.2435 1478.4666)" class="st11" cx="673.13" cy="905.1" rx="11.24" ry="10.26"/>
			</g>
			<g>
				<g>
					<path class="st22" d="M654.89,903.84c-7.59,0-13.77-6.17-13.77-13.77c0-7.59,6.18-13.77,13.77-13.77
						c7.59,0,13.77,6.18,13.77,13.77C668.66,897.66,662.49,903.84,654.89,903.84z M654.89,878.23c-6.53,0-11.84,5.31-11.84,11.84
						c0,6.53,5.31,11.84,11.84,11.84c6.53,0,11.84-5.31,11.84-11.84C666.73,883.54,661.42,878.23,654.89,878.23z"/>
				</g>
			</g>
			<g>
				<g>
					
						<rect x="681.02" y="875.65" transform="matrix(0.0262 -0.9997 0.9997 0.0262 -225.7092 1548.5271)" class="st22" width="1.93" height="28.93"/>
				</g>
			</g>
			<g>
				<path class="st10" d="M711.62,898.46c-0.63,4.9-7.47,7.17-12.37,6.53s-8.36-5.12-7.72-10.02c0.63-4.9,11.1-10.76,16-10.13
					C712.43,885.48,712.25,893.56,711.62,898.46z"/>
			</g>
			<g>
				<path class="st11" d="M695.78,900.63c0,0,3.77-7.59,8.04-5.68"/>
			</g>
			<g>
				<g>
					<path class="st17" d="M634.2,874.8c-0.01,0-0.01,0-0.02,0c-0.23-0.01-0.41-0.21-0.4-0.44c0.51-10.64,5.13-18.66,13.35-23.2
						c7.06-3.9,14.58-4.01,14.95-3.8c0.2,0.12,0.28,0.37,0.16,0.58c-0.1,0.17-0.29,0.25-0.47,0.2c-1.22-0.15-10.97,0.39-18.28,6.52
						c-5.47,4.59-8.46,11.23-8.87,19.74C634.61,874.62,634.43,874.8,634.2,874.8z"/>
				</g>
			</g>
			<g>
				<path class="st23" d="M658.2,971.08c0,0-22.41,64.14-47.16,46.9l-36.68-51.18l-14.41,14.59c-1.39,1.41-2.9,2.7-4.51,3.85
					l-12.01,8.61c0,0,39.21,68.75,57.39,76.26c0,0,31.71,19.7,51.22,2.69c3.16-2.75,5.25-6.54,6.07-10.65l13.23-66.29L658.2,971.08z
					"/>
			</g>
			<g>
				<path class="st0" d="M757.77,970.95l-0.25,1.42l-5.06,29.42c-1.46,8.45-3.18,74.64,4.37,111.77c2.2,10.81-6.17,20.9-17.2,20.9
					h-86.04c1.01-31.65,8.7-130.75,4.61-163.39c0,0,9.59-18.31,16.6-19.94L707.95,934c3.09-1.61,7.38-0.71,8.91,1.84l4.07,6.82
					C720.92,942.66,749.81,946.29,757.77,970.95z"/>
			</g>
			<g>
				<path class="st0" d="M707.95,934c0,0,17.41-30.26,47.29,2.93c1.63,1.81,15.05,13.54,22.03,19.6c3.01,2.62,2.23,6.67-1.77,8.42
					c-6.13,2.69-17.93,3.77-39.44-6.17C736.05,958.78,705.85,936.94,707.95,934z"/>
			</g>
			<g>
				<path class="st23" d="M744.28,927.94c0,0,33.51,28.66,27.36,28.66c0,0-22.97,6.89-48.18-19.04c-2.76-2.83-6.46-4.48-10.36-4.65
					l-4.32-0.19C708.78,932.72,727.53,916.7,744.28,927.94z"/>
			</g>
			<g>
				<path class="st4" d="M665.72,948.13c0,0-11.95,4.91-7.52,22.95L707.95,934"/>
			</g>
			<g>
				<path class="st10" d="M646.23,1117.89c-6.1,2.88-38.86,18.62-39.68,25.08c-0.06,0.46-0.27,0.89-0.62,1.24
					c-0.72,0.73-1.92,2.04-2.88,3.58c-0.5,0.8-0.4,1.66,0.07,2.33c0.58,0.83,1.74,1.38,3.05,1.16l48.5-7.98
					c1.04-0.17,1.89-0.82,2.2-1.68l6.62-18.28c0.49-1.34-0.47-2.76-2.09-3.08l-13.11-2.62
					C647.58,1117.51,646.86,1117.59,646.23,1117.89z"/>
			</g>
			<g>
				<polygon class="st11" points="639.81,1120.92 652.25,1143.71 643.94,1118.98 				"/>
			</g>
			<g>
				<path class="st23" d="M697.44,996.85c0,0-0.95-31.32,23.47-30.05c0,0,22.24,3.01,28.34,41.82c0,0,0.97,121.92-5.79,122.93
					l-90.58,14.14c0,0-10.47-33.59-17.54-36.24l62.1-19.89C697.44,1089.57,695.58,1010.15,697.44,996.85z"/>
			</g>
			<g>
				<g>
					<path class="st5" d="M506.67,938.97l68.32,11.59c2.06,0.35,4.02-1.04,4.37-3.1l0.23-1.36c0.35-2.06-1.04-4.02-3.1-4.37
						l-68.32-11.59L506.67,938.97z"/>
				</g>
				<g>
					<polygon class="st13" points="508.17,930.14 502.09,933.66 506.67,938.97 					"/>
				</g>
			</g>
			<g>
				<path class="st10" d="M549.37,955.4c0,0-9.77-23.46-13.04-13.78c-0.25,0.75-0.25,1.58-0.02,2.34l6.55,20.81"/>
			</g>
			<g>
				<path class="st19" d="M733.84,1171.49l-152.51,45.34C581.33,1216.83,716.4,1187.21,733.84,1171.49z"/>
			</g>
			<g>
				<polygon class="st11" points="742.59,1200.6 742.59,1227.37 739.15,1227.37 				"/>
			</g>
		</g>
		<g>
			<path class="st7" d="M757.97,1199.31c-0.61-1.99,0.21-4.17,2.03-5.26c2.54-1.51,7.08-2.76,12.9,1.83c0,0,30.71,17.9,37.08,27.88
				c1.13,1.76-0.29,4.05-2.42,4.05l-25.14,0C782.41,1227.8,761.08,1209.45,757.97,1199.31z"/>
		</g>
		<g>
			<path class="st24" d="M764.13,1217.28h11.96c3.57,0,7.05,1.13,9.93,3.24l10.01,7.29l-28.4,0L764.13,1217.28z"/>
		</g>
	</g>
	<g>
		<g>
			<polygon class="st14" points="177.97,486.11 137.46,498 169.86,520.39 193.33,499.76 			"/>
		</g>
		<g>
			<polygon class="st10" points="186.66,506.27 146.45,519.01 139.27,468.72 163.37,464.42 167.68,472.18 173.11,481.94 			"/>
		</g>
		<g>
			<path class="st11" d="M172.44,482.15c0.06,0,0.1-0.01,0.13,0c-0.52,0.16-19.52,1.76-24.33-7.29l19.44-2.69l5.43,9.76
				L172.44,482.15z"/>
		</g>
		<g>
			<path class="st10" d="M184.26,437.5l0.19,0.81c0.23,1.02,0.47,2.05,0.67,3.1c0.61,3.12,0.97,6.3,1.03,9.42
				c0.01,0.78,0.02,1.55,0,2.31c-0.25,13.28-5.56,25.13-16.77,27.24c-14.46,2.71-36.48-9.62-39.83-26.95
				c-3.37-17.32,5.9-45.56,29.62-44.3C172.68,409.86,180.51,422,184.26,437.5z"/>
		</g>
		<g>
			<path class="st17" d="M133.95,425.5c0,0,65.14,2.21,44.07-33.55c0,0-19.97-24.46-48.81,9.12c0,0-14.59,3.3-13.77,21.56
				c0,0-13.4,9.41,1.29,29.1c0,0,22.34,27.11,24.83,22.22l-6.99-25.56C134.58,448.4,149.34,460.02,133.95,425.5z"/>
		</g>
		<g>
			<path class="st10" d="M124.34,453.62c1.33,4.28,7.47,5.32,11.5,4.04s6.23-5.79,4.9-10.07c-1.33-4.28-11.11-8-15.15-6.72
				C121.56,442.15,123.01,449.34,124.34,453.62z"/>
		</g>
		<g>
			<path class="st11" d="M136.52,453.01c1.05,3.03-1.63-11.8-8.41-7.35"/>
		</g>
		<g>
			<path class="st11" d="M168.19,437.89c2.84,2.03,9.07,6.01,5.51,11.26"/>
		</g>
		<g>
			<path class="st17" d="M184.41,398.45c-0.24,0-0.44-0.18-0.46-0.42c-0.69-7-3.26-11.71-7.65-14.01
				c-10.17-5.33-26.92,3.87-27.09,3.96c-0.22,0.12-0.51,0.04-0.63-0.18s-0.04-0.51,0.18-0.63c0.7-0.39,17.36-9.53,27.98-3.97
				c4.69,2.45,7.43,7.42,8.15,14.75c0.03,0.26-0.16,0.48-0.42,0.51C184.44,398.45,184.42,398.45,184.41,398.45z"/>
		</g>
		<g>
			
				<ellipse transform="matrix(0.97 -0.2431 0.2431 0.97 -105.7781 52.1519)" class="st11" cx="158.39" cy="454.61" rx="7.25" ry="7.68"/>
		</g>
		<g>
			<path class="st11" d="M184.45,438.31c0.23,1.02,0.47,2.05,0.67,3.1c0.61,3.12,0.97,6.3,1.03,9.42c0.01,0.78,0.02,1.55,0,2.31
				c-2.76-0.37-5.23-2.41-6.16-5.39C178.76,443.77,180.75,439.57,184.45,438.31z"/>
		</g>
		<g>
			<path class="st25" d="M243.06,549.5c0,0-5.14,27.15-21.4,35.52c-16.26,8.37-10.3-5.22-10.3-5.22l18.45-19.06l7.08-11.24H243.06z"
				/>
		</g>
		<g>
			<line class="st10" x1="245.38" y1="554.68" x2="314.32" y2="446.27"/>
		</g>
		<g>
			<path class="st10" d="M360.89,426.05c0,0-0.36,0.99-8.24,4.79l0.58,2.05l0.25,0.86l0.9,3.22l0.25,0.87l0.82,2.89l0.25,0.87
				l0.27,0.94c0.34,1.2-0.24,2.46-1.36,2.99l-20.81,9.91c0,0-0.13,0.25-0.37,0.71l0.1,0.04c0,0-64.65,140.66-77.87,142.05
				l-31.74-13.22l-0.05-0.02l-12.5-5.2l-2.75-7.83l-4.55-12.96l28.18-14.23l1.57,1.18l8.59,6.46l2.99,2.25l68.95-108.41l0.17,0.09
				c3.15-12.97,10.34-37.82,14.99-15.97C329.48,430.39,365.37,417.56,360.89,426.05z"/>
		</g>
		<g>
			<polygon class="st11" points="242.39,552.43 223.9,585.02 223.85,585 203.25,577.49 208.6,571.97 233.81,545.97 			"/>
		</g>
		<g>
			<path class="st23" d="M182.58,488.36l60.48,61.14c0,0-24.37,29.6-24.79,43.76l-15.02-15.76l-13.87-64.07L182.58,488.36z"/>
		</g>
		<g>
			<path class="st23" d="M137.46,498c0,0,61.35,32.42,40.51-11.9l18.55,9.06l7.26,22.01l-16.3,17.63l-15.3,1.61l-39.57-29.45
				L137.46,498z"/>
		</g>
		<g>
			<path class="st26" d="M45.03,855.14c0,0,16.72,67.59,28.96,79.88l13.07-57.74l-11.06-22.14H45.03z"/>
		</g>
		<g>
			<path class="st10" d="M78.37,867.01c0,0-2.43,13.24-2.75,14.93c-0.33,1.69-3.43,16.28-3.43,16.28l-13.4,5.38l-7.39,2.96
				l-17.7-6.21l0.91-31.32l13.92-0.64l18.63-0.86L78.37,867.01z"/>
		</g>
		<g>
			<path class="st5" d="M26.37,961.35L3.69,863.01c-0.26-1.2,0.79-2.27,2.08-2.12l42.74,7.5c0,0-16.02,18.48-10.1,22.32l12.98,15.85
				c0,0-1.58,4.45-3.98,10.79c-0.25,0.65-0.49,1.34-0.76,2.03c-0.43,1.13-0.87,2.31-1.37,3.53c-0.24,0.67-0.49,1.34-0.78,2.02
				C38.2,941.16,29.43,962.13,26.37,961.35z"/>
		</g>
		<g>
			<polygon class="st14" points="23.08,962.08 0,861.95 5.34,860.87 28.43,961.01 			"/>
		</g>
		<g>
			<g>
				<path class="st27" d="M46.65,919.37l-8.58-3.15l0.84-2l8.49,3.12C47.16,917.99,46.92,918.69,46.65,919.37z"/>
			</g>
		</g>
		<g>
			<g>
				<path class="st27" d="M44.51,924.93l-8.75-3.22l0.84-2l8.68,3.19C45.05,923.58,44.79,924.25,44.51,924.93z"/>
			</g>
		</g>
		<g>
			<polygon class="st11" points="70.62,903.97 64.54,870.72 70.64,871.78 			"/>
		</g>
		<g>
			<path class="st25" d="M213.29,670.23c0,0-105.1,34.88-125.7,13l21.44-29.22l73.54-5.76L213.29,670.23z"/>
		</g>
		<g>
			<polygon class="st11" points="72.18,898.22 58.78,903.6 48.51,868.39 67.14,867.53 			"/>
		</g>
		<g>
			<path class="st28" d="M196.06,630.58l37.24,134.14c0,0,20.69,51.24-37.24,61.79L74,935.02L62.95,892.5
				c-0.58-2.22-1.39-4.38-2.42-6.43l-15.5-30.93l95.93-84.4l-14.21-123.59L196.06,630.58z"/>
		</g>
		<g>
			<path class="st26" d="M233.31,1005.86c0,0-45.66,38.16-57.94,37.67l8.63-21.48l33.59-16.19H233.31z"/>
		</g>
		<g>
			<path class="st10" d="M236.89,1037.81l-26.66,9.04l-7.4-15.3l-0.15-0.31l-2.01-4.15l-5.69-11.75c0,0,11.9-2.31,13.42-2.6
				c1.53-0.28,14.77-2.53,14.77-2.53l1.41,1.33l0.94,0.89l11.11,10.47L236.89,1037.81z"/>
		</g>
		<g>
			<path class="st29" d="M233.31,1005.86l-28.36,18.43l-0.89,0.57l-0.87,0.57l-27.81,18.09c0,0-47.57-206.51-47.57-234.38
				c0,0-30.86-110.44-21.56-140.59l69.13-38L233.31,1005.86z"/>
		</g>
		<g>
			<g>
				<line class="st18" x1="204.05" y1="1024.87" x2="133.78" y2="657.66"/>
			</g>
			<g>
				<polygon class="st28" points="204.95,1024.3 204.05,1024.87 203.18,1025.45 132.83,657.87 133.78,657.66 134.73,657.46 				"/>
			</g>
		</g>
		<g>
			<path class="st28" d="M143.85,710.1l-0.44-1.95c13.56-3.08,12.19-39.92,12.17-40.29l1.99-0.08
				C157.64,669.36,159.01,706.66,143.85,710.1z"/>
		</g>
		<g>
			<path class="st0" d="M179.42,486.82c0,0,46.18,7.45,40.45,58.54c0,0,7.69,111.3-6.58,124.87c0,0-99.82-11.64-125.7,13
				c0,0,6.81-43.61,16.74-86.34c5.66-24.37,4.81-38.07,2.49-47.14c-2.84-11.09-0.65-22.78,5.71-31.84L137.46,498
				c4.95-2.78,15.33,28.56,41.18,21.33c8.74-2.44,14.61-11.3,12.85-20.75C190.61,493.91,185.44,490.42,179.42,486.82z"/>
		</g>
		<g>
			<path class="st25" d="M90.41,604.51c0,0,41.81,24.47,52.4,23.06l-1.85-16.32l-31.95-13.22L90.41,604.51z"/>
		</g>
		<g>
			<path class="st10" d="M133.46,624.8c-5.57,23.48-21.32,90.06-21.09,91.82c0.37,2.8-20.98,59.25-20.98,59.25
				c2.17,8.28,2.41,27.04-2.26,29.15c-4.67,2.11-2.17-10.27-4.51-15.18c-2.34-4.92-6.89-0.39-6.89-0.39
				c-6.69,12.29-14.69,21.6-14.69,21.6c-3.58,4.27-6.82-2.08-6.82-2.08c-7.05,2.98-6.23-3.34-6.23-3.34
				c-11.92,4.82,2.03-16.59,2.03-16.59c-2.09,0-5.86,1.55-5.86,1.55c-3.53-3.49,26.25-31.3,26.25-31.3
				c7.9-3.74,12.43-38.16,12.43-38.16c1.28-2.39,9.16-72.16,13.6-112.09v-0.01c0.44-4.03,0.86-7.76,1.22-11.09
				c1.09-9.96,1.79-16.3,1.79-16.3l31.23-4.38l2.3,33.49l0.41,5.95C135.38,616.7,134.66,619.75,133.46,624.8z"/>
		</g>
		<g>
			<path class="st11" d="M135.38,616.7c0,0-0.73,3.05-1.92,8.1l-0.63,0.75l-34.4-16.51v-0.01c0.44-4.03,0.86-7.76,1.22-11.09
				l2.12-2.19l20.83,4.29l12.37,10.71L135.38,616.7z"/>
		</g>
		<g>
			<path class="st23" d="M114.32,515.54c-6.9,4.45-14.38,12.73-17.21,28.05l-6.69,60.92c0,0,47.48,1.12,52.4,23.06
				c0,0,3.72-57.46,1.01-68.28c0,0,1.41-18.97-3.46-33.52C136.54,514.35,123.93,509.33,114.32,515.54z"/>
		</g>
		<g>
			<path class="st5" d="M290.51,1024.29l-75.77,47.1c-0.93,0.56-2.16,0.13-2.43-0.87l-7.36-34.6c0,0,20.96,6.94,22.36,1.41
				l9.32-14.44c0,0,4.23-0.22,10.31-0.42c0.62-0.02,1.28-0.05,1.94-0.07c1.09-0.04,2.21-0.07,3.4-0.09
				c0.64-0.04,1.28-0.05,1.94-0.05C269.84,1021.86,290.22,1021.8,290.51,1024.29z"/>
		</g>
		<g>
			<polygon class="st14" points="292.14,1026.47 214.98,1074.43 212.42,1070.84 289.58,1022.89 			"/>
		</g>
		<g>
			<polygon class="st23" points="197.96,543 214.71,534.6 215.23,538.95 200.17,546.3 			"/>
		</g>
		<g>
			<path class="st30" d="M191.74,709.12"/>
		</g>
		<g>
			<path class="st30" d="M152,667.82"/>
		</g>
		<g>
			<g>
				<path class="st27" d="M248.88,1022.4v7.27h-1.94v-7.2C247.56,1022.46,248.22,1022.42,248.88,1022.4z"/>
			</g>
		</g>
		<g>
			<g>
				<path class="st27" d="M254.22,1022.26v7.42h-1.94v-7.36C252.92,1022.28,253.56,1022.26,254.22,1022.26z"/>
			</g>
		</g>
		<g>
			<polygon class="st11" points="225.52,1012.42 202.83,1031.54 202.68,1031.23 200.67,1027.08 200.67,1027.08 224.58,1011.54 			
				"/>
		</g>
		<g>
			<path class="st11" d="M49.98,805.63c0.67-2.31,1.61-4.51,2.6-6.67c1.02-2.15,2.1-4.27,3.45-6.27c-0.67,2.31-1.6,4.51-2.6,6.67
				C52.41,801.51,51.32,803.63,49.98,805.63z"/>
		</g>
		<g>
			<path class="st11" d="M56.03,809.04c0.67-2.31,1.61-4.51,2.6-6.67c1.02-2.15,2.1-4.27,3.45-6.27c-0.67,2.31-1.6,4.51-2.6,6.67
				C58.46,804.91,57.37,807.04,56.03,809.04z"/>
		</g>
		<g>
			<g>
				<path class="st11" d="M353.47,433.75l-9.37,4.54c-0.06,0.03-0.12,0.04-0.2,0.04c-0.16,0-0.32-0.1-0.4-0.26
					c-0.11-0.21-0.01-0.48,0.2-0.59l9.44-4.58c0.03-0.01,0.04-0.02,0.07-0.03L353.47,433.75z"/>
			</g>
		</g>
		<g>
			<g>
				<path class="st11" d="M354.63,437.84l-9.01,4.37c-0.06,0.04-0.13,0.04-0.2,0.04c-0.17,0-0.32-0.09-0.4-0.25
					c-0.11-0.22-0.02-0.49,0.2-0.59l9.15-4.44L354.63,437.84z"/>
			</g>
		</g>
		<g>
			<g>
				<path class="st11" d="M355.69,441.6l-8.95,4.34c-0.06,0.04-0.12,0.04-0.2,0.04c-0.16,0-0.32-0.09-0.4-0.25
					c-0.11-0.22-0.01-0.49,0.21-0.59l9.08-4.41L355.69,441.6z"/>
			</g>
		</g>
	</g>
	<g>
		<path class="st6" d="M1454.25,277.4H148.36c0-31.92,25.88-57.79,57.79-57.79h1190.31C1428.37,219.61,1454.25,245.48,1454.25,277.4
			z"/>
	</g>
	<g>
		<ellipse class="st31" cx="214.99" cy="252.51" rx="10.93" ry="10.79"/>
	</g>
	<g>
		<ellipse class="st32" cx="254.93" cy="252.51" rx="10.93" ry="10.79"/>
	</g>
	<g>
		<ellipse class="st33" cx="294.88" cy="252.51" rx="10.93" ry="10.79"/>
	</g>
	<g>
		<g>
			<g>
				<path class="st34" d="M1251.39,1057.79l0-0.02c2.92-0.84,4.96-3.31,4.77-6.09c-0.22-3.28-3.44-5.73-7.2-5.48
					c-1.9,0.13-3.58,0.96-4.76,2.16c-2.53,1.06-6.79,2.59-12.17,3.47c-11.11,1.83-26.99,0.88-41.98-12.69l-13.63,12.77
					c0,0,28.7,11.74,53.1,11.31C1237.71,1063.08,1245.42,1061.58,1251.39,1057.79z"/>
			</g>
			<g>
				<path class="st34" d="M1020.99,975.23l3.69-3.24c3.63-3.18,6.25-7.13,7.59-11.44l3.39-4.41c0,0-14.08,0-21.9,0.39
					c-2.82,0.14-4.33,3.38-2.63,5.63L1020.99,975.23z"/>
			</g>
			<g>
				<path class="st34" d="M1019.73,984.73l3.67,3.26c3.61,3.2,6.2,7.17,7.52,11.49l1.45,4.75c0,0-12.16-0.4-19.98-0.84
					c-2.82-0.16-4.31-3.41-2.59-5.65L1019.73,984.73z"/>
			</g>
			<g>
				<path class="st35" d="M1215.28,1016.84c1.68,24.95-14.32,47.39-38.23,57.23c-6.81,2.79-14.23,4.57-22.06,5.1
					c-5.66,0.38-11.17,0.07-16.47-0.81c-1.71-0.25-3.42-0.56-5.14-0.96c-11.69-2.55-23.49-8.04-34.64-14.82
					c-14.4-8.78-27.72-19.74-38.3-29.48c-6.43-5.92-11.87-11.41-15.92-15.68c-5.12-5.37-8.05-8.83-8.05-8.83l0.02-0.02
					c-9.54-5.19-16.13-14.16-16.85-24.79c-0.11-1.59-0.08-3.16,0.08-4.69c1.56-15.56,15.94-28.4,34.29-29.63
					c12.07-0.8,23.11,3.62,30.29,11.06l0.02-0.03c8.68,9.38,51.37,4.35,51.37,4.35l0.01,0.02c3.71-0.88,7.55-1.47,11.51-1.74
					C1182.65,960.74,1213.13,984.79,1215.28,1016.84z"/>
			</g>
			<g>
				<path class="st36" d="M1046.39,980.65c0.27,0.26,0.53,0.52,0.85,0.73c2.72,1.78,16.32,11.36,14.73,20.63
					c-0.01,0.08-0.03,0.16-0.04,0.24c-1.14,6.63-6,12-12.48,13.79l-1.95,0.54c-1.84,0.51-3.82-0.05-5.12-1.44
					c-3.79-4.06-5.91-6.56-5.91-6.56l0.02-0.02c-9.54-5.19-16.13-14.16-16.85-24.79c0-0.02,0-0.03,0-0.05
					c-0.18-2.66,1.8-4.98,4.45-5.33C1030.68,977.54,1042.36,976.67,1046.39,980.65z"/>
			</g>
			<g>
				
					<ellipse transform="matrix(0.9978 -0.067 0.067 0.9978 -62.3567 72.2065)" class="st34" cx="1045.59" cy="965.99" rx="3.5" ry="3.06"/>
			</g>
			<g>
				
					<ellipse transform="matrix(0.9978 -0.067 0.067 0.9978 -63.9508 72.3673)" class="st34" cx="1047.19" cy="989.84" rx="3.5" ry="3.06"/>
			</g>
			<g>
				
					<ellipse transform="matrix(0.9978 -0.067 0.067 0.9978 -63.1019 73.1972)" class="st36" cx="1059.99" cy="977.6" rx="8.65" ry="10.24"/>
			</g>
			<g>
				<g>
					<path class="st35" d="M1059.43,979.92L1059.43,979.92c1.38-1.23,1.38-3.19-0.01-4.38l0,0c-0.69-0.59-1.81-0.57-2.51,0.04
						l-0.71,0.63c-0.99,0.88-0.99,2.29,0,3.14l0.71,0.61C1057.62,980.56,1058.74,980.54,1059.43,979.92z"/>
				</g>
				<g>
					<path class="st35" d="M1058.48,978.42c-0.4,0-0.73-0.31-0.76-0.72c-0.02-0.42,0.3-0.78,0.71-0.8l6.72-0.38
						c0.39-0.01,0.78,0.3,0.8,0.71c0.02,0.42-0.3,0.78-0.71,0.8l-6.72,0.38C1058.51,978.42,1058.5,978.42,1058.48,978.42z"/>
				</g>
				<g>
					<path class="st35" d="M1064.79,982.04c-0.14,0-0.29-0.04-0.42-0.13c-0.35-0.23-0.44-0.7-0.21-1.05
						c2.89-4.36-0.23-6.86-0.37-6.96c-0.33-0.26-0.39-0.73-0.14-1.06c0.26-0.33,0.73-0.39,1.06-0.14c0.04,0.03,4.39,3.44,0.71,9
						C1065.28,981.92,1065.04,982.04,1064.79,982.04z"/>
				</g>
			</g>
			<g>
				<path class="st34" d="M1142.81,1047.62c12.19-0.82,21.64-7.96,21.11-15.94c-0.54-7.99,0.06-2.62-12.13-1.81
					c-12.19,0.82-25.5-5.84-24.96,2.15C1127.36,1040.01,1130.61,1048.44,1142.81,1047.62z"/>
			</g>
			<g>
				<path class="st34" d="M1098.73,1062.58c2.88-4.34,4.39-9.63,4.01-15.24c-0.9-13.47-12.37-23.67-25.63-22.78
					c-6.74,0.45-12.64,3.69-16.69,8.54C1071.01,1042.84,1084.33,1053.8,1098.73,1062.58z"/>
			</g>
			<g>
				<path class="st34" d="M1154.98,1079.18c7.84-0.53,15.27-2.31,22.06-5.1c-4.8-4.03-13.01-6.38-22.14-5.76
					c-9.41,0.63-17.41,4.24-21.54,9.09c1.72,0.4,3.43,0.72,5.14,0.96C1143.82,1079.24,1149.33,1079.56,1154.98,1079.18z"/>
			</g>
			<g>
				<path class="st36" d="M1251.39,1057.79l0-0.02c2.92-0.84,4.96-3.31,4.77-6.09c-0.22-3.28-3.44-5.73-7.2-5.48
					c-1.9,0.13-3.58,0.96-4.76,2.16c-2.53,1.06-6.79,2.59-12.17,3.47l-2.51,11.39C1237.71,1063.08,1245.42,1061.58,1251.39,1057.79z
					"/>
			</g>
			<g>
				<path class="st34" d="M1092.91,976.86c0,0,33.31-34.31,21.79-7.04l-9.29,14.42"/>
			</g>
			<g>
				<path class="st34" d="M1145.48,968.92c0,0,33.31-34.31,21.79-7.04l-9.29,14.42"/>
			</g>
			<g>
				<path class="st34" d="M1058.44,969.34c-0.81-2.54-1.31-5.13-1.75-7.74c-0.4-2.61-0.73-5.23-0.76-7.89
					c0.81,2.54,1.32,5.13,1.75,7.74C1058.08,964.05,1058.41,966.67,1058.44,969.34z"/>
			</g>
			<g>
				<path class="st34" d="M1059.84,969.46c-0.08-2.67,0.13-5.3,0.42-7.92c0.32-2.62,0.71-5.23,1.41-7.8
					c0.09,2.67-0.13,5.3-0.42,7.92C1060.93,964.27,1060.53,966.88,1059.84,969.46z"/>
			</g>
			<g>
				<path class="st34" d="M1061.84,969.75c0.41-2.64,1.11-5.18,1.88-7.71c0.8-2.51,1.67-5.01,2.83-7.41
					c-0.41,2.64-1.11,5.18-1.88,7.71C1063.87,964.85,1063,967.34,1061.84,969.75z"/>
			</g>
			<g>
				<path class="st34" d="M1058.02,983.91c-0.56,2.61-1.41,5.11-2.33,7.58c-0.95,2.46-1.96,4.9-3.26,7.23
					c0.56-2.61,1.41-5.11,2.33-7.58C1055.71,988.67,1056.72,986.24,1058.02,983.91z"/>
			</g>
			<g>
				<line class="st36" x1="1058.06" y1="999.84" x2="1059.42" y2="984.07"/>
			</g>
			<g>
				<path class="st34" d="M1061.43,984.19c0.65,2.59,1.01,5.2,1.29,7.83c0.25,2.63,0.42,5.26,0.29,7.93
					c-0.66-2.59-1.01-5.2-1.29-7.83C1061.48,989.48,1061.31,986.85,1061.43,984.19z"/>
			</g>
		</g>
		<g>
			<ellipse class="st37" cx="1136.88" cy="934.53" rx="50.98" ry="52.63"/>
		</g>
		<g>
			<path class="st38" d="M1186.91,903.53l-9-9.21c-1.19-1.23-3.19-1.23-4.46,0l-38.47,41.04l-16.65-16.94
				c-1.19-1.23-3.19-1.23-4.46,0l-7.97,8.14c-1.19,1.23-1.19,3.29,0,4.52l26.6,27.22c0.72,0.74,1.67,0.99,2.63,0.9
				c0.96,0.08,1.91-0.16,2.63-0.9l49.15-50.17C1188.1,906.82,1188.1,904.76,1186.91,903.53z"/>
		</g>
		<g>
			<path class="st34" d="M1169.23,996.16c0,0-7.33-47.25,7.5-21.64l5.92,16.1"/>
		</g>
		<g>
			<path class="st34" d="M1111.47,994.69c0,0,7.56-8.63,16-16.85c4.4-4.29,11.75-0.73,11.08,5.38l-1.67,15.16"/>
		</g>
	</g>
	<g>
		<g>
			<polygon class="st1" points="1262.79,785.51 822.68,785.89 850.7,643.02 1291.01,643.02 			"/>
		</g>
	</g>
	<g>
		<path class="st11" d="M1249.48,637.76c2.08,5.37,29.92,7.29,41.56,5.38"/>
	</g>
	<g>
		<g>
			<path class="st2" d="M923.32,770.26c-30.77,0-55.81-25.04-55.81-55.81s25.04-55.81,55.81-55.81c30.77,0,55.81,25.04,55.81,55.81
				S954.09,770.26,923.32,770.26z M923.32,667.64c-25.81,0-46.81,21-46.81,46.81s21,46.81,46.81,46.81c25.81,0,46.81-21,46.81-46.81
				S949.13,667.64,923.32,667.64z"/>
		</g>
		<g>
			<path class="st3" d="M923.32,770.26c-30.77,0-55.81-25.04-55.81-55.81h9c0,25.81,21,46.81,46.81,46.81
				c25.81,0,46.81-21,46.81-46.81s-21-46.81-46.81-46.81v-9c30.77,0,55.81,25.04,55.81,55.81S954.09,770.26,923.32,770.26z"/>
		</g>
		<g>
			<rect x="1021.33" y="677.14" class="st3" width="222.57" height="8.94"/>
		</g>
		<g>
			<rect x="1021.33" y="698.42" class="st3" width="222.57" height="8.94"/>
		</g>
		<g>
			<rect x="1021.33" y="719.7" class="st3" width="222.57" height="8.94"/>
		</g>
		<g>
			<rect x="1021.33" y="740.98" class="st3" width="222.57" height="8.94"/>
		</g>
	</g>
	<g>
		<path class="st3" d="M383.79,444.34c-0.67,0-1.35-0.22-1.93-0.66l-25.61-19.9l25.37-24.3c1.25-1.2,3.25-1.16,4.45,0.1
			c1.2,1.25,1.16,3.24-0.1,4.45l-20.11,19.26l19.86,15.43c1.37,1.07,1.62,3.04,0.55,4.41C385.65,443.92,384.72,444.34,383.79,444.34
			z"/>
	</g>
	<g>
		<path class="st3" d="M437.91,444.34c-0.94,0-1.87-0.42-2.48-1.22c-1.07-1.37-0.82-3.35,0.55-4.41l19.86-15.43l-20.11-19.26
			c-1.25-1.2-1.3-3.19-0.1-4.45c1.2-1.25,3.19-1.3,4.45-0.1l25.37,24.3l-25.61,19.9C439.26,444.12,438.58,444.34,437.91,444.34z"/>
	</g>
	<g>
		<path class="st3" d="M398.83,445.92c-0.54,0-1.08-0.14-1.58-0.43c-1.5-0.88-2-2.8-1.13-4.3l24.77-42.38
			c0.88-1.5,2.8-2.01,4.3-1.13c1.5,0.88,2,2.8,1.13,4.3l-24.77,42.38C400.96,445.37,399.91,445.92,398.83,445.92z"/>
	</g>
	<g>
		<path class="st10" d="M1245.21,777.29c4.1,1.06,14.07,5.69,17.58,8.21c4.78-1.05,6.64-5.23,11.59-6.04
			c0.96-0.16,1.93-0.28,2.89-0.4c-7.24-4.66-22.71-12.81-32.65-4.93C1243.44,775.05,1243.77,776.9,1245.21,777.29z"/>
	</g>
	<g>
		<g>
			<g>
				<g>
					<path class="st0" d="M1194.12,385.09c-29.87,2.17-53.51,27.09-54.1,57.04c-0.66,33.54,26.78,60.49,59.95,59.61
						c32.24-0.85,57.7-27.69,56.84-59.93C1255.94,408.64,1227.58,382.66,1194.12,385.09z M1201.35,470.47
						c-16.78,1.76-31.05-11.78-30.17-28.62c0.7-13.24,11.12-24.23,24.31-25.63c16.76-1.77,31.04,11.76,30.17,28.61
						C1224.98,458.09,1214.55,469.09,1201.35,470.47z"/>
				</g>
			</g>
			<g>
				<g>
					<path class="st0" d="M1208.17,387.08l-22.45,0.59l0.56-10.87c0.15-2.86,2.47-5.12,5.33-5.19l9.84-0.26
						c2.86-0.08,5.3,2.06,5.59,4.91L1208.17,387.08z"/>
				</g>
			</g>
			<g>
				<g>
					<path class="st0" d="M1165.64,395.78l-15.46,16.3l-7.29-8.08c-1.92-2.12-1.88-5.36,0.09-7.44l6.77-7.14
						c1.97-2.08,5.2-2.29,7.43-0.49L1165.64,395.78z"/>
				</g>
			</g>
			<g>
				<g>
					<path class="st0" d="M1141.7,432l0.59,22.45l-10.87-0.56c-2.86-0.15-5.12-2.47-5.19-5.33l-0.26-9.84
						c-0.08-2.86,2.06-5.3,4.91-5.59L1141.7,432z"/>
				</g>
			</g>
			<g>
				<g>
					<path class="st0" d="M1150.4,474.54l16.3,15.46l-8.08,7.29c-2.12,1.92-5.36,1.87-7.44-0.09l-7.14-6.77
						c-2.08-1.97-2.29-5.2-0.49-7.43L1150.4,474.54z"/>
				</g>
			</g>
			<g>
				<g>
					<path class="st0" d="M1186.62,498.47l22.45-0.59l-0.56,10.87c-0.15,2.86-2.47,5.12-5.33,5.19l-9.84,0.26
						c-2.86,0.08-5.3-2.06-5.59-4.91L1186.62,498.47z"/>
				</g>
			</g>
			<g>
				<g>
					<path class="st0" d="M1229.16,489.78l15.46-16.3l7.29,8.08c1.92,2.12,1.88,5.36-0.09,7.44l-6.77,7.14
						c-1.97,2.08-5.2,2.29-7.43,0.49L1229.16,489.78z"/>
				</g>
			</g>
			<g>
				<g>
					<path class="st0" d="M1253.09,453.55l-0.59-22.45l10.87,0.56c2.86,0.15,5.12,2.47,5.19,5.33l0.26,9.84
						c0.08,2.86-2.06,5.3-4.91,5.59L1253.09,453.55z"/>
				</g>
			</g>
			<g>
				<g>
					<path class="st0" d="M1244.4,411.02l-16.3-15.46l8.08-7.29c2.12-1.92,5.36-1.88,7.44,0.09l7.14,6.77
						c2.08,1.97,2.29,5.2,0.49,7.43L1244.4,411.02z"/>
				</g>
			</g>
		</g>
		<g>
			<g>
				<path class="st0" d="M1182.49,430.77l-3.83,15.96c-0.26,1.07,0.08,2.2,0.88,2.96l11.91,11.29c0.8,0.76,1.94,1.03,3,0.72
					l15.72-4.67c1.06-0.31,1.86-1.17,2.12-2.24l3.83-15.94c0.26-1.07-0.08-2.2-0.88-2.96l-11.9-11.3c-0.8-0.76-1.94-1.03-3-0.72
					l-15.73,4.67C1183.56,428.84,1182.75,429.7,1182.49,430.77z M1191.1,442.13c0.25-2.59,2.75-5.22,5.32-5.61
					c4.34-0.65,8.05,3.13,7.18,7.55c-0.41,2.07-2.54,4.32-4.58,4.83C1194.65,450,1190.67,446.5,1191.1,442.13z"/>
			</g>
		</g>
	</g>
	<g>
		<rect x="664.76" y="387.71" class="st3" width="387" height="14.02"/>
	</g>
	<g>
		<rect x="664.76" y="421.05" class="st3" width="387" height="14.02"/>
	</g>
	<g>
		<rect x="664.76" y="451.16" class="st3" width="387" height="14.02"/>
	</g>
	<g>
		<rect x="664.76" y="487.74" class="st3" width="387" height="14.02"/>
	</g>
	<g>
		<polygon class="st10" points="1005.54,377.3 976.3,414.09 927.92,357.14 942.74,305.63 961.56,343.74 982.04,359.36 
			989.81,365.29 		"/>
	</g>
	<g>
		<path class="st39" d="M1022.16,293.39c0,0,6.5,50.99-6.74,59.78l-8.14-12.96l1.19-25.46L1022.16,293.39z"/>
	</g>
	<g>
		<path class="st10" d="M1162.62,394.25c-8.78,3.89-38.47-18.01-38.47-18.01l-11.72-5.61c-10.7-3.54-21.47-7.43-22.19-8.18
			c-0.9-0.92-46.03-22.05-61.95-29.5c-3.42-1.6-5.49-2.56-5.49-2.56l-3.21-2.93l-18.07-16.47l16.62-15.84c0,0,3.93,2.47,10.11,6.35
			c2.06,1.3,4.38,2.75,6.88,4.31l0,0.01c24.8,15.53,68.18,42.6,70.12,42.95c0,0,6.18,3.7,12.81,6.72l-0.01,0.02l15.03,6.56
			l29.21,8.41c10.91,6.07-16.84,3.95-16.84,3.95c7.38,8.99,23.26,10.15,23.26,10.15c15.85-1.92,15.08,3.06,15.08,3.06
			C1190.72,392.34,1162.62,394.25,1162.62,394.25z"/>
	</g>
	<g>
		<path class="st40" d="M505.34,124.71l-20.77,25.59C484.57,150.3,490.02,124.9,505.34,124.71"/>
	</g>
	<g>
		<g>
			<path class="st10" d="M507.41,126.44l23.82,40.01l-68.38-33.53c0,0-7.25-10.57,1.06-19.72l14.59-8.04"/>
		</g>
		<g>
			<path class="st41" d="M462.85,132.92l-15.37-6.48l23.42-77.7l16.1,47.43c0.71,2.08,0.34,4.38-0.99,6.13L462.85,132.92z"/>
		</g>
		<g>
			<polyline class="st0" points="447.49,126.44 437.91,124.62 464.32,46.77 470.91,48.74 			"/>
		</g>
		<g>
			<g>
				<line class="st16" x1="478.61" y1="71.44" x2="471.68" y2="82.04"/>
			</g>
			<g>
				<path class="st16" d="M480.34,70.94c-0.03-0.53-0.19-1.03-0.47-1.41c-0.66-0.88-1.76-0.74-2.44,0.32l-6.93,10.6
					c-0.69,1.05-0.71,2.62-0.05,3.5c0.66,0.88,1.76,0.74,2.44-0.32l6.93-10.6C480.21,72.42,480.38,71.65,480.34,70.94z"/>
			</g>
		</g>
		<g>
			<g>
				<line class="st16" x1="481.13" y1="76.08" x2="474.2" y2="86.69"/>
			</g>
			<g>
				<path class="st16" d="M482.85,75.58c-0.03-0.53-0.19-1.03-0.47-1.41c-0.66-0.88-1.76-0.74-2.44,0.32L473,85.09
					c-0.69,1.05-0.71,2.62-0.05,3.5c0.66,0.88,1.76,0.74,2.44-0.32l6.93-10.6C482.72,77.07,482.9,76.3,482.85,75.58z"/>
			</g>
		</g>
		<g>
			<g>
				<line class="st16" x1="483.65" y1="80.73" x2="476.72" y2="91.33"/>
			</g>
			<g>
				<path class="st16" d="M485.37,80.23c-0.03-0.53-0.19-1.03-0.47-1.41c-0.66-0.88-1.76-0.74-2.44,0.32l-6.93,10.6
					c-0.69,1.05-0.71,2.62-0.05,3.5c0.66,0.88,1.76,0.74,2.44-0.32l6.93-10.6C485.24,81.72,485.42,80.95,485.37,80.23z"/>
			</g>
		</g>
	</g>
	<g>
		<g>
			<path class="st10" d="M591.99,83.67l15.24,43.16l-60.39-46.4c0,0-5.01-11.8,4.94-19.11l15.89-4.99"/>
		</g>
		<g>
			<path class="st41" d="M545.82,80.93l-13.78-9.4L570.39,0l6.26,48.7c0.36,2.79-0.69,5.59-2.8,7.45L545.82,80.93z"/>
		</g>
		<g>
			<polyline class="st0" points="532.04,71.53 523.01,67.85 564.32,-3.23 570.39,0 			"/>
		</g>
		<g>
			<g>
				<line class="st16" x1="573.44" y1="23.78" x2="564.55" y2="32.8"/>
			</g>
			<g>
				<path class="st16" d="M575.23,23.63c0.07-0.53,0.02-1.05-0.19-1.47c-0.47-0.99-1.57-1.07-2.46-0.17l-8.9,9.02
					c-0.88,0.9-1.22,2.43-0.74,3.42s1.57,1.07,2.46,0.17l8.9-9.02C574.81,25.06,575.13,24.34,575.23,23.63z"/>
			</g>
		</g>
		<g>
			<g>
				<line class="st16" x1="574.99" y1="28.83" x2="566.1" y2="37.85"/>
			</g>
			<g>
				<path class="st16" d="M576.78,28.68c0.07-0.53,0.02-1.05-0.19-1.47c-0.47-0.99-1.57-1.07-2.46-0.17l-8.9,9.02
					c-0.88,0.9-1.22,2.43-0.74,3.42c0.47,0.99,1.57,1.07,2.46,0.17l8.9-9.02C576.36,30.11,576.68,29.39,576.78,28.68z"/>
			</g>
		</g>
		<g>
			<g>
				<line class="st16" x1="576.54" y1="33.88" x2="567.64" y2="42.91"/>
			</g>
			<g>
				<path class="st16" d="M578.33,33.73c0.07-0.53,0.02-1.05-0.19-1.47c-0.47-0.99-1.57-1.07-2.46-0.17l-8.9,9.02
					c-0.88,0.9-1.22,2.43-0.74,3.42c0.47,0.99,1.57,1.07,2.46,0.17l8.9-9.02C577.9,35.17,578.23,34.44,578.33,33.73z"/>
			</g>
		</g>
	</g>
	<g>
		<path class="st23" d="M919.84,288.16c0,0-269.86-204.57-329.29-206.76l-23.95,18.96c0,0,257.13,239.66,299.95,228.82
			L919.84,288.16z"/>
	</g>
	<g>
		<path class="st39" d="M904.84,272.42c0,0-94.54,34.8-82.16,87.44l37.94-21.24L904.84,272.42z"/>
	</g>
	<g>
		<polygon class="st11" points="514.87,125.33 505.34,124.71 486.3,144.42 490.58,147.47 		"/>
	</g>
	<g>
		<path class="st0" d="M904.18,273.45c0,0-335.34-160.23-398.84-148.74l-20.77,25.59c0,0,330.27,202.42,373.04,180.53L904.18,273.45
			z"/>
	</g>
	<g>
		
			<rect x="687.38" y="18.38" transform="matrix(0.4101 -0.9121 0.9121 0.4101 206.0886 757.8486)" class="st23" width="3" height="402.48"/>
	</g>
	<g>
		<path class="st41" d="M721.76,211.14"/>
	</g>
	<g>
		<polyline class="st11" points="1022.79,330.39 1021.57,297.31 1011.25,313.85 1014.15,327.75 		"/>
	</g>
	<g>
		<path class="st41" d="M1015.42,353.18l-68.79-9.44l-5.93,25.17c0,0-24.71,25.25-34.66,15.51h-0.01l-61.04-17.98l-7.21-2.13
			l-15.1-4.45l4.83-16.31c5.63-19.04,18.16-35.3,35.15-45.58l42.18-25.55l23.62,19.18l1.77,1.44l0.43,0.35c0,0,65.69-7.52,91.5,0
			c0,0-2.63,16.7-4.36,34.09C1016.89,336.63,1021.61,345.94,1015.42,353.18z"/>
	</g>
	<g>
		<path class="st11" d="M989.81,365.29l-32.88,12.6c8.79-2.5,14.98-14.98,24.08-19.32L989.81,365.29z"/>
	</g>
	<g>
		<g>
			<path class="st17" d="M1005.04,445.12l5.86-41c7.48-0.21,13.23,22.09,13.23,22.09c4.35,9.49,4.88,15.98,4.3,20.13
				c-0.35,2.53-1.13,4.2-1.71,5.13c-0.4,0.65-0.71,0.95-0.71,0.95l-0.56-0.2L1005.04,445.12z"/>
		</g>
		<g>
			<g>
				<path class="st10" d="M1018.71,392.73c-1.07-23.09-4.43-29.11-24.14-32.44s-34.81,12.68-33.74,35.77
					c1.07,23.09,17.91,44.5,37.61,47.84S1019.78,415.82,1018.71,392.73z"/>
			</g>
			<g>
				<path class="st17" d="M929.38,463.9c3.45-8.3,16.85-10.63,24.53-7.43s6.74,10.7,3.29,19.01c-3.45,8.3-12.48,12.45-20.17,9.25
					C929.35,481.52,925.92,472.2,929.38,463.9z"/>
			</g>
			<g>
				<path class="st17" d="M935.86,488.3c-0.99,0-2.01-0.22-3.09-0.67c-8.09-3.37-16.55-18-13.14-26.19l0,0
					c3.36-8.08,16.71-10.96,24.86-7.57c8.76,3.65,6.15,12.78,3.43,19.34l-0.16,0.38c-1.72,4.13-3.49,8.4-5.81,11.27
					C940.09,487.16,938.08,488.3,935.86,488.3z M920.09,461.63c-3.32,7.97,4.96,22.24,12.87,25.53c3.31,1.38,6.04,0.54,8.59-2.62
					c2.27-2.82,4.03-7.05,5.73-11.15l0.16-0.38c4.2-10.1,3.2-16.03-3.15-18.67C936.34,451.03,923.35,453.8,920.09,461.63
					L920.09,461.63z"/>
			</g>
			<g>
				<path class="st17" d="M916.56,371.04c0,0-1.14,98.41,51.51,101.84c0,0,50.77-2.49,63.29-15.41c0,0-0.1-0.09-0.29-0.26
					c0.38-0.22,0.75-0.44,1.11-0.66c0.57-0.94,1.35-2.6,1.71-5.13c-3.8-3.39-11.99-10.57-21.04-17.68
					c-11.09-8.71-23.46-17.32-30.6-18.71c0,0-20.31,0.9-6.66-21.45c0,0,26.34-36.2-3.76-24.75c0,0-36.53,7.13-48.01-1.09
					c0,0-0.03,2.31,0.1,6.22C920.98,373.31,918.44,372.37,916.56,371.04z"/>
			</g>
			<g>
				
					<ellipse transform="matrix(0.568 -0.823 0.823 0.568 110.3286 994.3063)" class="st11" cx="1002.37" cy="392.05" rx="8.03" ry="9.85"/>
			</g>
			<g>
				<path class="st11" d="M1019.02,409.77l4.35-11.59c0,0-4.89-12.47-9.69-11.31L1019.02,409.77z"/>
			</g>
			<g>
				<path class="st17" d="M1024.47,468.95c-5.48,0-11.86-3.28-17.28-6.06c-1.6-0.82-3.11-1.59-4.51-2.25l0.41-0.88
					c1.42,0.66,2.94,1.44,4.54,2.26c7.26,3.73,16.29,8.36,22.05,4.49c5.49-3.69,7.46-14.85,5.86-33.17l0.97-0.08
					c1.66,18.96-0.4,30.1-6.29,34.06C1028.51,468.48,1026.55,468.95,1024.47,468.95z"/>
			</g>
			<g>
				<path class="st10" d="M955.57,397.96c0.9-6.29,10.74-7.57,17.79-5.52c7.06,2.06,12.05,8.83,11.15,15.12
					c-0.9,6.29-15.96,11.4-23.01,9.34S954.67,404.25,955.57,397.96z"/>
			</g>
			<g>
				<path class="st11" d="M979.62,401.04c0,0-10.93,10.12-14.35,0.62"/>
			</g>
		</g>
	</g>
	<g>
		<path class="st39" d="M930.23,293.04c-23.76,8.98-23.5,38.01-23.5,38.01c-6.06-29.09,13.08-37.28,21.73-39.45L930.23,293.04z"/>
	</g>
	<g>
		<path class="st39" d="M872.12,364.31c0,0-18.21-1.78-27.13,2.13l-7.21-2.13C837.78,364.31,859.26,356.07,872.12,364.31z"/>
	</g>
	<g>
		<polygon class="st11" points="590.22,81.66 568.3,96.91 569.64,97.95 		"/>
	</g>
	<g>
		<path class="st23" d="M215.23,590.07l6.42-5.05c0,0-2.81,18.18-17.6,27.81l-7.93,11.72"/>
	</g>
</g>
</svg>
