<svg xmlns="http://www.w3.org/2000/svg" xmlns:xlink="http://www.w3.org/1999/xlink" viewBox="0 0 994.57 801.88"><defs><style>.cls-1,.cls-50{fill:#fff;}.cls-2,.cls-20,.cls-4{fill:#00b8c1;}.cls-3,.cls-61,.cls-8{fill:#06d6a0;}.cls-4,.cls-5,.cls-6,.cls-7,.cls-8{clip-rule:evenodd;}.cls-10,.cls-23,.cls-5{fill:#ef476f;}.cls-45,.cls-6,.cls-9{fill:#073b4c;}.cls-21,.cls-33,.cls-7{fill:#ffd166;}.cls-11{isolation:isolate;}.cls-12{fill:url(#linear-gradient);}.cls-13,.cls-24{opacity:0.4;}.cls-13,.cls-17,.cls-25,.cls-65{mix-blend-mode:multiply;}.cls-14{clip-path:url(#clip-path);}.cls-15,.cls-41{fill:#5cf7eb;}.cls-16{clip-path:url(#clip-path-2);}.cls-17,.cls-25,.cls-29,.cls-47{fill:#237284;}.cls-17,.cls-25{opacity:0.75;}.cls-18{fill:#48ffcb;}.cls-19{clip-path:url(#clip-path-3);}.cls-20,.cls-21,.cls-22,.cls-23,.cls-25,.cls-29,.cls-30,.cls-31,.cls-40,.cls-41,.cls-45,.cls-50,.cls-57,.cls-58,.cls-61,.cls-63,.cls-67{fill-rule:evenodd;}.cls-22,.cls-36{fill:#bc3159;}.cls-26{clip-path:url(#clip-path-4);}.cls-27,.cls-31{fill:#ffe1a4;}.cls-28{clip-path:url(#clip-path-5);}.cls-30,.cls-70{fill:#ba954a;}.cls-32{clip-path:url(#clip-path-6);}.cls-34,.cls-67{fill:#ff80a4;}.cls-35{clip-path:url(#clip-path-7);}.cls-37{clip-path:url(#clip-path-8);}.cls-38{clip-path:url(#clip-path-9);}.cls-39{clip-path:url(#clip-path-10);}.cls-40{fill:#0c586d;}.cls-42{clip-path:url(#clip-path-11);}.cls-43{clip-path:url(#clip-path-12);}.cls-44{clip-path:url(#clip-path-13);}.cls-46{clip-path:url(#clip-path-14);}.cls-48{clip-path:url(#clip-path-15);}.cls-49{clip-path:url(#clip-path-16);}.cls-51{clip-path:url(#clip-path-17);}.cls-52{clip-path:url(#clip-path-18);}.cls-53{clip-path:url(#clip-path-19);}.cls-54{clip-path:url(#clip-path-20);}.cls-55{clip-path:url(#clip-path-21);}.cls-56{clip-path:url(#clip-path-22);}.cls-57{fill:#042630;}.cls-58{fill:#a12a4c;}.cls-59{clip-path:url(#clip-path-23);}.cls-60{clip-path:url(#clip-path-24);}.cls-62{clip-path:url(#clip-path-25);}.cls-63{fill:#078c66;}.cls-64{clip-path:url(#clip-path-26);}.cls-65{opacity:0.5;}.cls-66{opacity:0.6;mix-blend-mode:screen;}.cls-68{clip-path:url(#clip-path-27);}.cls-69{clip-path:url(#clip-path-28);}.cls-71{clip-path:url(#clip-path-29);}.cls-72{clip-path:url(#clip-path-30);}</style><linearGradient id="linear-gradient" x1="517.89" y1="676.88" x2="517.89" y2="149.76" gradientUnits="userSpaceOnUse"><stop offset="0" stop-color="#ffe1a4"/><stop offset="1" stop-color="#5cf7eb"/></linearGradient><clipPath id="clip-path" transform="translate(-50.56 0.53)"><path class="cls-1" d="M297.29,600.36a36.12,36.12,0,0,1-36.08-36.07V200.43a36.1,36.1,0,0,1,36.08-36.08H790.42a36.09,36.09,0,0,1,36.08,36.08V564.29a36.23,36.23,0,0,1-10.6,25.52,35.8,35.8,0,0,1-25.48,10.55Z"/></clipPath><clipPath id="clip-path-2" transform="translate(-50.56 0.53)"><path class="cls-2" d="M810.83,200.43V564.29a20.43,20.43,0,0,1-20.41,20.41H297.29a20.41,20.41,0,0,1-20.41-20.41V200.43a20.09,20.09,0,0,1,1.16-6.79A20.38,20.38,0,0,1,297.29,180H790.42a20.4,20.4,0,0,1,20.41,20.41Z"/></clipPath><clipPath id="clip-path-3" transform="translate(-50.56 0.53)"><rect class="cls-3" x="613.11" y="449.68" width="172" height="73.81" rx="7.76"/></clipPath><clipPath id="clip-path-4" transform="translate(-50.56 0.53)"><path class="cls-7" d="M583.41,146a56.17,56.17,0,1,1-56.17,56.16A56.19,56.19,0,0,1,583.41,146Z"/></clipPath><clipPath id="clip-path-5" transform="translate(-50.56 0.53)"><path class="cls-7" d="M715.14,145.82A56.17,56.17,0,1,1,659,202a56.19,56.19,0,0,1,56.16-56.17Z"/></clipPath><clipPath id="clip-path-6" transform="translate(-50.56 0.53)"><rect class="cls-9" x="239.42" y="224.26" width="266.28" height="74.02" rx="13.57"/></clipPath><clipPath id="clip-path-7" transform="translate(-50.56 0.53)"><rect class="cls-10" x="293.74" y="331.87" width="125.76" height="191.62" rx="12.34"/></clipPath><clipPath id="clip-path-8" transform="translate(-50.56 0.53)"><rect class="cls-3" x="613.11" y="344.32" width="172" height="73.81" rx="7.76"/></clipPath><clipPath id="clip-path-9" transform="translate(-50.56 0.53)"><rect class="cls-3" x="445.49" y="331.87" width="129.27" height="191.62" rx="12"/></clipPath><clipPath id="clip-path-10" transform="translate(-50.56 0.53)"><path class="cls-4" d="M382.7,568.89s-2,9.25-12.09,25.94c-12.32,20.4,33.47,73,33.47,73s-28.2-16.76-96.42-14.64c-19.42.61-14.19,16.35-5,19.27s113.87,30.18,133.48,21.34-1.09-72.14-6.75-95.73-46.7-29.23-46.7-29.23Z"/></clipPath><clipPath id="clip-path-11" transform="translate(-50.56 0.53)"><path class="cls-5" d="M301.1,651.59A27.45,27.45,0,0,0,286,673.32c-1.74,16-3,27.28,4.8,31s26,5,32.7.32-15.87-11.34-15.87-11.34a76.67,76.67,0,0,1,3.14-18.58c.54-1.77-7.06-13.24,3.12-21.65,3.92-3.23-12.76-1.51-12.76-1.51Z"/></clipPath><clipPath id="clip-path-12" transform="translate(-50.56 0.53)"><path class="cls-4" d="M402.28,585s100.61-22.39,125.63-29c0,0,17.46,4.4,25.15,12.88s-33.88,94.25-38.21,101.85c0,0-6.13,20.66-15.11,21.65s-8.91-12-5.23-24.08c16-52.21,27-77.48,27-77.48s-54.35,58.85-92.63,52.8S398.73,590.63,402.28,585Z"/></clipPath><clipPath id="clip-path-13" transform="translate(-50.56 0.53)"><path class="cls-5" d="M488.81,684.31s-1.31-10.37,3.89-8.39c10.48,4,16.42-11.61,22.15-5.26,19.24,21.27,36.83,10.83,40.55,19s5.38,10.7-23.13,10.4-50.31,1.58-43.46-15.79Z"/></clipPath><clipPath id="clip-path-14" transform="translate(-50.56 0.53)"><path class="cls-6" d="M369.58,595.66s-12.16-28.23,18-98.79c9.18-21.44,24.73-45.42,38.18-51.9s30,9.77,36.43,21.75,3.89,30.44-4.18,50.2c-18,44.1-2.43,39.87,1.48,56.29,0,0-7.92,22.31-20.72,30.32-24.15,15.11-61.81,17.58-69.23-7.87Z"/></clipPath><clipPath id="clip-path-15" transform="translate(-50.56 0.53)"><path class="cls-5" d="M427.22,405s5,24.87-3,39.55c0,0,12.46,9.88,22.36,4.39,0,0-1.7-15.27,3.64-26.33s-23-17.61-23-17.61Z"/></clipPath><clipPath id="clip-path-16" transform="translate(-50.56 0.53)"><path class="cls-5" d="M444.07,354.77s14,8.35,19,23.33c4.74,14.06,3.56,31.09,1.73,45.72-1.28,10.25-13.12,7.81-31.72-2.79-21.5-12.27-27.49-38.39-17.37-56.76s22-11.49,28.34-9.5Z"/></clipPath><clipPath id="clip-path-17" transform="translate(-50.56 0.53)"><path class="cls-7" d="M439.72,409.91a9.53,9.53,0,0,1-8.87,12.42,17.7,17.7,0,0,1-7.74-1.52c-9.4-4.31-21.93-19.39-18.8-34.07s4.51-11.95,4.51-11.95-3.72-15.13,8.81-22.93,35.44-1.94,46.6-5.66c10.67-3.55,9.14,22.13-4.22,25.13,0,0-11.25-6.52-15.95-.65s6.81,29,6.81,29-8.56-10-12.19-4.11C436.82,398.57,438.07,404.69,439.72,409.91Z"/></clipPath><clipPath id="clip-path-18" transform="translate(-50.56 0.53)"><path class="cls-5" d="M518.92,524S469,465.13,451.47,469.64s-19.75,32.85-7.42,40.74,62,33.68,71.91,34.18c0,0,16.08,5.71,25.55-18.08,4.33-10.88,39.64-77.24,34.21-81.66s-54.85,66-56.8,79.13Z"/></clipPath><clipPath id="clip-path-19" transform="translate(-50.56 0.53)"><path class="cls-6" d="M438.9,469.89s-20.55,32,7.36,48.12,38.53,19.79,38.53,19.79S490,512.32,498.87,503c0,0-34.53-57.09-60-33.08Z"/></clipPath><clipPath id="clip-path-20" transform="translate(-50.56 0.53)"><path class="cls-7" d="M730.35,351.56,720.29,370s49.29,36.11,65.35,37.5,5-30.3-1.51-36.84-53.78-19.06-53.78-19.06Z"/></clipPath><clipPath id="clip-path-21" transform="translate(-50.56 0.53)"><path class="cls-5" d="M823.61,479.15l-12.45,8.3S826.6,576.72,831.31,595s31.4,101.52,31.4,101.52l13,.81s-10-83-11.72-100.92-8.26-63.85-7.07-74.67,2.49-22.62-11.11-33.17-22.22-9.45-22.22-9.45Z"/></clipPath><clipPath id="clip-path-22" transform="translate(-50.56 0.53)"><path class="cls-5" d="M784.28,514.51s-21.42,66.52-25,86.16-22.38,108.09-22.38,108.09L750,714s28.08-71.77,35.75-97.45c0,0,39.15-69.59,42.25-97.6s-6.85-26.42-6.85-26.42l-36.87,22Z"/></clipPath><clipPath id="clip-path-23" transform="translate(-50.56 0.53)"><path class="cls-7" d="M774.92,536.29s-10.69-27.44-8.14-64.09S749.41,424,762,397.63s35-25.1,37-22.22,18.23,15.73,26.84,41.67,11.43,40.1,20.31,58.64,7.72,21.74,7.72,21.74-10.48-4.76-30.89,6.72-48.12,32.11-48.12,32.11Z"/></clipPath><clipPath id="clip-path-24" transform="translate(-50.56 0.53)"><path class="cls-7" d="M687.58,428.49l35.08,13.93s31.12-36.38,53.06-40.37,27.51,19.6,19.44,33.76-62.39,40.9-70.28,43-50.38-30.4-50.38-30.4l13.08-19.93Z"/></clipPath><clipPath id="clip-path-25" transform="translate(-50.56 0.53)"><path class="cls-8" d="M122,355.84s-16,20.28-10.16,39.4,1,12.12.7,61.95,1.4,135.31,1.4,135.31-5.82,12.2,3.57,15.49,15,.81,17.88-10.43,4.27-54,7.22-74.53,4-31.39,4-31.39l9.82-60.83s3.74,47.28,13.85,89.61c3.32,13.86.7,80,6.86,88.5s15.83,7.77,16.25,1.57,5-128.07,5-128.74c-.48-43.8-12.56-108-17.76-118.54S122,355.84,122,355.84Z"/></clipPath><clipPath id="clip-path-26" transform="translate(-50.56 0.53)"><path class="cls-5" d="M154.8,214.8s-28.15,9.13-40.7,43.92c-8.14,22.58,4,34.63,4.19,63.45s-7.43,23.72-8.25,38,3.68,18.45,8.93,22.9,65,1.93,70.68-1.93c0,0-15.62-22.57-3.08-56.25s6.23-72.18,1.53-86-21-23.6-33.3-24.14Z"/></clipPath><clipPath id="clip-path-27" transform="translate(-50.56 0.53)"><path class="cls-7" d="M158.39,178.41s-12.87,44.45-12.63,44.81c6.32,9.6,22.36,9.75,25.52,6,0,0-8.59-9.42.87-21.17,0,0-.17-26.84-13.76-29.67Z"/></clipPath><clipPath id="clip-path-28" transform="translate(-50.56 0.53)"><path class="cls-7" d="M155.46,141s-13.32,35.22,3.54,59.27,19.8,13.13,29.78,3.32,10.65-23.44,10.45-26.62,6.77-12,4.67-23.71S183.68,124.69,155.46,141Z"/></clipPath><clipPath id="clip-path-29" transform="translate(-50.56 0.53)"><path class="cls-7" d="M150.28,249.81s39.77,31.43,48.06,58.82c0,0,58.79-1.1,82.48-9,6.13-2,10.81,5.76,6,10.06l-.2.17c-6.66,5.7-88.6,27.42-88.6,27.42s-50-32-58-57.17,7.11-29.27,10.32-30.28Z"/></clipPath><clipPath id="clip-path-30" transform="translate(-50.56 0.53)"><path class="cls-5" d="M140.7,247s-12.45,5.14-7.46,28.12c5,22.77,17.59,32.13,17.59,32.13s11.74-31.06,26.69-35.24c0,0-2.83-6-15.7-18s-16.79-7.74-21.12-7Z"/></clipPath></defs><g class="cls-11"><g id="Illustration"><path id="Background" class="cls-12" d="M109.33,669.78H925.14c19.18,0,35.42-19.75,35.42-44.6,0-68.65-25.46-105-73.18-178.07-73.26-112.19,60.28-235.33-52.58-325.89C736.59,42.41,554,160.48,441,110.68,276.1,38,196.72,61,167.56,174.28,137.47,291.15,176,359.48,164,447.11,146.17,576.7,75.21,528.29,75.21,632.89,75.21,654.47,92.57,669.78,109.33,669.78Z" transform="translate(-50.56 0.53)"/><g id="Web"><g class="cls-13"><path class="cls-2" d="M287.63,620.46c-20.67,0-37.49-16.2-37.49-36.1V220.21a34.76,34.76,0,0,1,2.14-12c5.24-14.37,19.45-24.06,35.35-24.06H800.08c15.89,0,30.1,9.69,35.37,24.12a34.71,34.71,0,0,1,2.12,12V584.36a35.61,35.61,0,0,1-11,25.54,38,38,0,0,1-26.48,10.56Z" transform="translate(-50.56 0.53)"/></g><path class="cls-1" d="M297.29,600.36a36.12,36.12,0,0,1-36.08-36.07V200.43a36.1,36.1,0,0,1,36.08-36.08H790.42a36.09,36.09,0,0,1,36.08,36.08V564.29a36.23,36.23,0,0,1-10.6,25.52,35.8,35.8,0,0,1-25.48,10.55Z" transform="translate(-50.56 0.53)"/><g class="cls-14"><polygon class="cls-15" points="700.18 561.9 686.02 583.05 672.76 617.75 716.89 615.16 723.94 578.18 700.18 561.9"/></g><path class="cls-2" d="M810.83,200.43V564.29a20.43,20.43,0,0,1-20.41,20.41H297.29a20.41,20.41,0,0,1-20.41-20.41V200.43a20.09,20.09,0,0,1,1.16-6.79A20.38,20.38,0,0,1,297.29,180H790.42a20.4,20.4,0,0,1,20.41,20.41Z" transform="translate(-50.56 0.53)"/><g class="cls-16"><rect class="cls-17" x="554.43" y="447.54" width="181.4" height="83.21" rx="12.46"/><rect class="cls-18" x="557.85" y="445.5" width="181.4" height="83.21" rx="12.46"/><rect class="cls-3" x="562.55" y="450.2" width="172" height="73.81" rx="7.76"/><g class="cls-19"><path class="cls-20" d="M607.16,523.27l.46,0,176.17,7,9.44-24.5,4-10.35S781.66,484.53,764,478.35a71.19,71.19,0,0,0-17.31-4c-26.29-2.26-37.21,11.2-61.57,10.76,1.77,4.12,3.34,8.69,5.28,12.61-7.5,4.84-15.93,12.11-27.43,11.86-3.87-.1-7.64-2.4-11.37-5.92,5.73-5.63,8.93-17.89,13.83-25-6.81-5.61-9.95-13-20.32-14.24-6.44-.76-12.89,3-18.37,8a81.22,81.22,0,0,0-11.08,12.7c-2.52,3.51-4,6.05-4,6.05l-4.28,30.59Zm106.62-25c4.9-6.76,10.12-15,21-15.72,4-.27,9.71,1.11,16.32,3.43-6.91,7.36-9.18,16.79-19.75,17A32.23,32.23,0,0,1,713.78,498.22Z" transform="translate(-50.56 0.53)"/><path class="cls-21" d="M604.11,486.08c0,11.93,1.8,26,3.27,35.67.08.54.16,1,.24,1.54.72,4.65,1.33,8.05,1.58,9.37.06.39.11.59.11.59l13.11.08,175.2,1,2.44-24.78,2.32-23.53S782,473.85,764,478.35a10.72,10.72,0,0,0-1.08.28,25.07,25.07,0,0,0-11.85,7.3c-6.91,7.36-9.18,16.79-19.75,17a32.23,32.23,0,0,1-17.53-4.69c-4.56-2.53-8.24-5.09-13.46-4.68-3.26.25-6.5,2-9.93,4.17-7.5,4.84-15.93,12.11-27.43,11.86-3.87-.1-7.64-2.4-11.37-5.92-8.34-7.9-16.43-22-24.86-31.24-4.44-4.86-9-8.4-13.66-9C606.16,462.46,604.07,473,604.11,486.08Z" transform="translate(-50.56 0.53)"/><path class="cls-22" d="M713.78,498.22a32.23,32.23,0,0,0,17.53,4.69c10.57-.19,12.84-9.62,19.75-17-6.61-2.32-12.34-3.7-16.32-3.43C723.9,483.2,718.68,491.46,713.78,498.22Z" transform="translate(-50.56 0.53)"/><path class="cls-22" d="M651.59,503.65c3.73,3.52,7.5,5.82,11.37,5.92,11.5.25,19.93-7,27.43-11.86-1.94-3.92-3.51-8.49-5.28-12.61l-.61,0c-9.38-.26-14.91-3-19.08-6.44C660.52,485.76,657.32,498,651.59,503.65Z" transform="translate(-50.56 0.53)"/><path class="cls-23" d="M684.5,485.08l.61,0c-2.63-6.21-5.67-11.41-11-11.81-3.62-.29-6.37,1.94-8.74,5.35C669.59,482.07,675.12,484.82,684.5,485.08Z" transform="translate(-50.56 0.53)"/><path class="cls-23" d="M596.34,532l12.86.65,13.22.67,181,9.13,9.78-25.23s-5.27-3.18-13.15-7.63c-2.1-1.18-4.4-2.45-6.83-3.78-12.67-6.92-29.1-15.27-42.17-19.89-6.91,7.36-9.18,16.79-19.75,17a32.23,32.23,0,0,1-17.53-4.69c-3.51,4.89-6.88,9-12,9-5.35,0-8.69-4.15-11.34-9.51-7.5,4.84-15.93,12.11-27.43,11.86-3.87-.1-7.64-2.4-11.37-5.92a9.33,9.33,0,0,1-6.49,3c-11.92.12-17.35-17.5-29.45-21.5a16.36,16.36,0,0,0-7.38-.61,9.94,9.94,0,0,0-4.16,1.58C591.54,494.54,596.34,532,596.34,532Z" transform="translate(-50.56 0.53)"/></g><g class="cls-24"><path class="cls-15" d="M332.74,801.36l-71.29-53.05c33.85-45.5,65.77-59.94,91.42-71.55,21.27-9.62,36.64-16.58,56.77-43.64s22.38-43.77,25.49-66.91c3.75-27.9,8.42-62.63,42.28-108.12s65.77-59.94,91.42-71.55c21.27-9.62,36.63-16.58,56.77-43.63S648,299.13,651.09,276c3.74-27.9,8.41-62.63,42.26-108.12s65.78-59.94,91.43-71.55C806,86.71,821.41,79.76,841.54,52.7l71.3,53.05c-33.86,45.49-65.78,59.94-91.43,71.54-21.27,9.63-36.63,16.58-56.76,43.64s-22.38,43.77-25.49,66.9c-3.75,27.91-8.42,62.63-42.27,108.12s-65.78,59.94-91.42,71.55c-21.27,9.62-36.64,16.58-56.77,43.63s-22.38,43.78-25.49,66.92c-3.75,27.9-8.42,62.63-42.27,108.12s-65.78,60-91.43,71.55C368.24,767.35,352.87,774.3,332.74,801.36Z" transform="translate(-50.56 0.53)"/></g><g class="cls-24"><path class="cls-15" d="M196.78,708.35,179,695.08c28.71-38.58,54-50,78.43-61.08,22.88-10.35,44.48-20.13,69.77-54.1s28.43-57.48,31.78-82.37c3.57-26.59,7.27-54.09,36-92.67s54-50,78.43-61.08c22.87-10.35,44.48-20.13,69.76-54.1s28.44-57.48,31.78-82.36c3.57-26.59,7.27-54.09,36-92.67s54-50,78.43-61.07c22.88-10.36,44.49-20.13,69.77-54.11l17.82,13.27c-28.71,38.58-54,50-78.43,61.08C675.57,84.17,654,94,628.69,127.92s-28.44,57.47-31.78,82.36c-3.57,26.59-7.27,54.08-36,92.66S507,353,482.51,364c-22.88,10.35-44.49,20.13-69.77,54.1S384.3,475.6,381,500.49c-3.58,26.59-7.27,54.09-36,92.67s-54,50-78.43,61.08C243.67,664.59,222.06,674.37,196.78,708.35Z" transform="translate(-50.56 0.53)"/></g><rect class="cls-17" x="398.56" y="332.33" width="135.16" height="201.02" rx="17.04"/><rect class="cls-17" x="243.67" y="331.55" width="135.16" height="201.02" rx="17.04"/><rect class="cls-17" x="554.43" y="342.97" width="181.4" height="83.21" rx="12.46"/><path class="cls-17" d="M198,226.59H437.15a18.27,18.27,0,0,1,18.27,18.27v46.89A18.27,18.27,0,0,1,437.15,310H198a18.26,18.26,0,0,1-18.26-18.26V244.86A18.26,18.26,0,0,1,198,226.59Z"/><path class="cls-17" d="M638.3,407.51s41,89.12,49.65,95.78,41.51,3.52,45.43,8.22,5.88,40,5.48,49.35-12.14,37.59-12.14,37.59h38l20.4-78.32-13.7-65-72.3,27Z" transform="translate(-50.56 0.53)"/><path class="cls-25" d="M578.6,145.82A59.62,59.62,0,1,1,519,205.43a59.65,59.65,0,0,1,59.61-59.61Z" transform="translate(-50.56 0.53)"/><path class="cls-25" d="M711,145.82a59.62,59.62,0,1,1-59.62,59.61A59.64,59.64,0,0,1,711,145.82Z" transform="translate(-50.56 0.53)"/></g><path class="cls-21" d="M583.41,146a56.17,56.17,0,1,1-56.17,56.16A56.19,56.19,0,0,1,583.41,146Z" transform="translate(-50.56 0.53)"/><g class="cls-26"><path class="cls-27" d="M625.48,202.11h-14a27.73,27.73,0,0,0-5.88-17.18l11.07-8.62A41.68,41.68,0,0,1,625.48,202.11Z" transform="translate(-50.56 0.53)"/><path class="cls-2" d="M583.41,244.18v-14a28.07,28.07,0,0,0,28-28h14A42.11,42.11,0,0,1,583.41,244.18Z" transform="translate(-50.56 0.53)"/><path class="cls-9" d="M583.41,244.18a41.8,41.8,0,0,1-24.36-7.77L567.18,225a27.88,27.88,0,0,0,16.23,5.17Z" transform="translate(-50.56 0.53)"/><path class="cls-2" d="M559.05,236.41a42.07,42.07,0,1,1,57.59-60.09l-11.07,8.6A28,28,0,1,0,567.18,225Z" transform="translate(-50.56 0.53)"/><path class="cls-10" d="M583.41,244.18v-14a28.07,28.07,0,0,0,28-28h14A42.11,42.11,0,0,1,583.41,244.18Z" transform="translate(-50.56 0.53)"/></g><path class="cls-21" d="M715.14,145.82A56.17,56.17,0,1,1,659,202a56.19,56.19,0,0,1,56.16-56.17Z" transform="translate(-50.56 0.53)"/><g class="cls-28"><path class="cls-20" d="M756.47,202a41.29,41.29,0,0,1-21.31,36.15,40.53,40.53,0,0,1-13.37,4.63,39.44,39.44,0,0,1-6.65.55,40.75,40.75,0,0,1-17-3.69A41.33,41.33,0,1,1,756.47,202Z" transform="translate(-50.56 0.53)"/><path class="cls-23" d="M753.94,187.73,715.14,202l23.22-34.18A41.47,41.47,0,0,1,753.94,187.73Z" transform="translate(-50.56 0.53)"/><path class="cls-29" d="M756.47,202a41.29,41.29,0,0,1-21.31,36.15l-20-36.15,38.8-14.25A41.36,41.36,0,0,1,756.47,202Z" transform="translate(-50.56 0.53)"/><path class="cls-30" d="M735.16,238.13a40.53,40.53,0,0,1-13.37,4.63L715.14,202Z" transform="translate(-50.56 0.53)"/><path class="cls-31" d="M721.79,242.76a39.44,39.44,0,0,1-6.65.55,40.75,40.75,0,0,1-17-3.69l17-37.64Z" transform="translate(-50.56 0.53)"/></g><path class="cls-15" d="M202.42,220.09H441.56a18.27,18.27,0,0,1,18.27,18.27v46.89a18.27,18.27,0,0,1-18.27,18.27H202.42a18.26,18.26,0,0,1-18.26-18.26V238.35A18.27,18.27,0,0,1,202.42,220.09Z"/><rect class="cls-9" x="188.85" y="224.79" width="266.28" height="74.02" rx="13.57"/><g class="cls-32"><circle class="cls-2" cx="224.47" cy="261.8" r="22.71"/><rect class="cls-33" x="262.59" y="240.56" width="169.58" height="21.02" rx="10.51"/><rect class="cls-2" x="262.59" y="273.92" width="169.58" height="7.55" rx="3.78"/></g><g id="Web_Element" data-name="Web Element"><rect class="cls-34" x="238.47" y="327.7" width="135.16" height="201.02" rx="17.04"/><rect class="cls-10" x="243.17" y="332.4" width="125.76" height="191.62" rx="12.34"/><g class="cls-35"><rect class="cls-36" x="252.08" y="352.09" width="108.87" height="3.3" rx="1.65"/><rect class="cls-36" x="252.08" y="362.14" width="108.87" height="3.3" rx="1.65"/><rect class="cls-36" x="252.08" y="372.2" width="108.87" height="3.3" rx="1.65"/><rect class="cls-36" x="252.08" y="382.26" width="108.87" height="3.3" rx="1.65"/><rect class="cls-36" x="252.08" y="392.32" width="108.87" height="3.3" rx="1.65"/><rect class="cls-9" x="253.39" y="446.76" width="106.52" height="61.36" rx="7.7"/><circle class="cls-34" cx="265.66" cy="420.81" r="12.73"/><circle class="cls-34" cx="306.05" cy="420.81" r="12.73"/><circle class="cls-34" cx="346.45" cy="420.81" r="12.73"/></g></g><rect class="cls-18" x="557.85" y="340.15" width="181.4" height="83.21" rx="12.46"/><rect class="cls-3" x="562.55" y="344.85" width="172" height="73.81" rx="7.76"/><g class="cls-37"><path class="cls-20" d="M790.84,416.4l-4.28-30.6s-1.47-2.53-4-6a80.8,80.8,0,0,0-11.08-12.71c-5.48-5-11.93-8.77-18.37-8-10.37,1.22-13.5,8.63-20.32,14.24,4.9,7.11,8.1,19.38,13.83,25-3.73,3.52-7.5,5.83-11.37,5.92-11.5.25-19.93-7-27.43-11.86,1.94-3.91,3.51-8.49,5.28-12.61-24.36.44-35.28-13-61.57-10.76a71.65,71.65,0,0,0-17.31,4C616.56,379.18,601,390.11,601,390.11l4,10.36,9.44,24.5,176.18-7h.45ZM666.91,397.55c-10.57-.18-12.84-9.62-19.75-17,6.61-2.32,12.34-3.7,16.32-3.43,10.84.71,16.06,9,21,15.73A32.32,32.32,0,0,1,666.91,397.55Z" transform="translate(-50.56 0.53)"/><path class="cls-21" d="M794.11,380.73c0,11.92-1.8,26-3.27,35.67-.08.53-.16,1.05-.23,1.53-.72,4.66-1.34,8.06-1.59,9.37-.06.39-.11.6-.11.6L775.8,428l-175.2,1-2.44-24.78-2.32-23.53s20.38-12.22,38.39-7.72c.36.08.72.17,1.09.28a25.24,25.24,0,0,1,11.84,7.3c6.91,7.36,9.18,16.8,19.75,17a32.32,32.32,0,0,0,17.53-4.68c4.56-2.54,8.24-5.09,13.46-4.68,3.26.25,6.5,1.95,9.93,4.16,7.5,4.84,15.93,12.11,27.43,11.86,3.87-.09,7.64-2.4,11.37-5.92,8.34-7.9,16.44-22,24.86-31.24,4.44-4.85,9-8.39,13.66-9C792.06,357.11,794.15,367.6,794.11,380.73Z" transform="translate(-50.56 0.53)"/><path class="cls-22" d="M684.44,392.87a32.32,32.32,0,0,1-17.53,4.68c-10.57-.18-12.84-9.62-19.75-17,6.61-2.32,12.34-3.7,16.32-3.43C674.32,377.85,679.54,386.1,684.44,392.87Z" transform="translate(-50.56 0.53)"/><path class="cls-22" d="M746.63,398.29c-3.73,3.52-7.5,5.83-11.37,5.92-11.5.25-19.93-7-27.43-11.86,1.94-3.91,3.51-8.49,5.28-12.61h.61c9.38-.27,14.91-3,19.08-6.44C737.7,380.4,740.9,392.67,746.63,398.29Z" transform="translate(-50.56 0.53)"/><path class="cls-23" d="M713.72,379.73h-.61c2.63-6.2,5.67-11.4,10.95-11.81,3.62-.28,6.38,1.94,8.74,5.36C728.63,376.72,723.1,379.46,713.72,379.73Z" transform="translate(-50.56 0.53)"/><path class="cls-23" d="M801.88,426.66,789,427.3,775.8,428l-181,9.13L585,411.87s5.27-3.18,13.15-7.63c2.1-1.17,4.4-2.44,6.83-3.77,12.67-6.93,29.1-15.28,42.17-19.9,6.91,7.36,9.18,16.8,19.75,17a32.32,32.32,0,0,0,17.53-4.68c3.51,4.89,6.88,9,12,9,5.36,0,8.69-4.15,11.34-9.51,7.5,4.84,15.93,12.11,27.43,11.86,3.87-.09,7.64-2.4,11.37-5.92a9.25,9.25,0,0,0,6.49,3c11.92.13,17.36-17.5,29.45-21.49a16.22,16.22,0,0,1,7.38-.61,9.81,9.81,0,0,1,4.16,1.58C806.68,389.19,801.88,426.66,801.88,426.66Z" transform="translate(-50.56 0.53)"/></g></g><g id="Man"><rect class="cls-18" x="390.22" y="327.7" width="138.67" height="201.02" rx="16.7"/><rect class="cls-3" x="394.92" y="332.4" width="129.27" height="191.62" rx="12"/><g class="cls-38"><rect class="cls-18" x="407.28" y="349.15" width="104.57" height="57.28" rx="10.16"/><rect class="cls-18" x="408.43" y="417.71" width="4.51" height="63.58" rx="2.26"/><rect class="cls-18" x="420.72" y="439.16" width="4.51" height="42.14" rx="2.26"/><rect class="cls-18" x="433.01" y="426.79" width="4.51" height="54.5" rx="2.26"/><rect class="cls-18" x="445.31" y="451.16" width="4.51" height="30.14" rx="2.26"/><rect class="cls-18" x="457.6" y="438.54" width="4.51" height="42.76" rx="2.26"/><rect class="cls-18" x="469.89" y="434.75" width="4.51" height="46.54" rx="2.26"/><rect class="cls-18" x="482.18" y="434.85" width="4.51" height="46.45" rx="2.26"/><rect class="cls-18" x="494.47" y="426.53" width="4.51" height="54.77" rx="2.26"/><rect class="cls-18" x="506.76" y="417.71" width="4.51" height="63.58" rx="2.26"/></g><g id="Man_1" data-name="Man 1"><g id="Foot"><path class="cls-20" d="M382.7,568.89s-2,9.25-12.09,25.94c-12.32,20.4,33.47,73,33.47,73s-28.2-16.76-96.42-14.64c-19.42.61-14.19,16.35-5,19.27s113.87,30.18,133.48,21.34-1.09-72.14-6.75-95.73-46.7-29.23-46.7-29.23Z" transform="translate(-50.56 0.53)"/><g class="cls-39"><path class="cls-40" d="M385.43,589.84s-14,33.11,18.65,78h0l-60.42-53L362.72,577Z" transform="translate(-50.56 0.53)"/><path class="cls-41" d="M429,624.15s17.75,47.58,12,71.26,24.19-28.55,24.19-28.55L448.62,619.6Z" transform="translate(-50.56 0.53)"/></g><path class="cls-23" d="M301.1,651.59A27.45,27.45,0,0,0,286,673.32c-1.74,16-3,27.28,4.8,31s26,5,32.7.32-15.87-11.34-15.87-11.34a76.67,76.67,0,0,1,3.14-18.58c.54-1.77-7.06-13.24,3.12-21.65,3.92-3.23-12.76-1.51-12.76-1.51Z" transform="translate(-50.56 0.53)"/><g class="cls-42"><path class="cls-22" d="M299.4,645.64s-8,30.84-6.86,43.28,29.62,16.52,29.62,16.52l11.11,6-48.59,3.91-17.79-15.23,17.79-63.68Z" transform="translate(-50.56 0.53)"/></g><path class="cls-20" d="M402.28,585s100.61-22.39,125.63-29c0,0,17.46,4.4,25.15,12.88s-33.88,94.25-38.21,101.85c0,0-6.13,20.66-15.11,21.65s-8.91-12-5.23-24.08c16-52.21,27-77.48,27-77.48s-54.35,58.85-92.63,52.8S398.73,590.63,402.28,585Z" transform="translate(-50.56 0.53)"/><g class="cls-43"><path class="cls-40" d="M403.2,628.61s19.05,15.66,46.85,2.54,67.29-36.1,67.29-36.1l-42.81,64.69-63.25,5.68Z" transform="translate(-50.56 0.53)"/><path class="cls-40" d="M501.1,625.61s18.93-39,25.71-39-33.55,100.87-33.55,100.87l-10.44-3.91Z" transform="translate(-50.56 0.53)"/><path class="cls-41" d="M450.87,580.44s91.51-23.55,103-9.71,8.85,25.44,8.85,25.44l3.14-36.88-23.24-27.15Z" transform="translate(-50.56 0.53)"/></g><path class="cls-23" d="M488.81,684.31s-1.31-10.37,3.89-8.39c10.48,4,16.42-11.61,22.15-5.26,19.24,21.27,36.83,10.83,40.55,19s5.38,10.7-23.13,10.4-50.31,1.58-43.46-15.79Z" transform="translate(-50.56 0.53)"/><g class="cls-44"><path class="cls-22" d="M499.42,671.83s-10.86,16.17.49,19.83S560,693.49,560,693.49l-1.3,11-77.28-2.09.65-22.45,7.05-8.23Z" transform="translate(-50.56 0.53)"/></g></g><g id="Body"><path class="cls-45" d="M369.58,595.66s-12.16-28.23,18-98.79c9.18-21.44,24.73-45.42,38.18-51.9s30,9.77,36.43,21.75,3.89,30.44-4.18,50.2c-18,44.1-2.43,39.87,1.48,56.29,0,0-7.92,22.31-20.72,30.32-24.15,15.11-61.81,17.58-69.23-7.87Z" transform="translate(-50.56 0.53)"/><g class="cls-46"><path class="cls-47" d="M371,642.11c-9.8-58.78,6.5-117,21.9-155.56,16.65-41.66,35.9-69.91,36.1-70.19l5.16,3.55c-.75,1.1-75.3,111.34-57,221.17Z" transform="translate(-50.56 0.53)"/><path class="cls-47" d="M383.72,643.29c-1.33-109,52.45-223.74,53-224.89l5.44,2.58c-.54,1.13-53.72,114.64-52.41,222.23Z" transform="translate(-50.56 0.53)"/><path class="cls-47" d="M402.19,645.34l-5.7-.86c15.92-105.7,47.66-222.82,48-224L450,422C449.72,423.17,418.06,540,402.19,645.34Z" transform="translate(-50.56 0.53)"/><path class="cls-47" d="M414.57,647.41l-5.25-1.69c33-102.41,42.91-221.94,43-223.13l5.5.44C457.73,424.23,447.78,544.37,414.57,647.41Z" transform="translate(-50.56 0.53)"/><path class="cls-47" d="M426.91,649.4,422.2,647c50-99.22,38.2-221.19,38.08-222.41l5.24-.53C465.64,425.33,477.57,548.79,426.91,649.4Z" transform="translate(-50.56 0.53)"/></g></g><g id="Head"><path class="cls-22" d="M464.45,390.4s6,6.07,6.07,9.79-5.39,3.42-5.39,3.42Z" transform="translate(-50.56 0.53)"/><path class="cls-23" d="M427.22,405s5,24.87-3,39.55c0,0,12.46,9.88,22.36,4.39,0,0-1.7-15.27,3.64-26.33s-23-17.61-23-17.61Z" transform="translate(-50.56 0.53)"/><g class="cls-48"><path class="cls-22" d="M424.2,440.62s12.28-12.14,27.68-8.48,5.35-16.58,5.35-16.58L420.81,405Z" transform="translate(-50.56 0.53)"/></g><path class="cls-23" d="M444.07,354.77s14,8.35,19,23.33c4.74,14.06,3.56,31.09,1.73,45.72-1.28,10.25-13.12,7.81-31.72-2.79-21.5-12.27-27.49-38.39-17.37-56.76s22-11.49,28.34-9.5Z" transform="translate(-50.56 0.53)"/><g class="cls-49"><path class="cls-50" d="M468.72,407.34l-14.49-.66s8.62,12.87,13.25,13.22S468.72,407.34,468.72,407.34Z" transform="translate(-50.56 0.53)"/></g><path class="cls-21" d="M439.72,409.91a9.53,9.53,0,0,1-8.87,12.42,17.7,17.7,0,0,1-7.74-1.52c-9.4-4.31-21.93-19.39-18.8-34.07s4.51-11.95,4.51-11.95-3.72-15.13,8.81-22.93,35.44-1.94,46.6-5.66c10.67-3.55,9.14,22.13-4.22,25.13,0,0-11.25-6.52-15.95-.65s6.81,29,6.81,29-8.56-10-12.19-4.11C436.82,398.57,438.07,404.69,439.72,409.91Z" transform="translate(-50.56 0.53)"/><g class="cls-51"><path class="cls-27" d="M490.31,520.63c-2.11,0-4.23-.1-6.31-.25l.11-1.56c2.05.14,4.13.23,6.21.25Zm4.73-.07L495,519c2.06-.08,4.15-.23,6.2-.44l.16,1.56C499.25,520.33,497.13,520.48,495,520.56Zm-15.75-.63c-2.1-.26-4.2-.58-6.24-1l.28-1.54c2,.37,4.08.69,6.14.94Zm26.75-.41L505.8,518c2.05-.31,4.11-.69,6.11-1.13l.33,1.53C510.21,518.82,508.12,519.2,506,519.52ZM468.41,518c-2.05-.49-4.1-1-6.09-1.66l.46-1.49c2,.6,4,1.15,6,1.62Zm48.44-.74-.41-1.51c2-.54,4-1.15,5.94-1.81l.5,1.48C520.91,516.08,518.88,516.7,516.85,517.25Zm-59-2.42c-2-.71-3.94-1.49-5.88-2.34l.63-1.43c1.9.83,3.85,1.6,5.78,2.3Zm69.51-1.05-.58-1.46c1.91-.75,3.82-1.58,5.69-2.47l.67,1.42C531.21,512.17,529.26,513,527.33,513.78Zm-79.69-3.29c-1.88-.93-3.75-1.93-5.57-3l.78-1.35c1.79,1,3.64,2,5.48,2.93Zm89.7-1.35-.74-1.38c1.82-1,3.63-2,5.38-3.09l.83,1.33C541,507.11,539.18,508.16,537.34,509.14ZM438,505c-1.76-1.14-3.51-2.34-5.2-3.59l.93-1.26c1.66,1.23,3.38,2.42,5.12,3.54Zm108.75-1.62-.89-1.29c1.69-1.16,3.38-2.4,5-3.68l1,1.23C550.2,501,548.49,502.24,546.77,503.42Zm-117.69-4.87c-1.61-1.32-3.22-2.72-4.76-4.15l1.06-1.15c1.52,1.41,3.1,2.79,4.69,4.08Zm126.42-1.89-1-1.18c1.56-1.35,3.1-2.77,4.56-4.21l1.1,1.11C558.65,493.85,557.09,495.29,555.5,496.66Zm-134.58-5.57c-1.45-1.48-2.89-3-4.27-4.64l1.19-1c1.35,1.57,2.77,3.11,4.2,4.58ZM563.44,489l-1.15-1.06c1.39-1.51,2.76-3.09,4.06-4.7l1.22,1C566.24,485.84,564.85,487.45,563.44,489Zm-149.79-6.19c-1.29-1.66-2.54-3.37-3.72-5.1l1.29-.88c1.16,1.7,2.4,3.39,3.67,5Zm156.81-2.34-1.26-.92c1.22-1.66,2.4-3.39,3.52-5.13l1.32.85C572.9,477,571.7,478.77,570.46,480.45Zm-163.1-6.73c-1.1-1.78-2.15-3.62-3.13-5.48l1.38-.73c1,1.83,2,3.64,3.08,5.39Zm169.14-2.53-1.36-.78c1-1.79,2-3.64,2.92-5.49l1.4.69C578.54,467.5,577.54,469.37,576.5,471.19ZM402.12,464c-.89-1.9-1.73-3.85-2.49-5.79l1.46-.57c.75,1.91,1.57,3.83,2.45,5.7Zm179.33-2.71-1.44-.62c.82-1.9,1.59-3.85,2.28-5.79l1.48.53C583.06,457.39,582.28,459.37,581.45,461.3ZM398,453.77c-.67-2-1.29-4-1.82-6l1.51-.4c.53,2,1.13,4,1.79,5.95Zm187.25-2.86-1.5-.45c.6-2,1.14-4,1.61-6l1.52.35C586.41,446.86,585.86,448.91,585.26,450.91Zm-190.18-7.79c-.45-2.05-.82-4.14-1.13-6.21l1.55-.23c.3,2,.67,4.09,1.11,6.11Zm192.78-2.94-1.54-.28c.37-2,.68-4.09.92-6.15l1.56.19C588.55,436,588.24,438.12,587.86,440.18Zm-194.5-8c-.2-2.08-.35-4.2-.42-6.3l1.56-.05c.08,2.06.22,4.15.42,6.2Zm195.88-3-1.56-.11c.14-2.06.21-4.15.23-6.21h1.56C589.46,425,589.38,427.13,589.24,429.22Zm-194.8-6.88h-1.57c0-2.1.07-4.22.2-6.31l1.57.1C394.51,418.18,394.44,420.27,394.44,422.34Zm193.38-4.1c-.08-2.06-.24-4.15-.45-6.19l1.56-.17c.21,2.08.37,4.2.46,6.3ZM395,411.48l-1.55-.17c.23-2.08.53-4.18.9-6.25l1.54.27C395.57,407.37,395.27,409.44,395,411.48Zm191.73-4.05c-.32-2-.7-4.09-1.15-6.11l1.53-.34c.45,2,.84,4.14,1.16,6.21Zm-189.92-6.66-1.52-.35c.46-2,1-4.1,1.6-6.11l1.5.45C397.84,396.74,397.31,398.76,396.85,400.77Zm187.65-4c-.54-2-1.15-4-1.83-5.94l1.48-.51c.69,2,1.31,4,1.86,6Zm-184.64-6.47-1.47-.52c.69-2,1.46-4,2.28-5.9l1.44.62C401.3,386.42,400.55,388.37,399.86,390.33Zm181.19-3.84c-.76-1.9-1.6-3.81-2.48-5.68l1.41-.68c.9,1.9,1.75,3.85,2.52,5.78Zm-177-6.22-1.41-.68c.92-1.9,1.9-3.78,2.93-5.6l1.37.77C405.91,376.55,404.94,378.41,404,380.27Zm172.43-3.62c-1-1.82-2-3.62-3.11-5.37l1.33-.83c1.1,1.78,2.16,3.61,3.16,5.46Zm-167.15-5.89-1.32-.83c1.11-1.77,2.31-3.53,3.54-5.23l1.27.92C411.59,367.29,410.42,369,409.32,370.76Zm161.48-3.37c-1.17-1.69-2.41-3.37-3.69-5l1.23-1c1.3,1.64,2.56,3.35,3.75,5.07Zm-155.16-5.48-1.23-1c1.31-1.64,2.69-3.25,4.11-4.8l1.15,1.05C418.28,358.71,416.92,360.3,415.64,361.91Zm148.49-3.1c-1.35-1.55-2.77-3.08-4.23-4.55l1.12-1.1c1.47,1.49,2.92,3,4.29,4.63Zm-141.23-5-1.11-1.11c1.48-1.47,3-2.92,4.61-4.31l1,1.18C425.88,350.93,424.35,352.36,422.9,353.81ZM556.54,351c-1.52-1.4-3.11-2.76-4.71-4l1-1.22c1.62,1.31,3.23,2.69,4.78,4.12ZM431,346.59l-1-1.23c1.63-1.3,3.33-2.57,5.06-3.77l.89,1.29C434.3,344.06,432.62,345.3,431,346.59Zm117.12-2.45c-1.67-1.22-3.4-2.4-5.14-3.5l.85-1.32c1.76,1.12,3.51,2.31,5.22,3.55Zm-108.25-3.83-.83-1.33c1.78-1.11,3.61-2.18,5.45-3.17l.74,1.38C443.43,338.16,441.63,339.21,439.88,340.31ZM539,338.23c-1.8-1-3.65-2-5.5-2.9l.69-1.41c1.88.92,3.76,1.91,5.58,2.95Zm-89.61-3.16-.68-1.41c1.89-.91,3.83-1.76,5.77-2.54l.58,1.45C453.16,333.34,451.25,334.18,449.39,335.07Zm79.86-1.68c-1.89-.82-3.84-1.58-5.79-2.27l.52-1.48c2,.71,4,1.48,5.89,2.31Zm-69.82-2.46-.52-1.48c2-.68,4-1.31,6-1.87l.42,1.5C463.36,329.64,461.36,330.26,459.43,330.93ZM519,329.67c-2-.59-4-1.13-6-1.59l.36-1.53c2,.47,4.1,1,6.1,1.62ZM469.88,328l-.35-1.53c2-.45,4.12-.85,6.2-1.18l.25,1.55C473.93,327.11,471.88,327.5,469.88,328Zm38.57-.81c-2-.37-4.09-.67-6.15-.9l.18-1.56c2.09.24,4.19.55,6.25.92Zm-27.85-1-.17-1.55c2.08-.23,4.2-.39,6.29-.49l.07,1.57C484.73,325.79,482.65,326,480.6,326.17Zm17.06-.35c-2-.14-4.13-.21-6.21-.22V324c2.11,0,4.23.08,6.31.21Z" transform="translate(-50.56 0.53)"/><path class="cls-27" d="M492.7,515.32l0-1.57,1.56,0c1.54-.05,3.1-.14,4.64-.27L499,515c-1.56.13-3.15.23-4.72.28Zm-4.74,0c-2.1-.07-4.23-.22-6.3-.43l.16-1.56c2,.21,4.12.35,6.2.42Zm15.76-.79-.21-1.55c2-.28,4.1-.63,6.12-1l.32,1.53C507.88,513.85,505.79,514.21,503.72,514.49ZM477,514.26c-2.07-.32-4.16-.72-6.2-1.17l.34-1.53c2,.45,4.06.83,6.1,1.15Zm37.6-1.9-.39-1.51c2-.52,4-1.11,6-1.76l.5,1.48C518.63,511.24,516.6,511.84,514.56,512.36Zm-48.4-.43c-2-.56-4-1.21-6-1.91l.52-1.48c2,.7,4,1.33,5.93,1.88Zm58.91-3-.57-1.46c1.92-.75,3.83-1.58,5.7-2.46l.67,1.42C529,507.36,527,508.2,525.07,509Zm-69.37-.64c-1.94-.8-3.88-1.68-5.76-2.61l.7-1.4c1.85.91,3.75,1.78,5.66,2.56Zm79.39-4-.74-1.38c1.81-1,3.62-2,5.36-3.12l.84,1.33C538.77,502.28,536.93,503.35,535.09,504.33Zm-89.34-.83c-1.83-1-3.65-2.13-5.41-3.28l.86-1.31c1.73,1.13,3.52,2.21,5.31,3.22Zm98.74-5-.9-1.28c1.69-1.18,3.35-2.43,5-3.73l1,1.22C547.9,496.07,546.2,497.34,544.49,498.54Zm-108-1c-1.68-1.23-3.36-2.54-5-3.89l1-1.2c1.59,1.33,3.24,2.62,4.9,3.83Zm116.7-5.84-1-1.17c1.54-1.38,3-2.82,4.48-4.29l1.13,1.09C556.25,488.81,554.71,490.28,553.14,491.68ZM427.91,490.5c-1.53-1.43-3-2.93-4.48-4.45l1.14-1.08c1.41,1.5,2.9,3,4.41,4.38Zm133-6.66-1.18-1c1.37-1.54,2.7-3.16,4-4.79l1.24.95C563.67,480.62,562.32,482.27,560.93,483.84Zm-140.66-1.32c-1.36-1.61-2.68-3.27-3.92-4.95l1.26-.93c1.22,1.65,2.52,3.29,3.86,4.86Zm147.46-7.39-1.28-.89c1.17-1.69,2.3-3.45,3.35-5.23l1.35.8C570.07,471.62,568.93,473.41,567.73,475.13Zm-154.1-1.44c-1.16-1.74-2.27-3.55-3.31-5.37l1.36-.78c1,1.79,2.12,3.57,3.26,5.29Zm159.84-8-1.39-.73c1-1.82,1.88-3.7,2.72-5.59l1.43.63C575.37,461.92,574.45,463.83,573.47,465.68Zm-165.38-1.53c-.94-1.87-1.83-3.79-2.65-5.73l1.44-.61c.81,1.91,1.68,3.8,2.6,5.64Zm170-8.55-1.46-.56c.74-1.93,1.42-3.91,2-5.88l1.5.46C579.49,451.63,578.79,453.64,578,455.6ZM403.71,454c-.71-2-1.36-4-1.94-6l1.5-.43c.57,2,1.22,4,1.92,5.91Zm177.66-8.95-1.52-.38c.51-2,.95-4,1.31-6.07l1.54.27C582.33,441,581.89,443,581.37,445.06Zm-180.79-1.65c-.47-2-.88-4.12-1.21-6.19l1.55-.25c.32,2,.72,4.08,1.19,6.09Zm182.84-9.21-1.55-.2c.26-2,.45-4.12.57-6.18l1.57.09C583.88,430,583.69,432.13,583.42,434.2Zm-184.68-1.68c-.23-2.08-.39-4.2-.48-6.3l1.57-.06c.08,2.06.24,4.14.46,6.19Zm185.43-9.34H582.6v-.78c0-1,0-2.07-.05-3.12,0-.77-.06-1.54-.1-2.31l1.56-.1c0,.79.08,1.57.11,2.36,0,1.06,0,2.12,0,3.17ZM399.75,421.5h-1.57c0-2.1.11-4.22.27-6.31l1.56.12C399.85,417.35,399.77,419.44,399.75,421.5Zm182.31-9.19c-.23-2.05-.53-4.12-.89-6.14l1.55-.28c.36,2.06.66,4.17.89,6.25Zm-181.58-1.65-1.55-.2c.26-2.08.61-4.18,1-6.23l1.54.3C401.08,406.55,400.74,408.61,400.48,410.66Zm179.76-9.06c-.47-2-1-4-1.61-6l1.5-.46c.61,2,1.16,4,1.64,6.1ZM402.5,400l-1.52-.38c.51-2,1.1-4.08,1.75-6.07l1.49.48C403.58,396,403,398,402.5,400Zm174.66-8.8c-.7-1.94-1.48-3.88-2.31-5.76l1.43-.64c.85,1.92,1.64,3.9,2.35,5.87Zm-171.38-1.57-1.47-.56c.76-2,1.59-3.93,2.47-5.82l1.42.66C407.33,385.76,406.52,387.69,405.78,389.62Zm167.08-8.4c-.92-1.83-1.92-3.66-3-5.44l1.35-.8c1.07,1.81,2.09,3.68,3,5.54Zm-162.59-1.5-1.39-.73c1-1.85,2-3.7,3.14-5.49l1.34.83C412.27,376.09,411.23,377.9,410.27,379.72Zm157.14-7.88c-1.14-1.72-2.36-3.42-3.61-5l1.25-1c1.27,1.66,2.5,3.39,3.66,5.14Zm-151.5-1.41-1.29-.9c1.19-1.72,2.46-3.43,3.76-5.07l1.23,1C418.33,367.05,417.08,368.73,415.91,370.43Zm145-7.26c-1.34-1.58-2.75-3.12-4.18-4.6l1.12-1.09c1.46,1.5,2.89,3.07,4.25,4.67Zm-138.28-1.3-1.17-1c1.38-1.57,2.84-3.12,4.33-4.59l1.11,1.11C425.4,358.8,424,360.32,422.6,361.87Zm130.77-6.55c-1.52-1.41-3.1-2.78-4.7-4.07l1-1.22c1.63,1.32,3.23,2.71,4.77,4.14Zm-123.11-1.16L429.21,353c1.56-1.4,3.2-2.76,4.85-4.05l1,1.24C433.4,351.44,431.79,352.78,430.26,354.16ZM545,348.41c-1.67-1.22-3.4-2.39-5.14-3.49l.83-1.32c1.77,1.12,3.53,2.31,5.23,3.54Zm-106.22-1-.9-1.28c1.72-1.21,3.5-2.37,5.29-3.45L444,344C442.2,345.09,440.45,346.23,438.76,347.41Zm97.07-4.87c-1.81-1-3.67-2-5.52-2.85l.67-1.42c1.89.9,3.78,1.88,5.61,2.9ZM448,341.72l-.74-1.38c1.85-1,3.76-1.94,5.65-2.79l.65,1.43C451.7,339.82,449.83,340.74,448,341.72Zm78-3.92c-1.91-.79-3.86-1.52-5.82-2.18l.5-1.49c2,.67,4,1.42,5.92,2.22Zm-68.19-.63-.57-1.46c2-.76,4-1.47,6-2.1l.47,1.49C461.74,335.72,459.77,336.42,457.85,337.17Zm57.91-2.92c-2-.55-4-1.05-6-1.46l.32-1.53c2,.42,4.11.92,6.14,1.48Zm-47.58-.43-.39-1.51c2-.53,4.11-1,6.17-1.37l.28,1.53C472.22,332.85,470.18,333.31,468.18,333.82Zm37-1.86c-2-.31-4.11-.55-6.17-.73l.13-1.56c2.1.18,4.21.43,6.28.75Zm-26.3-.22-.21-1.56c2.07-.28,4.19-.49,6.29-.63l.1,1.56C483,331.25,480.88,331.46,478.84,331.74Zm9.27-.78-.05-1.57c2.12-.07,4.22-.07,6.32,0l-.06,1.57Q491.23,330.86,488.11,331Z" transform="translate(-50.56 0.53)"/><path class="cls-27" d="M491.08,510.15h-.65v-1.56h.64c1.85,0,3.72-.06,5.57-.18l.1,1.56C494.87,510.09,493,510.15,491.08,510.15Zm-5.39-.17c-2.09-.13-4.21-.33-6.29-.61l.21-1.55c2,.27,4.12.47,6.18.6Zm15.78-.44-.18-1.56c2-.24,4.1-.55,6.13-.94l.29,1.54C505.65,509,503.55,509.29,501.47,509.54Zm-26.75-.93c-2.06-.39-4.13-.86-6.16-1.4l.41-1.52c2,.53,4,1,6,1.38Zm37.62-1-.37-1.52c2-.5,4-1.07,6-1.71l.48,1.49C516.42,506.48,514.38,507.07,512.34,507.57ZM464,505.86c-2-.65-4-1.38-5.94-2.18l.59-1.45c1.91.78,3.87,1.5,5.83,2.14Zm58.88-1.62-.57-1.46c1.92-.74,3.84-1.57,5.7-2.45l.67,1.42C526.79,502.64,524.84,503.48,522.89,504.24Zm-69.16-2.47c-1.91-.9-3.8-1.87-5.62-2.9l.77-1.37c1.79,1,3.65,2,5.52,2.86Zm79.18-2.16-.74-1.38c1.82-1,3.61-2,5.34-3.14l.85,1.32C536.6,497.53,534.76,498.61,532.91,499.61ZM444,496.43c-1.77-1.13-3.52-2.34-5.2-3.59l.93-1.25c1.66,1.23,3.38,2.41,5.11,3.52Zm98.24-2.68-.91-1.27c1.67-1.2,3.32-2.48,4.91-3.8l1,1.21C545.67,491.23,544,492.53,542.28,493.75Zm-107.17-3.84c-1.61-1.34-3.2-2.75-4.72-4.2l1.09-1.14c1.49,1.43,3,2.82,4.63,4.14Zm115.73-3.15-1.07-1.14c1.51-1.41,3-2.88,4.4-4.39l1.14,1.07C553.88,483.83,552.38,485.33,550.84,486.76Zm-123.78-4.42c-1.43-1.54-2.83-3.14-4.15-4.77l1.22-1c1.29,1.6,2.66,3.17,4.07,4.68Zm131.4-3.58-1.2-1c1.33-1.59,2.61-3.23,3.81-4.9l1.27.92C561.12,475.46,559.81,477.14,558.46,478.76ZM420,473.81c-1.23-1.69-2.42-3.46-3.52-5.24l1.33-.83c1.08,1.75,2.25,3.49,3.46,5.16Zm145-3.95L563.7,469c1.12-1.74,2.19-3.54,3.18-5.34l1.37.75C567.24,466.26,566.16,468.09,565,469.86Zm-150.9-5.38c-1-1.84-2-3.73-2.83-5.64l1.42-.65c.86,1.87,1.8,3.73,2.78,5.54Zm156.29-4.28-1.41-.68c.89-1.86,1.73-3.78,2.48-5.69l1.46.57C572.17,456.35,571.32,458.3,570.41,460.2Zm-161-5.73c-.77-1.94-1.47-4-2.1-6l1.5-.46c.61,2,1.3,3.94,2.05,5.85Zm165.11-4.53-1.48-.5c.64-2,1.23-4,1.73-6l1.52.38C575.81,445.9,575.21,447.94,574.55,449.94Zm-168.49-6c-.52-2-1-4.11-1.33-6.18l1.54-.27c.36,2,.8,4.07,1.31,6.07Zm171.3-4.72-1.54-.29c.4-2,.72-4.08,1-6.13l1.56.18C578.09,435.08,577.76,437.18,577.36,439.23ZM404,433.09c-.18-1.49-.33-3-.44-4.52,0-.59-.08-1.19-.11-1.78l1.57-.08c0,.58.06,1.17.1,1.75.11,1.48.25,3,.43,4.44Zm174.76-4.81-1.56-.11c.12-1.9.19-3.84.19-5.74V422H579v.47C579,424.37,578.92,426.33,578.79,428.28Zm-173.86-6.23h-1.56c0-2.1.08-4.22.24-6.31l1.56.11C405,417.91,404.94,420,404.93,422.05Zm172.34-4.73-.07-1.11c-.13-1.69-.3-3.4-.52-5.08l1.56-.2c.22,1.71.39,3.45.52,5.17l.07,1.12Zm-171.63-6.1-1.55-.2c.26-2.08.61-4.18,1-6.24l1.53.32C406.24,407.12,405.9,409.18,405.64,411.22ZM576,406.53c-.37-2-.83-4.06-1.35-6l1.52-.4c.53,2,1,4.11,1.37,6.17Zm-168.25-6-1.52-.39c.53-2,1.14-4.07,1.82-6.06l1.48.5C408.83,396.57,408.23,398.57,407.71,400.56ZM573.32,396c-.63-2-1.34-3.93-2.11-5.84l1.46-.59c.78,1.95,1.5,3.95,2.14,5.95Zm-162.21-5.77-1.45-.58c.78-2,1.65-3.9,2.56-5.78l1.41.69C412.73,386.41,411.88,388.32,411.11,390.24Zm158.25-4.34c-.87-1.87-1.82-3.73-2.82-5.53l1.37-.76c1,1.83,2,3.72,2.87,5.62Zm-153.57-5.47-1.37-.76c1-1.83,2.12-3.65,3.27-5.4l1.31.85C417.87,376.85,416.79,378.64,415.79,380.43Zm148.38-4.05c-1.1-1.74-2.28-3.46-3.5-5.13l1.26-.93c1.25,1.7,2.44,3.45,3.56,5.22ZM421.66,371.3l-1.26-.93c1.24-1.69,2.56-3.36,3.92-5l1.19,1C424.18,368,422.88,369.64,421.66,371.3Zm136.15-3.72c-1.31-1.59-2.69-3.15-4.11-4.64l1.13-1.08c1.45,1.52,2.86,3.11,4.19,4.73ZM428.63,363l-1.14-1.08c1.44-1.52,3-3,4.51-4.43l1.06,1.16C431.53,360,430,361.48,428.63,363Zm121.77-3.32c-1.5-1.42-3.07-2.8-4.66-4.1l1-1.21c1.62,1.33,3.22,2.73,4.74,4.17Zm-113.82-4.07-1-1.22c1.62-1.32,3.31-2.61,5-3.82l.9,1.28C439.83,353,438.17,354.27,436.58,355.58Zm105.47-2.88c-1.67-1.22-3.4-2.39-5.14-3.48l.83-1.33c1.77,1.11,3.53,2.3,5.24,3.55Zm-96.67-3.46-.83-1.33c1.77-1.11,3.61-2.17,5.47-3.16l.73,1.38C448.93,347.1,447.12,348.15,445.38,349.24Zm87.52-2.39c-1.81-1-3.67-1.94-5.54-2.81l.66-1.42c1.9.88,3.8,1.84,5.64,2.86Zm-78-2.78-.66-1.43c1.9-.88,3.86-1.7,5.82-2.44l.56,1.46C458.71,342.39,456.78,343.2,454.92,344.07Zm68.16-1.87c-1.91-.77-3.88-1.47-5.85-2.09l.48-1.5c2,.64,4,1.35,5.95,2.13ZM465,340.13l-.47-1.49c2-.63,4.05-1.2,6.09-1.69l.36,1.52C469,339,467,339.51,465,340.13Zm47.72-1.31c-2-.52-4-1-6.06-1.33l.28-1.55c2.06.38,4.13.84,6.17,1.36Zm-37.18-1.3-.28-1.55c2.06-.37,4.17-.68,6.25-.91l.17,1.56C479.67,336.84,477.6,337.14,475.57,337.52Zm26.52-.75c-2-.25-4.13-.44-6.18-.55l.08-1.57c2.09.12,4.21.31,6.3.57Zm-17-.45-.11-1.57c2.11-.15,4.23-.22,6.31-.22v1.56C489.21,336.09,487.12,336.17,485.05,336.32Z" transform="translate(-50.56 0.53)"/><path class="cls-27" d="M491.07,505.1c-.82,0-1.64,0-2.46,0l.05-1.57c2.06.07,4.12.05,6.2-.05l.08,1.57C493.64,505.07,492.36,505.1,491.07,505.1Zm-7.19-.32c-2.08-.18-4.19-.45-6.27-.79l.25-1.54c2,.33,4.11.6,6.16.77Zm15.79-.13-.17-1.55.86-.1c1.78-.2,3.56-.46,5.29-.77l.28,1.54c-1.77.32-3.58.58-5.39.79Zm-26.73-1.57c-2.06-.47-4.12-1-6.11-1.63l.46-1.5c2,.61,4,1.14,6,1.6Zm37.63-.29-.37-1.52c2-.48,4-1,6-1.67l.48,1.49C514.67,501.73,512.62,502.3,510.57,502.79Zm-48.24-2.87c-2-.73-3.93-1.55-5.83-2.43l.65-1.42c1.87.86,3.8,1.67,5.73,2.38Zm58.8-.42-.57-1.46c1.93-.75,3.84-1.57,5.69-2.46l.68,1.41C525,497.89,523.09,498.74,521.13,499.5Zm-68.88-4.13c-1.85-1-3.69-2.06-5.46-3.19l.84-1.32C449.37,492,451.17,493,453,494Zm78.89-.55-.76-1.37c1.81-1,3.59-2.07,5.31-3.2l.86,1.31C534.8,492.71,533,493.81,531.14,494.82Zm-88.28-5.3c-1.71-1.23-3.39-2.54-5-3.89l1-1.2c1.57,1.33,3.22,2.61,4.89,3.82Zm97.58-.67-.94-1.26c1.66-1.23,3.29-2.54,4.84-3.88l1,1.18C543.78,486.26,542.13,487.6,540.44,488.85Zm-106.11-6.37c-1.52-1.44-3-3-4.43-4.51l1.16-1.06c1.39,1.53,2.85,3,4.35,4.43Zm114.53-.8-1.1-1.12c1.48-1.43,2.91-2.94,4.28-4.49l1.18,1C551.82,478.68,550.36,480.22,548.86,481.68Zm-122-7.31c-1.32-1.63-2.59-3.33-3.78-5.06l1.29-.89c1.17,1.7,2.42,3.36,3.71,5Zm129.44-.91-1.23-1c1.27-1.62,2.5-3.31,3.64-5l1.31.87C558.8,470.09,557.55,471.81,556.25,473.46Zm-135.8-8.12c-1.1-1.8-2.13-3.66-3.08-5.52l1.4-.71c.93,1.83,1.94,3.65,3,5.41Zm142-1-1.35-.8c1.05-1.78,2-3.62,3-5.46l1.4.69C564.57,460.64,563.56,462.51,562.49,464.33Zm-147.14-8.8c-.85-1.93-1.62-3.91-2.31-5.89l1.48-.51c.67,1.94,1.44,3.88,2.26,5.77Zm152.11-1.09-1.44-.61c.8-1.9,1.54-3.85,2.19-5.81l1.49.5C569,450.51,568.28,452.5,567.46,454.44Zm-155.85-9.32c-.58-2-1.08-4.08-1.5-6.14l1.53-.31c.41,2,.91,4,1.47,6ZM571.07,444l-1.51-.41c.54-2,1-4,1.39-6.05l1.54.29C572.1,439.87,571.62,442,571.07,444Zm-161.78-9.67c-.12-.87-.24-1.74-.34-2.61-.14-1.23-.25-2.46-.33-3.68l1.56-.11c.08,1.2.19,2.4.33,3.61.1.86.21,1.71.33,2.56Zm164-1.19-1.55-.2c.26-2.05.46-4.12.56-6.17l1.57.08C573.71,428.92,573.51,431,573.24,433.12Zm-164.82-9.84v-1c0-1.75.06-3.53.17-5.27l1.57.1c-.11,1.71-.17,3.45-.17,5.17v1Zm164-1.19c0-2-.1-4.14-.26-6.2l1.56-.12c.17,2.1.26,4.22.26,6.32Zm-161.79-9.66-1.56-.19c.26-2.09.59-4.19,1-6.24l1.53.3C411.16,408.32,410.83,410.38,410.58,412.43Zm161-1.16c-.28-2-.64-4.1-1.07-6.11l1.53-.33c.44,2.05.81,4.14,1.1,6.22Zm-159-9.5-1.52-.4c.53-2,1.15-4.07,1.84-6.06l1.48.51C413.74,397.78,413.14,399.77,412.62,401.77Zm156.8-1.13c-.55-2-1.18-4-1.88-5.91l1.48-.53c.71,2,1.35,4,1.91,6Zm-153.35-9.17-1.45-.6c.8-1.93,1.68-3.87,2.63-5.75l1.4.71C417.72,387.67,416.85,389.57,416.07,391.47Zm149.77-1.07c-.81-1.89-1.7-3.77-2.65-5.6l1.39-.73c1,1.87,1.88,3.79,2.7,5.71Zm-145-8.67-1.36-.78c1.05-1.82,2.19-3.62,3.37-5.35l1.3.88C423,378.18,421.9,380,420.87,381.73Zm140-1c-1-1.77-2.19-3.51-3.38-5.2l1.28-.9c1.21,1.71,2.37,3.5,3.45,5.3Zm-134-8-1.24-1c1.29-1.67,2.66-3.3,4.06-4.85l1.16,1C429.52,369.48,428.18,371.08,426.91,372.72Zm127.84-.89c-1.28-1.62-2.65-3.2-4-4.71l1.15-1.06c1.43,1.54,2.82,3.15,4.13,4.79ZM434.1,364.59l-1.1-1.11c1.49-1.47,3.06-2.91,4.66-4.27l1,1.19C437.1,361.74,435.56,363.15,434.1,364.59Zm113.34-.78c-1.49-1.43-3-2.82-4.63-4.13l1-1.2c1.62,1.33,3.21,2.74,4.73,4.2ZM442.3,357.49l-.94-1.25c1.67-1.26,3.42-2.48,5.18-3.61l.85,1.32C445.66,355.06,444,356.25,442.3,357.49Zm96.83-.66c-1.66-1.22-3.39-2.39-5.14-3.47l.83-1.34c1.79,1.12,3.55,2.31,5.24,3.55Zm-87.76-5.28-.77-1.36c1.84-1,3.73-2,5.62-2.89l.66,1.42C455,349.59,453.17,350.54,451.37,351.55ZM530,351c-1.82-1-3.69-1.92-5.56-2.76l.64-1.43c1.91.86,3.82,1.81,5.67,2.81Zm-68.81-4.13-.58-1.46c1.95-.77,3.95-1.48,6-2.1l.47,1.5C465,345.43,463.07,346.12,461.16,346.88Zm58.95-.42c-1.92-.73-3.9-1.4-5.88-2l.45-1.5c2,.6,4,1.28,6,2Zm-48.62-2.9-.38-1.52c2-.5,4.11-.94,6.19-1.29l.26,1.55C475.52,342.64,473.47,343.07,471.49,343.56Zm38.24-.28c-2-.47-4.05-.87-6.09-1.19l.24-1.55c2.08.33,4.16.73,6.21,1.21ZM482,341.67l-.17-1.56c2.1-.23,4.22-.39,6.3-.47l.06,1.56C486.14,341.28,484.06,341.44,482,341.67Zm17-.16c-2-.19-4.14-.31-6.2-.35l0-1.57c2.1,0,4.23.16,6.32.36Z" transform="translate(-50.56 0.53)"/><path class="cls-27" d="M491.08,500.22c-1.26,0-2.51,0-3.76-.1l.08-1.56c2.05.1,4.12.11,6.2.05l0,1.57C492.79,500.2,491.94,500.22,491.08,500.22Zm7.31-.35-.15-1.56c1.71-.16,3.45-.38,5.17-.66l1-.16.27,1.54-1,.17C501.91,499.48,500.14,499.71,498.39,499.87Zm-15.8-.12c-2.08-.23-4.18-.55-6.25-.95l.29-1.54c2,.4,4.1.71,6.14.93Zm26.72-1.68-.37-1.53c2-.47,4-1,6-1.68l.48,1.49C513.39,497,511.34,497.58,509.31,498.07Zm-37.61-.32c-2-.53-4.08-1.14-6.05-1.83l.51-1.48c1.94.67,3.93,1.28,5.93,1.79Zm48.16-3-.58-1.46c1.92-.76,3.82-1.6,5.67-2.51l.69,1.4C523.76,493.11,521.81,494,519.86,494.75Zm-58.65-.53c-1.93-.81-3.86-1.71-5.73-2.67l.71-1.4c1.84,1,3.73,1.83,5.62,2.63ZM529.83,490l-.78-1.36c1.79-1,3.55-2.13,5.25-3.29l.88,1.29C533.45,487.79,531.65,488.92,529.83,490Zm-78.5-.72c-1.8-1.08-3.59-2.24-5.3-3.46l.91-1.28c1.68,1.2,3.42,2.34,5.19,3.39ZM539,483.8l-1-1.24c1.62-1.27,3.22-2.62,4.73-4l1.06,1.16C542.29,481.13,540.67,482.5,539,483.8Zm-96.76-.89c-1.64-1.32-3.24-2.72-4.76-4.17l1.08-1.13c1.48,1.41,3.05,2.79,4.66,4.09Zm105-6.52-1.13-1.09c1.43-1.47,2.81-3,4.12-4.63l1.21,1C550.1,473.29,548.68,474.88,547.23,476.39Zm-113.08-1c-1.44-1.54-2.82-3.15-4.12-4.8l1.23-1c1.27,1.61,2.63,3.2,4,4.71Zm120.17-7.47-1.27-.92c1.21-1.67,2.36-3.41,3.42-5.17l1.34.81C556.73,464.42,555.55,466.19,554.32,467.9ZM427.2,466.77c-1.19-1.73-2.34-3.52-3.39-5.34l1.35-.79c1,1.78,2.16,3.54,3.33,5.23Zm133-8.28-1.39-.73c1-1.83,1.85-3.71,2.66-5.6l1.44.61C562,454.7,561.13,456.62,560.15,458.49Zm-138.59-1.23c-.94-1.87-1.82-3.81-2.61-5.77l1.46-.58c.77,1.91,1.63,3.81,2.55,5.65Zm143-8.92-1.47-.52c.69-1.94,1.31-3.93,1.84-5.92l1.51.4C565.92,444.33,565.29,446.37,564.58,448.34ZM417.32,447c-.66-2-1.25-4-1.76-6.08l1.53-.37c.49,2,1.07,4,1.71,6Zm150.22-9.37-1.54-.3c.41-2,.74-4.08,1-6.13l1.56.18C568.29,433.51,568,435.62,567.54,437.67Zm-153-1.35c-.09-.5-.17-1-.25-1.5-.26-1.58-.47-3.18-.63-4.77l1.56-.15c.15,1.55.36,3.12.61,4.67.08.49.17,1,.25,1.47Zm154.37-9.63-1.57-.08c.08-1.39.12-2.79.12-4.18,0-.67,0-1.34,0-2l1.57,0c0,.69,0,1.38,0,2.06C569.05,423.85,569,425.28,568.94,426.69Zm-155.58-1.37c-.05-1-.07-2.05-.06-3.08s0-2.17.06-3.25l1.57.07c0,1.06-.07,2.12-.07,3.18s0,2,.06,3Zm153.84-9.55c-.17-1.89-.41-3.79-.71-5.67l-.08-.49,1.54-.26.08.5c.32,1.92.56,3.86.73,5.78Zm-151.93-1.35-1.56-.16c.21-2.09.52-4.2.91-6.26l1.54.29C415.78,410.31,415.48,412.37,415.27,414.42Zm150.23-9.37c-.47-2-1-4-1.64-6l1.49-.48c.64,2,1.2,4,1.67,6.1Zm-148.34-1.31-1.52-.39c.51-2,1.11-4.07,1.79-6.06l1.48.5C418.25,399.74,417.66,401.74,417.16,403.74Zm145.15-9.05c-.75-1.92-1.58-3.83-2.48-5.68l1.41-.68c.92,1.88,1.77,3.83,2.53,5.8Zm-141.76-1.26-1.45-.59c.8-1.95,1.69-3.89,2.64-5.75l1.39.71C422.2,389.63,421.33,391.52,420.55,393.43Zm137.13-8.54c-1-1.79-2.11-3.56-3.26-5.27l1.3-.88c1.17,1.74,2.29,3.55,3.32,5.38Zm-132.31-1.17-1.35-.79c1.06-1.82,2.21-3.61,3.42-5.33l1.28.9C427.54,380.19,426.41,381.94,425.37,383.72Zm126.33-7.87c-1.25-1.62-2.59-3.22-4-4.75l1.16-1.06c1.42,1.57,2.79,3.2,4.06,4.86Zm-120.19-1.07-1.23-1c1.31-1.64,2.7-3.25,4.14-4.78l1.14,1.07C434.15,371.59,432.79,373.17,431.51,374.78Zm113-7c-1.48-1.43-3-2.83-4.61-4.14l1-1.21c1.63,1.34,3.21,2.77,4.71,4.23Zm-105.65-.95-1.08-1.14c1.53-1.45,3.14-2.85,4.77-4.15l1,1.22C441.92,364,440.35,365.38,438.85,366.8Zm97.37-6.05c-1.66-1.21-3.39-2.38-5.15-3.46l.82-1.33c1.79,1.1,3.56,2.29,5.25,3.53Zm-89-.81-.91-1.28c1.72-1.21,3.51-2.37,5.32-3.43l.79,1.35C450.67,357.62,448.92,358.75,447.24,359.94ZM527,355c-1.82-1-3.7-1.88-5.58-2.69l.62-1.44c1.92.83,3.84,1.76,5.7,2.75Zm-70.52-.64L455.8,353c1.87-1,3.81-1.85,5.75-2.64l.6,1.45C460.24,352.54,458.35,353.41,456.51,354.34Zm60.61-3.77c-1.93-.7-3.92-1.33-5.91-1.87l.41-1.52c2,.56,4.07,1.2,6,1.92Zm-50.62-.45-.51-1.48c2-.68,4-1.28,6.07-1.79l.38,1.52C470.45,348.87,468.45,349.46,466.5,350.12Zm40.18-2.51c-2-.42-4.06-.76-6.11-1l.19-1.56c2.1.26,4.2.61,6.24,1ZM477,347.37l-.3-1.54c.66-.13,1.33-.24,2-.35,2.07-.34,4.18-.6,6.28-.77l.12,1.56c-2,.17-4.12.42-6.15.75C478.28,347.13,477.63,347.24,477,347.37Zm18.95-1.2q-3.09-.19-6.2-.13l0-1.57c2.1,0,4.22,0,6.32.13Z" transform="translate(-50.56 0.53)"/><path class="cls-27" d="M491.11,495.53c-1.46,0-2.95,0-4.41-.13l.1-1.56c2.06.12,4.13.16,6.19.1l0,1.57Zm6.66-.3-.14-1.56c2.05-.19,4.12-.47,6.14-.83l.28,1.54C502,494.75,499.87,495,497.77,495.23ZM482,495c-2.09-.27-4.19-.63-6.24-1.07l.33-1.53c2,.43,4.06.78,6.1,1Zm26.72-1.57-.37-1.52c2-.49,4-1.08,5.95-1.74l.5,1.49C512.79,492.29,510.75,492.89,508.69,493.39Zm-37.57-.66c-2-.58-4.05-1.25-6-2l.56-1.47c1.92.74,3.9,1.4,5.88,2ZM519.21,490l-.59-1.45c1.9-.79,3.78-1.66,5.61-2.61l.72,1.39C523.09,488.25,521.16,489.14,519.21,490Zm-58.48-1.06c-1.91-.88-3.81-1.85-5.64-2.89l.78-1.36c1.79,1,3.64,2,5.51,2.83ZM529.09,485l-.81-1.34c1.77-1.07,3.5-2.23,5.16-3.44l.92,1.27C532.67,482.68,530.9,483.86,529.09,485ZM451,483.53c-1.76-1.15-3.49-2.4-5.14-3.7l1-1.23c1.61,1.27,3.31,2.49,5,3.62Zm87.06-5-1-1.2c1.59-1.32,3.12-2.73,4.58-4.18l1.1,1.11C541.29,475.72,539.72,477.16,538.1,478.51Zm-95.83-1.73c-1.57-1.4-3.09-2.89-4.53-4.43l1.14-1.07c1.41,1.5,2.9,3,4.43,4.34Zm103.76-6-1.18-1c1.36-1.54,2.67-3.16,3.9-4.82l1.25.93C548.75,467.56,547.41,469.21,546,470.79Zm-111.42-2c-1.34-1.63-2.62-3.33-3.81-5.06l1.3-.89c1.15,1.69,2.41,3.36,3.72,5ZM552.7,462l-1.31-.84c1.11-1.74,2.16-3.54,3.12-5.35l1.39.73C554.92,458.34,553.84,460.18,552.7,462Zm-124.45-2.22c-1.07-1.8-2.08-3.68-3-5.58l1.42-.68c.89,1.86,1.87,3.7,2.92,5.46ZM558,452.22l-1.43-.64c.85-1.89,1.62-3.83,2.29-5.76l1.48.52C559.63,448.31,558.84,450.29,558,452.22Zm-134.65-2.41c-.78-1.95-1.49-3.95-2.11-6l1.5-.45c.6,2,1.3,3.93,2.07,5.83Zm138.4-8-1.51-.42c.55-2,1-4,1.4-6l1.54.28C562.78,437.69,562.3,439.77,561.73,441.8ZM420,439.26c-.11-.43-.2-.87-.3-1.3-.35-1.63-.66-3.28-.9-4.91l1.55-.23c.24,1.6.53,3.21.88,4.8.09.43.19.86.29,1.28Zm143.89-8.33-1.56-.18c.24-2,.4-4.12.46-6.18l1.57.05C564.27,426.72,564.12,428.85,563.87,430.93Zm-145.64-2.6c-.17-2-.25-4.05-.25-6.06V422h1.57v.26c0,2,.08,4,.24,5.93Zm144.53-8.4c-.07-2.06-.23-4.14-.48-6.18l1.55-.19c.26,2.08.42,4.21.5,6.31Zm-143-2.57-1.56-.1c.15-2.1.39-4.22.71-6.3l1.55.25C420.09,413.24,419.86,415.31,419.71,417.36Zm141.86-8.21c-.14-.7-.28-1.4-.43-2.1-.29-1.32-.62-2.64-1-3.93l1.51-.42c.37,1.32.7,2.67,1,4,.16.71.3,1.43.43,2.14Zm-140.29-2.51-1.52-.35c.46-2.05,1-4.11,1.66-6.11l1.49.48C422.28,402.62,421.74,404.63,421.28,406.64Zm137.5-8c-.68-1.94-1.45-3.88-2.29-5.75l1.43-.65c.86,1.92,1.64,3.9,2.34,5.89Zm-134.32-2.4-1.46-.57c.77-1.95,1.63-3.9,2.56-5.79l1.41.69C426.05,392.47,425.21,394.37,424.46,396.28Zm130-7.53c-1-1.82-2-3.62-3.14-5.34l1.31-.85c1.14,1.76,2.22,3.6,3.21,5.46Zm-125.29-2.23-1.35-.79c1.05-1.81,2.19-3.61,3.4-5.34l1.28.9C431.31,383,430.19,384.74,429.16,386.52Zm119.5-6.92c-1.23-1.65-2.54-3.27-3.91-4.81l1.17-1c1.4,1.57,2.74,3.22,4,4.91Zm-113.38-2-1.23-1c1.31-1.64,2.71-3.24,4.17-4.77l1.13,1.08C437.93,374.4,436.56,376,435.28,377.57Zm106.27-6.15c-1.46-1.44-3-2.84-4.59-4.16l1-1.2c1.62,1.34,3.2,2.77,4.69,4.25Zm-98.89-1.78-1.06-1.15c1.55-1.43,3.17-2.8,4.83-4.08l1,1.23C445.77,366.9,444.18,368.25,442.66,369.64Zm90.63-5.23c-1.67-1.21-3.41-2.36-5.17-3.42l.81-1.34c1.8,1.08,3.57,2.26,5.28,3.5Zm-82.13-1.49-.88-1.29c1.75-1.18,3.56-2.29,5.4-3.31l.76,1.37C454.64,360.68,452.86,361.77,451.16,362.92Zm72.91-4.2c-1.82-.94-3.72-1.82-5.62-2.61l.6-1.45c1.94.81,3.88,1.71,5.74,2.67Zm-63.5-1.15-.66-1.41c1.9-.9,3.87-1.73,5.83-2.45l.55,1.47C464.36,355.89,462.44,356.69,460.57,357.57Zm53.53-3.09c-2-.66-4-1.24-6-1.73l.37-1.52c2.05.5,4.09,1.09,6.08,1.77Zm-43.4-.77-.45-1.5c1.73-.52,3.52-1,5.3-1.37,2.07-.45,4.17-.81,6.24-1.08l.2,1.55c-2,.26-4.08.62-6.1,1.06C474.14,352.76,472.39,353.21,470.7,353.71Zm32.9-1.92c-2-.36-4.1-.63-6.15-.81l.14-1.56c2.1.18,4.21.46,6.28.83Zm-17-.93-.1-1.56c2.1-.14,4.23-.19,6.33-.14l0,1.56C490.76,350.68,488.68,350.73,486.62,350.86Z" transform="translate(-50.56 0.53)"/><path class="cls-27" d="M491.27,491.09c-1.44,0-2.92,0-4.38-.13l.09-1.57c1.44.09,2.88.13,4.29.13l1.91,0,.05,1.57Zm6.7-.35-.16-1.55c2.05-.21,4.11-.51,6.13-.91l.3,1.54C502.17,490.22,500.06,490.53,498,490.74Zm-15.82-.25c-2.08-.27-4.18-.65-6.23-1.12l.35-1.53c2,.46,4.05.83,6.09,1.1Zm26.72-1.73-.41-1.52,1-.29c1.63-.46,3.27-1,4.87-1.57l.54,1.47c-1.64.6-3.31,1.14-5,1.61Zm-37.55-.61c-2-.61-4-1.32-6-2.11l.59-1.45c1.91.77,3.87,1.47,5.84,2.06Zm48-3.09-.64-1.43c1.88-.84,3.74-1.78,5.53-2.79l.77,1.37C523.14,483.24,521.23,484.2,519.31,485.06Zm-58.3-1c-1.88-.92-3.75-2-5.56-3l.82-1.34c1.76,1.07,3.59,2.07,5.43,3Zm68-4.37-.86-1.31c1.72-1.13,3.41-2.35,5-3.64l1,1.22C532.51,477.32,530.78,478.57,529,479.73Zm-77.54-1.28c-1.72-1.21-3.41-2.52-5-3.89l1-1.19c1.56,1.34,3.2,2.61,4.88,3.8Zm86.27-5.54-1.06-1.15c1.5-1.39,3-2.87,4.35-4.41l1.16,1C540.79,470,539.29,471.49,537.75,472.91ZM443,471.35c-1.5-1.47-3-3-4.31-4.63l1.19-1c1.33,1.57,2.75,3.1,4.21,4.54Zm102.28-6.59-1.24-1c1.27-1.62,2.48-3.32,3.59-5l1.32.84C547.79,461.37,546.56,463.1,545.26,464.76ZM435.73,463c-1.25-1.7-2.43-3.48-3.51-5.28l1.35-.81c1.05,1.77,2.2,3.5,3.42,5.16Zm115.64-7.47-1.38-.75c1-1.81,1.92-3.68,2.74-5.56l1.44.63C553.33,451.76,552.39,453.67,551.37,455.52Zm-121.45-2c-.95-1.88-1.83-3.82-2.6-5.77l1.45-.58c.76,1.91,1.62,3.81,2.55,5.64Zm126-8.12-1.48-.53c.7-1.94,1.31-3.93,1.82-5.92l1.52.39C557.25,441.41,556.63,443.44,555.92,445.43Zm-130.2-2.13c-.24-.73-.46-1.46-.67-2.21-.36-1.28-.7-2.6-1-3.9l1.53-.34c.29,1.27.61,2.56,1,3.82.2.72.42,1.44.65,2.16Zm133.08-8.58-1.54-.28c.37-2,.65-4.08.83-6.14l1.57.15C559.47,430.54,559.18,432.66,558.8,434.72Zm-135.61-2.21c-.31-2.07-.53-4.19-.65-6.3l1.56-.09c.12,2.06.33,4.13.64,6.16Zm136.72-8.81-1.56,0c0-.44,0-.87,0-1.3,0-1.62-.06-3.27-.18-4.9l1.56-.11c.12,1.66.19,3.35.19,5C559.93,422.81,559.92,423.26,559.91,423.7ZM424,421.48l-1.57,0c0-2.11.15-4.24.37-6.33l1.56.16C424.14,417.34,424,419.42,424,421.48Zm133.68-8.62c-.3-2-.69-4.08-1.17-6.09l1.53-.36c.49,2,.89,4.14,1.19,6.22ZM425,410.69l-1.54-.27c.36-2.07.83-4.15,1.39-6.18l1.51.41C425.82,406.64,425.37,408.67,425,410.69Zm130.27-8.4c-.61-2-1.32-3.92-2.11-5.82l1.45-.59c.8,1.93,1.53,3.93,2.16,5.95Zm-127.53-2.07-1.48-.52c.69-2,1.49-4,2.36-5.88l1.43.65C429.2,396.35,428.43,398.28,427.75,400.22Zm123.49-8c-.92-1.84-1.93-3.66-3-5.4l1.33-.83c1.12,1.79,2.15,3.65,3.09,5.53Zm-119.11-1.93-1.38-.75c1-1.85,2.11-3.68,3.27-5.42l1.31.87C434.19,386.72,433.11,388.51,432.13,390.32ZM545.64,383c-1.2-1.67-2.5-3.3-3.85-4.85l1.18-1c1.38,1.59,2.71,3.25,3.94,5ZM438,381.25l-1.24-1c1.28-1.66,2.66-3.29,4.09-4.83l1.15,1.07C440.64,378,439.29,379.62,438,381.25Zm100.57-6.48c-1.46-1.45-3-2.85-4.58-4.16l1-1.21c1.62,1.34,3.19,2.77,4.69,4.26Zm-93.29-1.53-1.07-1.15c1.54-1.43,3.16-2.82,4.82-4.1l1,1.24C448.41,370.48,446.82,371.83,445.32,373.24Zm85-5.47c-1.67-1.19-3.41-2.33-5.19-3.37l.79-1.35c1.82,1.06,3.61,2.23,5.31,3.45Zm-76.56-1.26-.87-1.3c1.76-1.18,3.58-2.28,5.43-3.28l.74,1.38C457.29,364.29,455.51,365.36,453.79,366.51Zm67.28-4.32c-1.84-.91-3.74-1.76-5.66-2.5l.57-1.46c2,.76,3.91,1.62,5.79,2.56Zm-57.82-.95-.65-1.43c1.9-.86,3.88-1.66,5.88-2.35l.51,1.47C467,359.62,465.11,360.39,463.25,361.24ZM511,358.16c-2-.61-4-1.14-6-1.56l.33-1.53c2.05.43,4.11,1,6.13,1.59Zm-38.17-.44-.43-1.51c2-.57,4.1-1.06,6.17-1.45l.28,1.54C476.86,356.68,474.83,357.16,472.85,357.72Zm27.61-1.92c-2-.29-4.11-.48-6.17-.58l.07-1.56c2.11.09,4.23.29,6.31.58Zm-17-.2-.19-1.55c2.1-.25,4.22-.4,6.33-.45l0,1.57C487.59,355.22,485.51,355.36,483.47,355.6Z" transform="translate(-50.56 0.53)"/><path class="cls-27" d="M491.18,486.93c-1,0-2.06,0-3.08-.07l.07-1.57a60.87,60.87,0,0,0,6.19,0l.08,1.57C493.35,486.9,492.26,486.93,491.18,486.93Zm-7.82-.48a63.28,63.28,0,0,1-6.25-1.08l.34-1.53c2,.45,4.06.81,6.1,1.06Zm15.82,0-.2-1.55c2-.26,4.09-.62,6.1-1.08l.34,1.53A62.65,62.65,0,0,1,499.18,486.43Zm-26.67-2.27c-2-.61-4-1.33-6-2.13l.6-1.45a61.1,61.1,0,0,0,5.82,2.08Zm37.51-.05-.46-1.5c1-.31,2-.64,3-1s1.91-.71,2.85-1.1L516,482c-1,.4-1.92.77-2.9,1.13S511,483.79,510,484.11Zm-47.81-4.05c-1.89-.95-3.74-2-5.52-3.12l.84-1.33a60.41,60.41,0,0,0,5.38,3Zm58.1-.08-.71-1.4a60.51,60.51,0,0,0,5.38-3.05l.84,1.32C524,478,522.19,479,520.31,480Zm-67.54-5.72a63.09,63.09,0,0,1-4.91-4l1.05-1.17A60.14,60.14,0,0,0,453.7,473Zm77-.1-.94-1.26c1.66-1.23,3.26-2.55,4.78-3.93l1,1.16C533.08,471.54,531.43,472.9,529.74,474.16Zm-85.29-7.23a63,63,0,0,1-4.15-4.79l1.23-1c1.27,1.62,2.63,3.19,4.05,4.67ZM538,466.8l-1.14-1.08c1.41-1.48,2.76-3.06,4-4.69l1.23,1A63.25,63.25,0,0,1,538,466.8Zm-100.52-8.51c-1.16-1.74-2.26-3.57-3.26-5.43l1.38-.74c1,1.81,2.05,3.6,3.19,5.3Zm107.42-.16-1.3-.87c1.13-1.71,2.2-3.49,3.16-5.31l1.39.74C547.19,454.55,546.1,456.38,544.93,458.13Zm-112.76-9.55c-.64-1.42-1.22-2.88-1.75-4.34-.18-.53-.37-1.05-.54-1.57l1.49-.5c.17.52.34,1,.53,1.54.51,1.42,1.08,2.85,1.7,4.23Zm118.09-.17-1.44-.64c.83-1.88,1.58-3.82,2.22-5.77l1.49.49C551.87,444.49,551.11,446.48,550.26,448.41ZM428.55,438.1c-.52-2-.94-4.14-1.26-6.21l1.55-.24c.31,2,.72,4.07,1.23,6.07Zm125.3-.18-1.52-.38c.5-2,.9-4,1.2-6.07l1.55.23A62.16,62.16,0,0,1,553.85,437.92ZM426.76,427.16c-.12-1.6-.18-3.23-.18-4.82,0-.51,0-1,0-1.52l1.56,0c0,.5,0,1,0,1.49,0,1.56.06,3.14.17,4.7ZM555.6,427l-1.56-.11c.11-1.5.16-3,.16-4.52,0-.56,0-1.11,0-1.66l1.57,0c0,.56,0,1.13,0,1.7C555.77,423.87,555.71,425.44,555.6,427ZM428.45,416.22l-1.56-.15a62.74,62.74,0,0,1,.93-6.27l1.53.3C429,412.12,428.65,414.18,428.45,416.22Zm125.44-.17c-.21-2-.52-4.1-.93-6.12l1.54-.31c.41,2.07.73,4.18.94,6.27ZM430.43,405.59l-1.51-.42c.56-2,1.23-4.06,2-6l1.46.56C431.63,401.63,431,403.6,430.43,405.59Zm121.44-.17c-.41-1.49-.89-3-1.42-4.45-.17-.48-.35-1-.53-1.42l1.46-.57c.19.48.37,1,.54,1.46.54,1.5,1,3,1.46,4.55Zm-117.68-10-1.42-.67c.9-1.91,1.91-3.79,3-5.6l1.35.81C436.05,391.75,435.07,393.58,434.19,395.45Zm113.9-.17c-.89-1.86-1.87-3.7-2.92-5.45l1.34-.81c1.08,1.8,2.09,3.68,3,5.59Zm-108.47-9.19-1.28-.9c1.21-1.72,2.52-3.4,3.89-5l1.19,1C442.08,382.77,440.8,384.41,439.62,386.09Zm103-.15c-1.19-1.68-2.47-3.32-3.81-4.87l1.18-1c1.38,1.59,2.69,3.27,3.91,5Zm-96.06-8.13-1.11-1.11a62.79,62.79,0,0,1,4.69-4.26l1,1.21C449.57,375,448,376.35,446.57,377.81Zm89.08-.13c-1.45-1.45-3-2.84-4.59-4.14l1-1.21c1.63,1.33,3.21,2.76,4.71,4.24Zm-80.81-6.84-.91-1.28c1.72-1.21,3.52-2.35,5.36-3.39l.77,1.36C458.27,368.55,456.51,369.66,454.84,370.84Zm72.52-.1c-1.69-1.17-3.45-2.28-5.24-3.29l.77-1.36c1.83,1,3.64,2.16,5.36,3.37Zm-63.18-5.34-.67-1.42c1.86-.88,3.8-1.68,5.76-2.39s4-1.35,6.07-1.86l.38,1.51c-2,.51-4,1.12-5.91,1.82S466,364.54,464.18,365.4Zm53.82-.08c-1.86-.87-3.78-1.67-5.72-2.36l.52-1.47a62.43,62.43,0,0,1,5.87,2.42Zm-10.15-3.75c-2-.55-4-1-6-1.35l.27-1.54a62.15,62.15,0,0,1,6.19,1.38Zm-27.59-1.3-.27-1.54c2.08-.37,4.2-.64,6.29-.8l.12,1.56C484.36,359.65,482.29,359.91,480.26,360.27Zm17-.67c-2-.19-4-.29-6.05-.29l-.14-1.57h.14c2.07,0,4.15.1,6.2.3Z" transform="translate(-50.56 0.53)"/><path class="cls-27" d="M491.26,483.12h-.71v-1.57h.7c1.82,0,3.66-.09,5.48-.26l.15,1.56C495,483,493.13,483.12,491.26,483.12Zm-5.47-.24a61.25,61.25,0,0,1-6.28-.9l.3-1.53a61.3,61.3,0,0,0,6.12.87Zm15.82-.66-.27-1.54a59.61,59.61,0,0,0,6-1.39l.43,1.51A60,60,0,0,1,501.61,482.22Zm-26.73-1.34a58.09,58.09,0,0,1-6-2l.57-1.45c1.91.75,3.89,1.41,5.86,2Zm37.43-1.56-.54-1.47c1.28-.48,2.56-1,3.81-1.57l1.87-.88.69,1.4c-.63.31-1.27.61-1.92.91C514.94,478.29,513.63,478.83,512.31,479.32ZM464.51,477c-1.9-.93-3.76-2-5.55-3.07l.83-1.33a60.47,60.47,0,0,0,5.41,3Zm57.81-2.42-.8-1.35a60.42,60.42,0,0,0,5.14-3.43l.93,1.25A59.74,59.74,0,0,1,522.32,474.53ZM455,471.2a57.31,57.31,0,0,1-4.9-4l1.06-1.15a59.83,59.83,0,0,0,4.77,3.92ZM531.29,468l-1-1.18a58,58,0,0,0,4.42-4.31l1.15,1.06A61.21,61.21,0,0,1,531.29,468Zm-84.54-4.18a59.26,59.26,0,0,1-4.08-4.86l1.25-1a60.34,60.34,0,0,0,4,4.74ZM538.92,460l-1.23-1a60.49,60.49,0,0,0,3.56-5.05l1.32.84C541.45,456.55,540.22,458.3,538.92,460Zm-99-4.9a59.84,59.84,0,0,1-3.13-5.52l1.4-.7a60.51,60.51,0,0,0,3,5.38Zm105-4.41-1.39-.73a57,57,0,0,0,2.59-5.61l1.46.58A62.62,62.62,0,0,1,545,450.65ZM434.87,445.2a61.57,61.57,0,0,1-2.09-6l1.51-.44a58.48,58.48,0,0,0,2,5.84Zm114.33-4.79-1.5-.47a58.4,58.4,0,0,0,1.53-6l1.54.31A61.55,61.55,0,0,1,549.2,440.41Zm-117.56-5.82a60.64,60.64,0,0,1-1-6.28l1.56-.15a60.06,60.06,0,0,0,.93,6.11Zm119.89-5-1.56-.18a57.94,57.94,0,0,0,.42-6.17l1.56,0A60.79,60.79,0,0,1,551.53,429.56Zm-121.13-6c0-.39,0-.79,0-1.19,0-1.71.07-3.45.22-5.15l1.56.13c-.14,1.66-.22,3.35-.22,5,0,.39,0,.78,0,1.16Zm119.88-5a60.11,60.11,0,0,0-.72-6.14l1.54-.26a58.17,58.17,0,0,1,.74,6.3Zm-117.54-5.82-1.54-.25a59.57,59.57,0,0,1,1.36-6.2l1.51.42A58.93,58.93,0,0,0,432.74,412.75ZM548.6,407.9a61.09,61.09,0,0,0-1.82-5.91l1.47-.54c.72,2,1.35,4,1.87,6.06Zm-113.13-5.61-1.48-.53a60.86,60.86,0,0,1,2.46-5.85l1.41.68A58.76,58.76,0,0,0,435.47,402.29ZM545,397.7a60.55,60.55,0,0,0-2.86-5.48l1.35-.8a58.88,58.88,0,0,1,2.93,5.63Zm-105-5.2-1.35-.79a62,62,0,0,1,3.47-5.31l1.27.93A59.73,59.73,0,0,0,440,392.5Zm99.61-4.18a61.75,61.75,0,0,0-3.8-4.87l1.18-1a61,61,0,0,1,3.91,5ZM446.3,383.7l-1.19-1a61.22,61.22,0,0,1,4.38-4.59l1.07,1.14A60,60,0,0,0,446.3,383.7Zm86.36-3.62A58.07,58.07,0,0,0,528,376l1-1.23a61.17,61.17,0,0,1,4.75,4.2Zm-78.6-3.89-1-1.22a61.15,61.15,0,0,1,5.15-3.71l.85,1.32A59.62,59.62,0,0,0,454.06,376.19Zm70.23-2.94a59.44,59.44,0,0,0-5.3-3.18l.74-1.38a61.59,61.59,0,0,1,5.44,3.26Zm-61.22-3-.74-1.38c1.23-.65,2.5-1.29,3.8-1.87a63.31,63.31,0,0,1,5.9-2.32l.5,1.49a61.36,61.36,0,0,0-5.76,2.26C465.51,369,464.27,369.58,463.07,370.22Zm51.75-2.16a56.17,56.17,0,0,0-5.79-2.17l.47-1.5c2,.64,4,1.39,5.94,2.23ZM477,364.85l-.37-1.52a62.29,62.29,0,0,1,6.23-1.21l.21,1.56A57.5,57.5,0,0,0,477,364.85Zm27.58-.19a60.73,60.73,0,0,0-6.09-1.09l.19-1.55a60.62,60.62,0,0,1,6.25,1.12Zm-16.89-1.44-.1-1.56a61.18,61.18,0,0,1,6.35-.05l-.07,1.57A60.68,60.68,0,0,0,487.67,363.22Z" transform="translate(-50.56 0.53)"/><path class="cls-27" d="M489.76,479.71a56.05,56.05,0,0,1-6.33-.51l.21-1.55a55.39,55.39,0,0,0,6.16.5Zm4.76-.07-.09-1.57a52.93,52.93,0,0,0,6.14-.7l.26,1.55A58,58,0,0,1,494.52,479.64Zm-15.78-1.28a57.57,57.57,0,0,1-6.11-1.72l.5-1.48a57.62,57.62,0,0,0,5.95,1.67Zm26.75-.44-.39-1.51a58.23,58.23,0,0,0,5.88-1.88l.56,1.46A53.83,53.83,0,0,1,505.49,477.92Zm-37.3-3a56.68,56.68,0,0,1-5.67-2.85l.78-1.36a55.79,55.79,0,0,0,5.52,2.77Zm47.73-.8-.68-1.42c1.13-.53,2.26-1.12,3.36-1.75.7-.39,1.39-.8,2.06-1.22l.83,1.34c-.7.43-1.4.84-2.12,1.25C518.24,473,517.07,473.57,515.92,474.12Zm-57.43-4.6a58.85,58.85,0,0,1-5-3.89l1-1.18a56.14,56.14,0,0,0,4.87,3.79Zm66.94-1.13-.94-1.26a54.34,54.34,0,0,0,4.75-3.95l1.07,1.15A59,59,0,0,1,525.43,468.39Zm-75.4-6a57.68,57.68,0,0,1-4.17-4.79l1.24-1a54.74,54.74,0,0,0,4,4.66Zm83.62-1.42-1.16-1.05a54.22,54.22,0,0,0,3.89-4.79l1.27.92A54,54,0,0,1,533.65,460.94Zm-90.55-7.26c-.67-1-1.31-2.08-1.91-3.14-.44-.78-.86-1.57-1.26-2.36l1.4-.71c.39.77.8,1.54,1.23,2.3.58,1,1.21,2.06,1.86,3.06Zm97.18-1.63-1.34-.81a55.87,55.87,0,0,0,2.9-5.46l1.42.66A60.21,60.21,0,0,1,540.28,452.05ZM438,443.84a58.93,58.93,0,0,1-2-6l1.5-.43a58.45,58.45,0,0,0,2,5.85ZM545.08,442l-1.48-.53a56,56,0,0,0,1.8-5.92l1.52.38A58.87,58.87,0,0,1,545.08,442ZM434.81,433.2a55.44,55.44,0,0,1-.85-6.3l1.56-.12a54.54,54.54,0,0,0,.83,6.12Zm113.05-1.9-1.55-.25a54.81,54.81,0,0,0,.63-6.14l1.57.07A58.33,58.33,0,0,1,547.86,431.3Zm-112.51-9.15h-1.57a56,56,0,0,1,.38-6.34l1.55.17A55.5,55.5,0,0,0,435.35,422.15ZM547,420.27a52.85,52.85,0,0,0-.57-6.15l1.55-.23a56,56,0,0,1,.58,6.33Zm-110.54-8.86-1.53-.31a57.79,57.79,0,0,1,1.58-6.15l1.5.48A56.45,56.45,0,0,0,436.43,411.41Zm109.1-1.84a55.76,55.76,0,0,0-1.75-5.92l1.48-.53a59,59,0,0,1,1.8,6.09Zm-106-8.49-1.45-.6a57.78,57.78,0,0,1,2.73-5.73l1.38.75A54.81,54.81,0,0,0,439.56,401.08Zm102.49-1.73c-.69-1.51-1.45-3-2.26-4.44-.19-.35-.39-.69-.6-1l1.35-.79c.21.35.41.7.61,1.06.84,1.48,1.62,3,2.32,4.56Zm-97.44-7.82-1.31-.86a57.42,57.42,0,0,1,3.79-5.09l1.2,1A55.67,55.67,0,0,0,444.61,391.53ZM536.67,390a56.1,56.1,0,0,0-3.84-4.83l1.17-1a57.25,57.25,0,0,1,4,5Zm-85.27-6.84-1.12-1.1a55.71,55.71,0,0,1,4.71-4.26l1,1.21A55.91,55.91,0,0,0,451.4,383.15Zm78.2-1.32a54.12,54.12,0,0,0-4.7-4l.94-1.25a57.29,57.29,0,0,1,4.84,4.1Zm-69.91-5.59-.88-1.3c1.34-.91,2.74-1.78,4.17-2.58a56.76,56.76,0,0,1,5.69-2.82l.61,1.44a58.14,58.14,0,0,0-5.54,2.74C462.36,374.5,461,375.35,459.69,376.24Zm61.4-1a55.7,55.7,0,0,0-5.39-3l.69-1.41a60.09,60.09,0,0,1,5.54,3.09Zm-9.63-4.87a55.87,55.87,0,0,0-5.87-1.92l.4-1.51a56.58,56.58,0,0,1,6,2Zm-37.84-1-.5-1.49a59,59,0,0,1,6.13-1.66l.33,1.53A55.17,55.17,0,0,0,473.62,369.34Zm27.45-1.94a55.46,55.46,0,0,0-6.13-.76l.1-1.56a55.87,55.87,0,0,1,6.3.78ZM484.14,367l-.19-1.56a58.18,58.18,0,0,1,6.33-.44l0,1.56A55.29,55.29,0,0,0,484.14,367Z" transform="translate(-50.56 0.53)"/><path class="cls-27" d="M491.22,476.85c-.66,0-1.32,0-2,0l.05-1.57a51,51,0,0,0,6.18-.13l.12,1.56C494.14,476.79,492.67,476.85,491.22,476.85Zm-6.73-.42a54.94,54.94,0,0,1-6.25-1.14l.37-1.53a54,54,0,0,0,6.07,1.12Zm15.83-.35-.26-1.54a53.43,53.43,0,0,0,6-1.39l.44,1.5A52.38,52.38,0,0,1,500.32,476.08ZM473.66,474a54.91,54.91,0,0,1-5.89-2.38l.68-1.41a53.65,53.65,0,0,0,5.71,2.31Zm37.37-.84-.58-1.46a54.69,54.69,0,0,0,5.61-2.58l.74,1.38A56.71,56.71,0,0,1,511,473.11Zm-47.47-3.77a53.92,53.92,0,0,1-5.28-3.53l1-1.24a53,53,0,0,0,5.12,3.42ZM520.9,468l-.86-1.31c.54-.35,1.07-.7,1.59-1.07,1.17-.83,2.31-1.7,3.38-2.59l1,1.21c-1.1.91-2.28,1.81-3.48,2.66C522,467.3,521.45,467.67,520.9,468Zm-66.29-5.25a54.37,54.37,0,0,1-4.45-4.53l1.18-1a52.79,52.79,0,0,0,4.32,4.4Zm74.94-1.72-1.11-1.11a51.39,51.39,0,0,0,4.13-4.59l1.22,1A52.68,52.68,0,0,1,529.55,461.05Zm-82.36-6.53-.6-.83c-1-1.45-2-3-2.85-4.5l1.36-.78c.85,1.5,1.78,3,2.77,4.38l.58.81Zm89.41-2-1.31-.86a54.47,54.47,0,0,0,3.11-5.33l1.4.7A55.37,55.37,0,0,1,536.6,452.48Zm-95-7.54a55.29,55.29,0,0,1-2.3-5.92l1.49-.48a55.07,55.07,0,0,0,2.23,5.75Zm100.19-2.29-1.45-.58a53.49,53.49,0,0,0,2-5.85l1.51.41A53.79,53.79,0,0,1,541.76,442.65ZM438,434.42a57.72,57.72,0,0,1-1-6.27l1.56-.17a54.46,54.46,0,0,0,1,6.09ZM544.82,432l-1.54-.28a54.83,54.83,0,0,0,.74-6.13l1.56.1A55.72,55.72,0,0,1,544.82,432Zm-108.14-8.59c0-.33,0-.67,0-1a53,53,0,0,1,.26-5.34l1.56.15c-.17,1.73-.26,3.47-.26,5.19,0,.33,0,.66,0,1Zm107.42-2.45a52.77,52.77,0,0,0-.52-6.15l1.55-.22a55.91,55.91,0,0,1,.54,6.33Zm-105-8.33-1.54-.29a57.08,57.08,0,0,1,1.52-6.16l1.5.46A51.85,51.85,0,0,0,439.14,412.61Zm103.59-2.37a53.4,53.4,0,0,0-1.76-5.91l1.47-.53a54.49,54.49,0,0,1,1.81,6.09Zm-100.55-8-1.45-.59a55.7,55.7,0,0,1,2.74-5.73l1.38.76A52.53,52.53,0,0,0,442.18,402.26Zm97-2.21a54.58,54.58,0,0,0-2.92-5.43l1.33-.83a55.92,55.92,0,0,1,3,5.6Zm-91.94-7.3-1.3-.88a55.15,55.15,0,0,1,3.85-5.05l1.19,1A52.1,52.1,0,0,0,447.26,392.75Zm86.42-2a54.47,54.47,0,0,0-4-4.73l1.15-1.08a56,56,0,0,1,4.07,4.88Zm-79.51-6.31-1.1-1.12a57.82,57.82,0,0,1,4.8-4.17l1,1.25A51.3,51.3,0,0,0,454.17,384.47Zm72.24-1.66a53.75,53.75,0,0,0-4.83-3.83l.9-1.28a55.43,55.43,0,0,1,5,3.94ZM460.72,379l-.9-1.29a57.76,57.76,0,0,1,5.4-3.35l.75,1.38A54.63,54.63,0,0,0,460.72,379Zm57-2.55a53.61,53.61,0,0,0-5.52-2.76l.62-1.44a52.86,52.86,0,0,1,5.68,2.85Zm-47.55-2.74-.63-1.44a55.34,55.34,0,0,1,6-2.18l.45,1.5A52.09,52.09,0,0,0,470.13,373.75Zm37.7-1.67a53.4,53.4,0,0,0-6-1.59l.32-1.53a52.27,52.27,0,0,1,6.13,1.64Zm-27.42-1.59-.32-1.53a53.56,53.56,0,0,1,6.29-.92l.13,1.56A50.37,50.37,0,0,0,480.41,370.49Zm16.89-.73a50.79,50.79,0,0,0-6.16-.37v-1.56a53.66,53.66,0,0,1,6.34.37Z" transform="translate(-50.56 0.53)"/></g><path class="cls-33" d="M452,383.14h0a.78.78,0,0,1-.76-.8c.07-3,.91-5.25,2.47-6.7a6,6,0,0,1,4.13-1.59.78.78,0,0,1,.74.82.76.76,0,0,1-.82.74,4.46,4.46,0,0,0-3,1.21c-1.23,1.14-1.88,3-1.95,5.56A.78.78,0,0,1,452,383.14Z" transform="translate(-50.56 0.53)"/><path class="cls-9" d="M457,389.61h0a.78.78,0,0,1-.77-.8c0-.46.15-4.53,2.5-5.79,1.21-.64,2.68-.41,4.39.69a.8.8,0,0,1,.23,1.09.79.79,0,0,1-1.09.23c-1.18-.77-2.12-1-2.79-.62-1.31.69-1.66,3.5-1.68,4.43A.77.77,0,0,1,457,389.61Z" transform="translate(-50.56 0.53)"/></g><g id="Hand"><path class="cls-23" d="M518.92,524S469,465.13,451.47,469.64s-19.75,32.85-7.42,40.74,62,33.68,71.91,34.18c0,0,16.08,5.71,25.55-18.08,4.33-10.88,39.64-77.24,34.21-81.66s-54.85,66-56.8,79.13Z" transform="translate(-50.56 0.53)"/><g class="cls-52"><path class="cls-22" d="M566.56,442.58s-33.28,55.81-39.16,75.78-13.71-7.05-13.71-7.05Z" transform="translate(-50.56 0.53)"/><path class="cls-22" d="M483.15,514.45s13.9,37.2,57,26.63l43.08-10.58-80.68,26.44-30.35-15.27Z" transform="translate(-50.56 0.53)"/></g><path class="cls-23" d="M568.13,456.09S569.81,441,572,436s-1.51-13.74,1.37-16c1.71-1.34,4.35,11.43,4.35,11.43s2.08-5.21,1.88-8.63,3.67.37,4.56,7.76,1.41,24-11.71,26.64C569.05,457.88,568.13,456.09,568.13,456.09Z" transform="translate(-50.56 0.53)"/><path class="cls-45" d="M438.9,469.89s-20.55,32,7.36,48.12,38.53,19.79,38.53,19.79S490,512.32,498.87,503c0,0-34.53-57.09-60-33.08Z" transform="translate(-50.56 0.53)"/><g class="cls-53"><path class="cls-47" d="M494.39,539c-2.57-1.08-63.08-27-69.73-59.44l6.14-1.25c6,29.23,65.43,54.67,66,54.92Z" transform="translate(-50.56 0.53)"/><path class="cls-47" d="M496.48,511.43c-40.1-47.24-67-46.92-67.32-46.92l-.27-6.26c1.18-.08,29.95-.84,72.37,49.12Z" transform="translate(-50.56 0.53)"/><path class="cls-47" d="M502.78,531.81c-45.7-29.68-76.19-60.35-76.5-60.66l4.46-4.4c.3.3,30.35,30.51,75.46,59.81Z" transform="translate(-50.56 0.53)"/></g></g></g></g><g id="Woman"><path class="cls-22" d="M782,378s-77.77-40.69-87.27-39.9,69.86,56.57,84.77,62.23S786,383.16,782,378Z" transform="translate(-50.56 0.53)"/><path class="cls-22" d="M701.17,342.81s-4-7.05-6-8.71-19.68.47-19.14,5.52H687.9s1.25,4.7-1.32,4.7c-5,0-7.05,3.89-2.4,3.55s15.2.5,18.36-2.51S701.17,342.81,701.17,342.81Z" transform="translate(-50.56 0.53)"/><path class="cls-21" d="M730.35,351.56,720.29,370s49.29,36.11,65.35,37.5,5-30.3-1.51-36.84-53.78-19.06-53.78-19.06Z" transform="translate(-50.56 0.53)"/><g class="cls-54"><path class="cls-30" d="M716.23,358.25s26.33,27.13,38.69,26.63,11.86-27.15,11.86-27.15l14.14,35-23.11,25.43-42.57-20.87Z" transform="translate(-50.56 0.53)"/></g><path class="cls-22" d="M760.79,307.17s-14.28,19-15.29,37.51-4.06,19.74,8,22.25,20.23,3.6,28-7,19.3-68.44-20.64-52.8Z" transform="translate(-50.56 0.53)"/><path class="cls-22" d="M766.78,395.16s26.63-4.68,28.28-15.53c0,0-11.16-12.43-12-34.95l-14.27,5.15S767.72,375.56,766.78,395.16Z" transform="translate(-50.56 0.53)"/><g id="Foot-2" data-name="Foot"><path class="cls-23" d="M823.61,479.15l-12.45,8.3S826.6,576.72,831.31,595s31.4,101.52,31.4,101.52l13,.81s-10-83-11.72-100.92-8.26-63.85-7.07-74.67,2.49-22.62-11.11-33.17-22.22-9.45-22.22-9.45Z" transform="translate(-50.56 0.53)"/><g class="cls-55"><path class="cls-22" d="M828,518.91s2.28,31.45,7.47,58.75,14.23,40.77,13.83,46.64,13.31,77.55,16.84,81.63-39.64-8.57-39.64-8.57l-27.83-94.14S789.5,525.56,828,518.91Z" transform="translate(-50.56 0.53)"/><path class="cls-9" d="M824.11,510.18a26.29,26.29,0,1,1,26.29-26.29A26.32,26.32,0,0,1,824.11,510.18Zm0-51a24.73,24.73,0,1,0,24.73,24.72A24.75,24.75,0,0,0,824.11,459.17Z" transform="translate(-50.56 0.53)"/><path class="cls-9" d="M824.11,521.5a37.61,37.61,0,1,1,37.61-37.61A37.65,37.65,0,0,1,824.11,521.5Zm0-73.65a36,36,0,1,0,36,36A36.08,36.08,0,0,0,824.11,447.85Z" transform="translate(-50.56 0.53)"/><path class="cls-9" d="M824.11,532.81A48.92,48.92,0,1,1,873,483.89,49,49,0,0,1,824.11,532.81Zm0-96.27a47.36,47.36,0,1,0,47.35,47.35A47.4,47.4,0,0,0,824.11,436.54Z" transform="translate(-50.56 0.53)"/><path class="cls-9" d="M824.11,544.13a60.24,60.24,0,1,1,60.24-60.24A60.3,60.3,0,0,1,824.11,544.13Zm0-118.91a58.67,58.67,0,1,0,58.67,58.67A58.74,58.74,0,0,0,824.11,425.22Z" transform="translate(-50.56 0.53)"/><path class="cls-9" d="M824.11,555.44a71.55,71.55,0,1,1,71.55-71.55A71.63,71.63,0,0,1,824.11,555.44Zm0-141.53a70,70,0,1,0,70,70A70.06,70.06,0,0,0,824.11,413.91Z" transform="translate(-50.56 0.53)"/><path class="cls-9" d="M824.11,566.76A82.87,82.87,0,1,1,907,483.89,83,83,0,0,1,824.11,566.76Zm0-164.16a81.3,81.3,0,1,0,81.3,81.29A81.39,81.39,0,0,0,824.11,402.6Z" transform="translate(-50.56 0.53)"/><path class="cls-9" d="M824.11,578.07a94.18,94.18,0,1,1,94.18-94.18A94.29,94.29,0,0,1,824.11,578.07Zm0-186.79a92.62,92.62,0,1,0,92.61,92.61A92.72,92.72,0,0,0,824.11,391.28Z" transform="translate(-50.56 0.53)"/><path class="cls-9" d="M824.11,589.39A105.5,105.5,0,1,1,929.6,483.89,105.61,105.61,0,0,1,824.11,589.39Zm0-209.42A103.93,103.93,0,1,0,928,483.89,104,104,0,0,0,824.11,380Z" transform="translate(-50.56 0.53)"/><path class="cls-9" d="M824.11,600.7A116.81,116.81,0,1,1,940.92,483.89,116.94,116.94,0,0,1,824.11,600.7Zm0-232.05A115.24,115.24,0,1,0,939.35,483.89,115.38,115.38,0,0,0,824.11,368.65Z" transform="translate(-50.56 0.53)"/><path class="cls-9" d="M824.11,612A128.12,128.12,0,1,1,952.23,483.89,128.27,128.27,0,0,1,824.11,612Zm0-254.67A126.56,126.56,0,1,0,950.66,483.89,126.69,126.69,0,0,0,824.11,357.34Z" transform="translate(-50.56 0.53)"/><path class="cls-9" d="M824.11,623.33c-76.89,0-139.43-62.55-139.43-139.44s62.54-139.43,139.43-139.43S963.55,407,963.55,483.89,901,623.33,824.11,623.33Zm0-277.31c-76,0-137.87,61.85-137.87,137.87s61.85,137.87,137.87,137.87S962,559.91,962,483.89,900.13,346,824.11,346Z" transform="translate(-50.56 0.53)"/><path class="cls-9" d="M824.11,634.64C741,634.64,673.36,567,673.36,483.89S741,333.14,824.11,333.14s150.75,67.63,150.75,150.75S907.23,634.64,824.11,634.64Zm0-299.93c-82.26,0-149.18,66.92-149.18,149.18s66.92,149.19,149.18,149.19,149.18-66.93,149.18-149.19S906.37,334.71,824.11,334.71Z" transform="translate(-50.56 0.53)"/><path class="cls-9" d="M824.11,646c-89.36,0-162.06-72.7-162.06-162.07s72.7-162.06,162.06-162.06,162.07,72.7,162.07,162.06S913.47,646,824.11,646Zm0-322.56c-88.5,0-160.5,72-160.5,160.49s72,160.5,160.5,160.5,160.5-72,160.5-160.5S912.61,323.4,824.11,323.4Z" transform="translate(-50.56 0.53)"/><path class="cls-9" d="M824.11,657.27c-95.6,0-173.38-77.78-173.38-173.38s77.78-173.38,173.38-173.38,173.38,77.78,173.38,173.38S919.71,657.27,824.11,657.27Zm0-345.19c-94.74,0-171.81,77.08-171.81,171.81s77.07,171.82,171.81,171.82,171.81-77.08,171.81-171.82S918.85,312.08,824.11,312.08Z" transform="translate(-50.56 0.53)"/><path class="cls-9" d="M824.11,668.59c-101.84,0-184.69-82.86-184.69-184.7S722.27,299.2,824.11,299.2s184.69,82.85,184.69,184.69S926,668.59,824.11,668.59Zm0-367.82c-101,0-183.13,82.15-183.13,183.12S723.13,667,824.11,667s183.13-82.15,183.13-183.13S925.09,300.77,824.11,300.77Z" transform="translate(-50.56 0.53)"/><path class="cls-9" d="M824.11,679.9c-108.08,0-196-87.93-196-196s87.93-196,196-196,196,87.92,196,196S932.19,679.9,824.11,679.9Zm0-390.45c-107.22,0-194.44,87.23-194.44,194.44s87.22,194.44,194.44,194.44,194.44-87.22,194.44-194.44S931.33,289.45,824.11,289.45Z" transform="translate(-50.56 0.53)"/><path class="cls-9" d="M824.11,691.22c-114.32,0-207.32-93-207.32-207.33s93-207.32,207.32-207.32,207.32,93,207.32,207.32S938.43,691.22,824.11,691.22Zm0-413.08c-113.45,0-205.76,92.3-205.76,205.75s92.31,205.76,205.76,205.76,205.76-92.3,205.76-205.76S937.57,278.14,824.11,278.14Z" transform="translate(-50.56 0.53)"/><path class="cls-9" d="M824.11,702.53c-120.56,0-218.64-98.08-218.64-218.64s98.08-218.63,218.64-218.63,218.64,98.08,218.64,218.63S944.67,702.53,824.11,702.53Zm0-435.71C704.42,266.82,607,364.2,607,483.89S704.42,701,824.11,701s217.07-97.37,217.07-217.07S943.8,266.82,824.11,266.82Z" transform="translate(-50.56 0.53)"/></g><path class="cls-23" d="M784.28,514.51s-21.42,66.52-25,86.16-22.38,108.09-22.38,108.09L750,714s28.08-71.77,35.75-97.45c0,0,39.15-69.59,42.25-97.6s-6.85-26.42-6.85-26.42l-36.87,22Z" transform="translate(-50.56 0.53)"/><g class="cls-56"><path class="cls-22" d="M823.06,499.37S784.2,535,780.92,554.59s-9.55,53.26-11.12,60.7-27,63.06-28.19,93.21-25.93-30.4-25.93-30.4l48.64-138.39,37.6-41.12Z" transform="translate(-50.56 0.53)"/><path class="cls-9" d="M826.5,510.18a26.29,26.29,0,1,1,26.29-26.29A26.32,26.32,0,0,1,826.5,510.18Zm0-51a24.73,24.73,0,1,0,24.72,24.72A24.75,24.75,0,0,0,826.5,459.17Z" transform="translate(-50.56 0.53)"/><path class="cls-9" d="M826.5,521.5a37.61,37.61,0,1,1,37.6-37.61A37.65,37.65,0,0,1,826.5,521.5Zm0-73.65a36,36,0,1,0,36,36A36.08,36.08,0,0,0,826.5,447.85Z" transform="translate(-50.56 0.53)"/><path class="cls-9" d="M826.5,532.81a48.92,48.92,0,1,1,48.92-48.92A49,49,0,0,1,826.5,532.81Zm0-96.27a47.36,47.36,0,1,0,47.35,47.35A47.4,47.4,0,0,0,826.5,436.54Z" transform="translate(-50.56 0.53)"/><path class="cls-9" d="M826.5,544.13a60.24,60.24,0,1,1,60.23-60.24A60.3,60.3,0,0,1,826.5,544.13Zm0-118.91a58.67,58.67,0,1,0,58.66,58.67A58.74,58.74,0,0,0,826.5,425.22Z" transform="translate(-50.56 0.53)"/><path class="cls-9" d="M826.5,555.44a71.55,71.55,0,1,1,71.55-71.55A71.62,71.62,0,0,1,826.5,555.44Zm0-141.53a70,70,0,1,0,70,70A70.07,70.07,0,0,0,826.5,413.91Z" transform="translate(-50.56 0.53)"/><path class="cls-9" d="M826.5,566.76a82.87,82.87,0,1,1,82.86-82.87A83,83,0,0,1,826.5,566.76Zm0-164.16a81.3,81.3,0,1,0,81.29,81.29A81.39,81.39,0,0,0,826.5,402.6Z" transform="translate(-50.56 0.53)"/><path class="cls-9" d="M826.5,578.07a94.18,94.18,0,1,1,94.17-94.18A94.29,94.29,0,0,1,826.5,578.07Zm0-186.79a92.62,92.62,0,1,0,92.61,92.61A92.72,92.72,0,0,0,826.5,391.28Z" transform="translate(-50.56 0.53)"/><path class="cls-9" d="M826.5,589.39A105.5,105.5,0,1,1,932,483.89,105.62,105.62,0,0,1,826.5,589.39Zm0-209.42A103.93,103.93,0,1,0,930.42,483.89,104,104,0,0,0,826.5,380Z" transform="translate(-50.56 0.53)"/><path class="cls-9" d="M826.5,600.7A116.81,116.81,0,1,1,943.3,483.89,116.94,116.94,0,0,1,826.5,600.7Zm0-232.05A115.24,115.24,0,1,0,941.74,483.89,115.37,115.37,0,0,0,826.5,368.65Z" transform="translate(-50.56 0.53)"/><path class="cls-9" d="M826.5,612A128.27,128.27,0,0,1,698.37,483.89c0-70.64,57.48-128.12,128.13-128.12a128.12,128.12,0,0,1,0,256.24Zm0-254.67A126.56,126.56,0,1,0,953.05,483.89,126.7,126.7,0,0,0,826.5,357.34Z" transform="translate(-50.56 0.53)"/><path class="cls-9" d="M826.5,623.33c-76.89,0-139.44-62.55-139.44-139.44S749.61,344.46,826.5,344.46,965.93,407,965.93,483.89,903.38,623.33,826.5,623.33Zm0-277.31c-76,0-137.87,61.85-137.87,137.87S750.47,621.76,826.5,621.76s137.87-61.85,137.87-137.87S902.52,346,826.5,346Z" transform="translate(-50.56 0.53)"/><path class="cls-9" d="M826.5,634.64c-83.13,0-150.75-67.62-150.75-150.75S743.37,333.14,826.5,333.14s150.75,67.63,150.75,150.75S909.62,634.64,826.5,634.64Zm0-299.93c-82.26,0-149.19,66.92-149.19,149.18S744.24,633.08,826.5,633.08s149.18-66.93,149.18-149.19S908.76,334.71,826.5,334.71Z" transform="translate(-50.56 0.53)"/><path class="cls-9" d="M826.5,646c-89.37,0-162.07-72.7-162.07-162.07s72.7-162.06,162.07-162.06,162.06,72.7,162.06,162.06S915.86,646,826.5,646Zm0-322.56c-88.5,0-160.5,72-160.5,160.49s72,160.5,160.5,160.5,160.5-72,160.5-160.5S915,323.4,826.5,323.4Z" transform="translate(-50.56 0.53)"/><path class="cls-9" d="M826.5,657.27c-95.61,0-173.38-77.78-173.38-173.38S730.89,310.51,826.5,310.51s173.38,77.78,173.38,173.38S922.1,657.27,826.5,657.27Zm0-345.19c-94.74,0-171.82,77.08-171.82,171.81S731.76,655.71,826.5,655.71s171.81-77.08,171.81-171.82S921.23,312.08,826.5,312.08Z" transform="translate(-50.56 0.53)"/><path class="cls-9" d="M826.5,668.59c-101.84,0-184.7-82.86-184.7-184.7S724.66,299.2,826.5,299.2s184.69,82.85,184.69,184.69S928.34,668.59,826.5,668.59Zm0-367.82c-101,0-183.13,82.15-183.13,183.12S725.52,667,826.5,667s183.12-82.15,183.12-183.13S927.47,300.77,826.5,300.77Z" transform="translate(-50.56 0.53)"/><path class="cls-9" d="M826.5,679.9c-108.08,0-196-87.93-196-196s87.93-196,196-196,196,87.92,196,196S934.58,679.9,826.5,679.9Zm0-390.45c-107.22,0-194.45,87.23-194.45,194.44S719.28,678.33,826.5,678.33s194.44-87.22,194.44-194.44S933.71,289.45,826.5,289.45Z" transform="translate(-50.56 0.53)"/><path class="cls-9" d="M826.5,691.22c-114.32,0-207.33-93-207.33-207.33s93-207.32,207.33-207.32,207.32,93,207.32,207.32S940.81,691.22,826.5,691.22Zm0-413.08c-113.46,0-205.76,92.3-205.76,205.75S713,689.65,826.5,689.65s205.75-92.3,205.75-205.76S940,278.14,826.5,278.14Z" transform="translate(-50.56 0.53)"/><path class="cls-9" d="M826.5,702.53c-120.56,0-218.64-98.08-218.64-218.64S705.94,265.26,826.5,265.26s218.63,98.08,218.63,218.63S947.05,702.53,826.5,702.53Zm0-435.71c-119.7,0-217.07,97.38-217.07,217.07S706.8,701,826.5,701s217.07-97.37,217.07-217.07S946.19,266.82,826.5,266.82Z" transform="translate(-50.56 0.53)"/></g><path class="cls-45" d="M878.39,710a2.46,2.46,0,0,0,2.42-2.81c-.52-3.83-2-10.55-6-13.48-5.71-4.21-12.61-2.34-12.61-2.34A62.8,62.8,0,0,0,851,698.09c-5.9,4.37-15.75-.44-15.52,10.19a2,2,0,0,0,2,1.93Z" transform="translate(-50.56 0.53)"/><path class="cls-45" d="M752.37,716.31a3.58,3.58,0,0,0,3.46-2.41c1.43-4.1,3.39-12.16-1.87-15-7.19-3.87-16.27-4.87-21-.66-4.52,4-17.11,6.45-17.28,16a1.39,1.39,0,0,0,1.36,1.41Z" transform="translate(-50.56 0.53)"/></g><path class="cls-22" d="M723.28,448.41s43.54-44.28,55.18-42.45,14.27,13.48,12.06,23-53.18,40.66-64.46,43.53-79.35-41.38-86.74-53.2Z" transform="translate(-50.56 0.53)"/><path class="cls-22" d="M649.86,425.35s-1.07-5.41-8.32-8.29c-3.81-1.52-5.58-5.86-7.83-4.83s5.94,9.11,1.24,9.11a87.18,87.18,0,0,0-12.5,1.5s6.36,6.47,12.17,5.58a97.66,97.66,0,0,1,14.17-1.11Z" transform="translate(-50.56 0.53)"/><ellipse class="cls-3" cx="699.98" cy="335.8" rx="1.57" ry="2.35"/><ellipse class="cls-1" cx="699.32" cy="336.17" rx="0.52" ry="0.77"/><path class="cls-10" d="M754.92,331.55a.78.78,0,0,1-.78-.7,3.31,3.31,0,0,0-1.36-2.75c-1.38-.78-3.44.17-3.46.18a.79.79,0,0,1-1.05-.37.78.78,0,0,1,.37-1c.12-.06,2.81-1.32,4.91-.14,1.23.69,2,2,2.15,4a.79.79,0,0,1-.7.86Z" transform="translate(-50.56 0.53)"/><g id="Hair"><path class="cls-45" d="M791.24,352.46c-2,4.29-12.74,18.74-18.61,9.34-3.26-5.21-4.5-16.31-5-25.18a3.12,3.12,0,0,0-5.89-1.27l-4.66,9,2.11-26c-4.65.75-8.49,6.47-8.49,6.47s-8.85-6.55-9.41-15,8.19-13.31,25.45-17S788,300.58,788,300.58C803.31,308.61,793.18,348.15,791.24,352.46Z" transform="translate(-50.56 0.53)"/><path class="cls-57" d="M764.32,314.91c-.67,5.84-4.1,19.18-6.49,28l-.71,1.36,2.11-26c-4.65.75-8.48,6.47-8.48,6.47s-8.86-6.54-9.42-15c-.25-3.8,1.4-6.88,4.87-9.46-1.39,5.74-1.49,11.85,3.76,13.29C760.4,316.48,765.36,305.77,764.32,314.91Z" transform="translate(-50.56 0.53)"/><path class="cls-57" d="M780.15,364.3c-2.72,1.17-5.44.84-7.52-2.51-3.26-5.2-4.5-16.3-5-25.17a3,3,0,0,0-1.27-2.36c2.23-2.22,4.39-3.23,6-1.6C777.54,337.79,765.07,360.09,780.15,364.3Z" transform="translate(-50.56 0.53)"/></g><path class="cls-58" d="M747.33,339.93c-.14-.05-5-2.63-5.48.79s6.12,4.64,6.12,4.64Z" transform="translate(-50.56 0.53)"/><path class="cls-21" d="M774.92,536.29s-10.69-27.44-8.14-64.09S749.41,424,762,397.63s35-25.1,37-22.22,18.23,15.73,26.84,41.67,11.43,40.1,20.31,58.64,7.72,21.74,7.72,21.74-10.48-4.76-30.89,6.72-48.12,32.11-48.12,32.11Z" transform="translate(-50.56 0.53)"/><g class="cls-59"><path class="cls-30" d="M803.75,364.92S772,377,772.67,415.43s16.76,64.23,18.56,72.06-19.27,12-6.12,45.43-36.46,23-36.46,23L711.58,418.14,779.53,346Z" transform="translate(-50.56 0.53)"/><path class="cls-31" d="M803.87,368.62s16.55,39.17,19.59,54.22,3.63,29.14,5.14,32.27,7.87,3.16,6.26,11.57,19.78,17.9,19.07,30.78,15.35-10.23,15.35-10.23l-12.87-64.39Z" transform="translate(-50.56 0.53)"/></g><path class="cls-21" d="M687.58,428.49l35.08,13.93s31.12-36.38,53.06-40.37,27.51,19.6,19.44,33.76-62.39,40.9-70.28,43-50.38-30.4-50.38-30.4l13.08-19.93Z" transform="translate(-50.56 0.53)"/><g class="cls-60"><path class="cls-30" d="M792.78,397.27s-25.85,5.37-42.56,28.6-29.93,34.21-29.93,34.21,5.72-10.57,0-12.88-41.35-19.52-41.35-19.52L692.78,410Z" transform="translate(-50.56 0.53)"/></g></g><g id="Man_2" data-name="Man 2"><g id="Man-2" data-name="Man"><path class="cls-21" d="M172.13,206.56c-23.69,13,66.85-31.22,76.26-30.79,7.71.19,11.47,7-.26,19.28-18.12,19-55.39,31.55-74.06,38.14-30.75,10.86-15.35-18.3-1.94-26.63Z" transform="translate(-50.56 0.53)"/><path class="cls-30" d="M240.88,177.82a7.13,7.13,0,0,1-3.29,1.46C202.13,194.35,202,215.79,202,215.79L188.33,199.1C205.27,190.83,228.61,182.39,240.88,177.82Z" transform="translate(-50.56 0.53)"/><g id="Foot-3" data-name="Foot"><path class="cls-61" d="M122,355.84s-16,20.28-10.16,39.4,1,12.12.7,61.95,1.4,135.31,1.4,135.31-5.82,12.2,3.57,15.49,15,.81,17.88-10.43,4.27-54,7.22-74.53,4-31.39,4-31.39l9.82-60.83s3.74,47.28,13.85,89.61c3.32,13.86.7,80,6.86,88.5s15.83,7.77,16.25,1.57,5-128.07,5-128.74c-.48-43.8-12.56-108-17.76-118.54S122,355.84,122,355.84Z" transform="translate(-50.56 0.53)"/><g class="cls-62"><path class="cls-63" d="M149.24,478.81l7.16-48,8.73-21.69s2.42,85.26,11.31,107.63,4.3,13.75,2.15,27.48,3,63.55,3,63.55l-12.92-4.22Z" transform="translate(-50.56 0.53)"/><path class="cls-63" d="M198.34,371.11s-18.27,13.47-36,16.43-34.66-.68-36.11,11-7.68,47.06-7,86.73-45.31-7.16-45.31-7.16l13.32-135.3Z" transform="translate(-50.56 0.53)"/></g><path class="cls-45" d="M103.2,612.87s-2.43-21.48,18.42-20.27,25,9.38,22.27,17.12-28.18,4.13-40.69,3.15Z" transform="translate(-50.56 0.53)"/><path class="cls-45" d="M170.54,612.87S168.11,591.39,189,592.6s25,9.38,22.26,17.12-28.17,4.13-40.68,3.15Z" transform="translate(-50.56 0.53)"/></g><path class="cls-22" d="M186.6,245.55l31.65-22S212.2,192,196.85,190s-31.91,31.7-31.91,31.7Z" transform="translate(-50.56 0.53)"/><path class="cls-23" d="M154.8,214.8s-28.15,9.13-40.7,43.92c-8.14,22.58,4,34.63,4.19,63.45s-7.43,23.72-8.25,38,3.68,18.45,8.93,22.9,65,1.93,70.68-1.93c0,0-15.62-22.57-3.08-56.25s6.23-72.18,1.53-86-21-23.6-33.3-24.14Z" transform="translate(-50.56 0.53)"/><g class="cls-64"><path class="cls-9" d="M147.81,303.84c-32,0-61.42-19.54-63.13-20.68l9-13.4c.49.33,49.36,32.63,82.11,9.54,31.23-22,28.14-36.86,28.1-37a2.81,2.81,0,0,0,.11.36l15.28-5.26c.88,2.56,7.38,25.81-34.18,55.11C173.32,300.82,160.37,303.84,147.81,303.84Z" transform="translate(-50.56 0.53)"/><path class="cls-9" d="M148.87,324.68c-32.21,0-61.55-14.46-63.29-15.33l7.24-14.45c.53.27,53.92,26.49,89.34,5.41,29.84-17.75,28.56-30.85,28.51-31l15.13-5.68c.92,2.47,7.79,24.84-35.37,50.52C177.39,322,162.85,324.68,148.87,324.68Z" transform="translate(-50.56 0.53)"/><g class="cls-65"><path class="cls-22" d="M135.78,259a54.08,54.08,0,0,0,8.08,47.65c17,23.61,52.77,42.14,52.77,42.14l.4-21.61S135.79,258,135.78,259Z" transform="translate(-50.56 0.53)"/></g><g class="cls-66"><path class="cls-67" d="M184.24,224.57s9.16,37.23,5.39,58.77A96.55,96.55,0,0,0,191.78,324l10.87-50.88S198.28,229.73,184.24,224.57Z" transform="translate(-50.56 0.53)"/></g></g><path class="cls-21" d="M158.39,178.41s-12.87,44.45-12.63,44.81c6.32,9.6,22.36,9.75,25.52,6,0,0-8.59-9.42.87-21.17,0,0-.17-26.84-13.76-29.67Z" transform="translate(-50.56 0.53)"/><g class="cls-68"><path class="cls-30" d="M139.55,189.37s21.27,29.62,34.19,28.81,3.78-26.55,3.78-26.55Z" transform="translate(-50.56 0.53)"/></g><path class="cls-21" d="M155.46,141s-13.32,35.22,3.54,59.27,19.8,13.13,29.78,3.32,10.65-23.44,10.45-26.62,6.77-12,4.67-23.71S183.68,124.69,155.46,141Z" transform="translate(-50.56 0.53)"/><g class="cls-69"><ellipse class="cls-9" cx="128.39" cy="176.45" rx="2.74" ry="3.55"/><ellipse class="cls-9" cx="144.19" cy="176.53" rx="2.26" ry="2.94"/><path class="cls-70" d="M186.47,190.92a.8.8,0,0,1-.8-.7.81.81,0,0,1,.69-.91c2.53-.33,5-1.12,5.3-1.64.07-.93-1.57-7-2.77-10.95a.81.81,0,1,1,1.55-.47c.49,1.65,3,10,2.82,11.6-.17,1.92-4.26,2.74-6.69,3.06Z" transform="translate(-50.56 0.53)"/><path class="cls-9" d="M170.51,166.62a.79.79,0,0,1-.72-.45.8.8,0,0,1,.37-1.08c.39-.19,9.54-4.55,14.73-.38a.82.82,0,0,1,.12,1.14.81.81,0,0,1-1.14.12c-4.39-3.54-12.92.53-13,.57A.78.78,0,0,1,170.51,166.62Z" transform="translate(-50.56 0.53)"/><path class="cls-9" d="M202.65,169.72a.8.8,0,0,1-.59-.26,7.23,7.23,0,0,0-8.62-1.66.81.81,0,0,1-.76-1.42,9,9,0,0,1,10.56,2,.81.81,0,0,1,0,1.14A.77.77,0,0,1,202.65,169.72Z" transform="translate(-50.56 0.53)"/></g><path class="cls-21" d="M150.28,249.81s39.77,31.43,48.06,58.82c0,0,58.79-1.1,82.48-9,6.13-2,10.81,5.76,6,10.06l-.2.17c-6.66,5.7-88.6,27.42-88.6,27.42s-50-32-58-57.17,7.11-29.27,10.32-30.28Z" transform="translate(-50.56 0.53)"/><g class="cls-71"><path class="cls-30" d="M185.59,268.26s-15.79,10-17,28,17,39,17,39l-45.77-32.58,10.64-29.88S166.74,257.22,185.59,268.26Z" transform="translate(-50.56 0.53)"/></g><path class="cls-21" d="M241.09,195.16s-7.48-18.26,6.37-19.39,70.09,33,70.09,42.65C317.55,229.87,241.09,195.16,241.09,195.16Z" transform="translate(-50.56 0.53)"/><path class="cls-23" d="M140.7,247s-12.45,5.14-7.46,28.12c5,22.77,17.59,32.13,17.59,32.13s11.74-31.06,26.69-35.24c0,0-2.83-6-15.7-18s-16.79-7.74-21.12-7Z" transform="translate(-50.56 0.53)"/><g class="cls-72"><path class="cls-67" d="M118,257.76s25.58-21.94,44.43,2.29S186.3,286.6,186.3,286.6l6.41-25.72-40.77-34.35Z" transform="translate(-50.56 0.53)"/></g><path class="cls-45" d="M159.74,161.66l-2.88,14.83s-12-17.51-14.08-25.41C137.83,132.63,160,133.3,160,133.3c9.44-16.57,59.4-9.34,55.37,13.06-3.44,19-11.83,17.88-11.83,17.88s1-13.07-10.9-14.65S161.54,152.39,159.74,161.66Z" transform="translate(-50.56 0.53)"/><ellipse class="cls-33" cx="99.37" cy="177.47" rx="5.1" ry="7.46"/><path class="cls-21" d="M277.47,309.72s21.11,1.22,23.13,1.62,22.76-8.47,19.93-8.47h-20.4c-.54-2,8.68-10.38,4.78-12.26s-6.6,6.19-12.79,6.19-11,2.56-12.39,5.39A39.91,39.91,0,0,0,277.47,309.72Z" transform="translate(-50.56 0.53)"/><path class="cls-21" d="M303.45,212.39s1.89,6.63,2.69,10.32,10,2.07,12.39,4.76,7.27,4.58,7.4,1.75-5.52-6.81-5.11-7.71,2.71-2.06,5.67-2.06h17.59s-13.3-6.92-18.82-7.06S303.45,212.39,303.45,212.39Z" transform="translate(-50.56 0.53)"/><path class="cls-22" d="M173,191.36s11.32,5.94,17.94,3.92c0,0-4.83,9.74-8.55,9.89S173,191.36,173,191.36Z" transform="translate(-50.56 0.53)"/><ellipse class="cls-1" cx="128.97" cy="177.7" rx="0.98" ry="1.23"/><ellipse class="cls-1" cx="142.67" cy="177.92" rx="0.8" ry="1.01"/><path class="cls-21" d="M174,206.56a24.15,24.15,0,0,0-2.1,1.46,17.4,17.4,0,0,1-1.83.8A41,41,0,0,1,174,206.56Z" transform="translate(-50.56 0.53)"/></g><path class="cls-23" d="M50.56,630.53v70.59H207.72V630.53a20.89,20.89,0,0,0-20.9-20.89H71.46A20.89,20.89,0,0,0,50.56,630.53Z" transform="translate(-50.56 0.53)"/><path class="cls-21" d="M88.69,630.53v70.59H245.84V630.53a20.89,20.89,0,0,0-20.9-20.89H109.58A20.89,20.89,0,0,0,88.69,630.53Z" transform="translate(-50.56 0.53)"/><polygon class="cls-22" points="38.12 701.64 0 701.64 0 677.53 38.12 636.57 38.12 701.64"/></g></g></g></svg>